<svg width="847.3040000000001" height="2259.1937213232277" viewBox="0 0 847.3040000000001 2259.1937213232277" xmlns="http://www.w3.org/2000/svg">
<style>/* font and background color specifications */
svg {
    font-family: SFMono-Regular,Consolas,Liberation Mono,Menlo,monospace;
    font-size: 14px;
    font-kerning: normal;
    text-rendering: optimizeLegibility;
    fill: #24292e;
}

/* default key styling */
rect {
    fill: #f6f8fa;
    stroke: #c9cccf;
    stroke-width: 1;
}

/* color accent for combo boxes */
rect.combo {
    fill: #cdf;
}

/* color accent for held keys */
rect.held, rect.combo.held {
    fill: #fdd;
}

/* color accent for ghost (optional) keys */
rect.ghost, rect.combo.ghost {
    fill: #ddd;
}

text {
    text-anchor: middle;
    dominant-baseline: middle;
}

/* styling for layer labels */
text.label {
    font-weight: bold;
    text-anchor: start;
    stroke: white;
    stroke-width: 2;
    paint-order: stroke;
}

/* styling for combo tap, and key hold/shifted label text */
text.combo, text.hold, text.shifted {
    font-size: 11px;
}

text.hold {
    text-anchor: middle;
    dominant-baseline: auto;
}

text.shifted {
    text-anchor: middle;
    dominant-baseline: hanging;
}

/* styling for hold/shifted label text in combo box */
text.combo.hold, text.combo.shifted {
    font-size: 8px;
}

/* styling for combo dendrons */
path {
    stroke-width: 1;
    stroke: gray;
    fill: none;
}
</style>
<g class="layer-Base">
<text x="30.0" y="28.0" class="label">Base:</text>
<rect rx="6.0" ry="6.0" x="32.0" y="117.304" width="55.303999999999995" height="52.0" class=""/>
<text x="59.652" y="143.304" class="tap">Q</text>
<rect rx="6.0" ry="6.0" x="91.30399999999999" y="77.768" width="55.303999999999995" height="52.0" class=""/>
<text x="118.95599999999999" y="103.768" class="tap">W</text>
<rect rx="6.0" ry="6.0" x="150.608" y="58.0" width="55.303999999999995" height="52.0" class=""/>
<text x="178.26" y="84.0" class="tap">F</text>
<text x="178.26" y="108.0" class="hold">HYPER</text>
<rect rx="6.0" ry="6.0" x="209.91200000000003" y="79.78399999999999" width="55.303999999999995" height="52.0" class=""/>
<text x="237.56400000000002" y="105.78399999999999" class="tap">P</text>
<rect rx="6.0" ry="6.0" x="269.21599999999995" y="87.624" width="55.303999999999995" height="52.0" class=""/>
<text x="296.86799999999994" y="113.624" class="tap">B</text>
<rect rx="6.0" ry="6.0" x="522.784" y="87.624" width="55.303999999999995" height="52.0" class=""/>
<text x="550.436" y="113.624" class="tap">J</text>
<rect rx="6.0" ry="6.0" x="582.088" y="79.78399999999999" width="55.303999999999995" height="52.0" class=""/>
<text x="609.74" y="105.78399999999999" class="tap">L</text>
<rect rx="6.0" ry="6.0" x="641.3919999999999" y="58.0" width="55.303999999999995" height="52.0" class=""/>
<text x="669.044" y="84.0" class="tap">U</text>
<text x="669.044" y="108.0" class="hold">HYPER</text>
<rect rx="6.0" ry="6.0" x="700.696" y="77.768" width="55.303999999999995" height="52.0" class=""/>
<text x="728.3480000000001" y="103.768" class="tap">Y</text>
<rect rx="6.0" ry="6.0" x="760.0" y="117.304" width="55.303999999999995" height="52.0" class=""/>
<text x="787.652" y="143.304" class="tap">&#x27;</text>
<text x="787.652" y="119.304" class="shifted">&quot;</text>
<rect rx="6.0" ry="6.0" x="32.0" y="173.304" width="55.303999999999995" height="52.0" class=""/>
<text x="59.652" y="199.304" class="tap">A</text>
<text x="59.652" y="223.304" class="hold">⌃</text>
<rect rx="6.0" ry="6.0" x="91.30399999999999" y="133.768" width="55.303999999999995" height="52.0" class=""/>
<text x="118.95599999999999" y="159.768" class="tap">R</text>
<text x="118.95599999999999" y="183.768" class="hold">⎇</text>
<rect rx="6.0" ry="6.0" x="150.608" y="114.0" width="55.303999999999995" height="52.0" class=""/>
<text x="178.26" y="140.0" class="tap">S</text>
<text x="178.26" y="164.0" class="hold">⌘</text>
<rect rx="6.0" ry="6.0" x="209.91200000000003" y="135.784" width="55.303999999999995" height="52.0" class=""/>
<text x="237.56400000000002" y="161.784" class="tap">T</text>
<text x="237.56400000000002" y="185.784" class="hold">⇧</text>
<rect rx="6.0" ry="6.0" x="269.21599999999995" y="143.624" width="55.303999999999995" height="52.0" class=""/>
<text x="296.86799999999994" y="169.624" class="tap">G</text>
<rect rx="6.0" ry="6.0" x="522.784" y="143.624" width="55.303999999999995" height="52.0" class=""/>
<text x="550.436" y="169.624" class="tap">M</text>
<rect rx="6.0" ry="6.0" x="582.088" y="135.784" width="55.303999999999995" height="52.0" class=""/>
<text x="609.74" y="161.784" class="tap">N</text>
<text x="609.74" y="185.784" class="hold">⇧</text>
<rect rx="6.0" ry="6.0" x="641.3919999999999" y="114.0" width="55.303999999999995" height="52.0" class=""/>
<text x="669.044" y="140.0" class="tap">E</text>
<text x="669.044" y="164.0" class="hold">⌘</text>
<rect rx="6.0" ry="6.0" x="700.696" y="133.768" width="55.303999999999995" height="52.0" class=""/>
<text x="728.3480000000001" y="159.768" class="tap">I</text>
<text x="728.3480000000001" y="183.768" class="hold">⎇</text>
<rect rx="6.0" ry="6.0" x="760.0" y="173.304" width="55.303999999999995" height="52.0" class=""/>
<text x="787.652" y="199.304" class="tap">O</text>
<text x="787.652" y="223.304" class="hold">⌃</text>
<rect rx="6.0" ry="6.0" x="32.0" y="229.304" width="55.303999999999995" height="52.0" class=""/>
<text x="59.652" y="255.304" class="tap">Z</text>
<rect rx="6.0" ry="6.0" x="91.30399999999999" y="189.768" width="55.303999999999995" height="52.0" class=""/>
<text x="118.95599999999999" y="215.768" class="tap">X</text>
<rect rx="6.0" ry="6.0" x="150.608" y="170.0" width="55.303999999999995" height="52.0" class=""/>
<text x="178.26" y="196.0" class="tap">C</text>
<text x="178.26" y="220.0" class="hold">MEH</text>
<rect rx="6.0" ry="6.0" x="209.91200000000003" y="191.84" width="55.303999999999995" height="52.0" class=""/>
<text x="237.56400000000002" y="217.84" class="tap">D</text>
<rect rx="6.0" ry="6.0" x="269.21599999999995" y="199.624" width="55.303999999999995" height="52.0" class=""/>
<text x="296.86799999999994" y="225.624" class="tap">V</text>
<rect rx="6.0" ry="6.0" x="522.784" y="199.624" width="55.303999999999995" height="52.0" class=""/>
<text x="550.436" y="225.624" class="tap">K</text>
<rect rx="6.0" ry="6.0" x="582.088" y="191.84" width="55.303999999999995" height="52.0" class=""/>
<text x="609.74" y="217.84" class="tap">H</text>
<rect rx="6.0" ry="6.0" x="641.3919999999999" y="170.0" width="55.303999999999995" height="52.0" class=""/>
<text x="669.044" y="196.0" class="tap">,</text>
<text x="669.044" y="220.0" class="hold">MEH</text>
<text x="669.044" y="172.0" class="shifted">;</text>
<rect rx="6.0" ry="6.0" x="700.696" y="189.768" width="55.303999999999995" height="52.0" class=""/>
<text x="728.3480000000001" y="215.768" class="tap">.</text>
<text x="728.3480000000001" y="191.768" class="shifted">:</text>
<rect rx="6.0" ry="6.0" x="760.0" y="229.304" width="55.303999999999995" height="52.0" class=""/>
<text x="787.652" y="255.304" class="tap">/</text>
<text x="787.652" y="231.304" class="shifted">?</text>
<rect rx="6.0" ry="6.0" x="190.42400000000004" y="257.584" width="55.303999999999995" height="52.0" class=""/>
<text x="218.07600000000002" y="283.584" class="tap">⎋</text>
<text x="218.07600000000002" y="307.584" class="hold">⌘</text>
<text x="218.07600000000002" y="259.584" class="shifted">~ `</text>
<g transform="rotate(15.0, 284.15695407686394, 292.1032469332629)">
<rect rx="6.0" ry="6.0" x="256.50495407686395" y="266.1032469332629" width="55.303999999999995" height="52.0" class=""/>
<text x="284.15695407686394" y="292.1032469332629" class="tap">⎵</text>
<text x="284.15695407686394" y="316.1032469332629" class="hold">SYM</text>
<text x="284.15695407686394" y="268.1032469332629" class="shifted">_ -</text>
</g>
<g transform="rotate(30.0, 350.59357474425406, 303.492)">
<rect rx="6.0" ry="6.0" x="324.59357474425406" y="261.028" width="52.0" height="84.928" class=""/>
<text x="350.59357474425406" y="303.492" class="tap">↹</text>
<text x="350.59357474425406" y="343.956" class="hold">Adjust</text>
</g>
<g transform="rotate(-30.0, 493.40642525574594, 303.492)">
<rect rx="6.0" ry="6.0" x="467.40642525574594" y="261.028" width="52.0" height="84.928" class=""/>
<text x="493.40642525574594" y="303.492" class="tap">⌫</text>
<text x="493.40642525574594" y="263.028" class="shifted">⌦</text>
</g>
<g transform="rotate(-15.0, 563.0344648531952, 292.9583850582816)">
<rect rx="6.0" ry="6.0" x="535.3824648531952" y="266.9583850582816" width="55.303999999999995" height="52.0" class=""/>
<text x="563.0344648531952" y="292.9583850582816" class="tap">⏎</text>
<text x="563.0344648531952" y="316.9583850582816" class="hold">Nav</text>
</g>
<rect rx="6.0" ry="6.0" x="601.5759999999999" y="257.584" width="55.303999999999995" height="52.0" class=""/>
<text x="629.228" y="283.584" class="tap">0</text>
<text x="629.228" y="307.584" class="hold">Num</text>
<rect rx="6.0" ry="6.0" x="193.912" y="137.892" width="28.0" height="26.0" class="combo"/>
<text x="207.912" y="150.892" class="combo">(</text>
<rect rx="6.0" ry="6.0" x="625.392" y="137.892" width="28.0" height="26.0" class="combo"/>
<text x="639.392" y="150.892" class="combo">)</text>
<rect rx="6.0" ry="6.0" x="193.912" y="193.92000000000002" width="28.0" height="26.0" class="combo"/>
<text x="207.912" y="206.92000000000002" class="combo">[</text>
<rect rx="6.0" ry="6.0" x="625.392" y="193.92000000000002" width="28.0" height="26.0" class="combo"/>
<text x="639.392" y="206.92000000000002" class="combo">]</text>
<rect rx="6.0" ry="6.0" x="193.912" y="81.892" width="28.0" height="26.0" class="combo"/>
<text x="207.912" y="94.892" class="combo">{</text>
<rect rx="6.0" ry="6.0" x="625.392" y="81.892" width="28.0" height="26.0" class="combo"/>
<text x="639.392" y="94.892" class="combo">}</text>
<rect rx="6.0" ry="6.0" x="253.216" y="152.704" width="28.0" height="26.0" class="combo"/>
<text x="267.216" y="165.704" class="combo">&lt;</text>
<rect rx="6.0" ry="6.0" x="566.088" y="152.704" width="28.0" height="26.0" class="combo"/>
<text x="580.088" y="165.704" class="combo">&gt;</text>
<path d="M423.65200000000004,161.784 l-166.32000000000002,0.0"/>
<path d="M423.65200000000004,161.784 l166.31999999999996,0.0"/>
<rect rx="6.0" ry="6.0" x="409.65200000000004" y="148.784" width="28.0" height="26.0" class="combo"/>
<text x="423.65200000000004" y="161.784" class="combo">
<tspan x="423.65200000000004" dy="-0.6em">Caps</tspan><tspan x="423.65200000000004" dy="1.2em">Word</tspan></text>
<path d="M284.27550960703934,365.75600000000003 h-60.19950960703932 a6.0,6.0 0 0 1 -6.0,-6.0 v-57.505333333333354"/>
<path d="M284.27550960703934,365.75600000000003 h5.881444469824601 a6.0,6.0 0 0 1 -6.0,-6.0 v-56.452753066737145"/>
<path d="M284.27550960703934,365.75600000000003 h60.31806513721472 a6.0,6.0 0 0 0 6.0,-6.0 v-26.621333333333343"/>
<rect rx="6.0" ry="6.0" x="270.27550960703934" y="352.75600000000003" width="28.0" height="26.0" class="combo"/>
<text x="284.27550960703934" y="365.75600000000003" class="combo">RET</text>
<rect rx="6.0" ry="6.0" x="303.375264410559" y="284.7976234666314" width="28.0" height="26.0" class="combo"/>
<text x="317.375264410559" y="297.7976234666314" class="combo">BSPC</text>
<path d="M178.26,176.784 h-53.304 a6.0,6.0 0 0 1 -6.0,-6.0 v7.650666666666677"/>
<path d="M178.26,176.784 h-6.0 a6.0,6.0 0 0 1 6.0,-6.0 v-19.583999999999993"/>
<path d="M178.26,176.784 h53.30400000000003 a6.0,6.0 0 0 0 6.0,-6.0 v9.666666666666668"/>
<rect rx="6.0" ry="6.0" x="164.26" y="163.784" width="28.0" height="26.0" class="combo"/>
<text x="178.26" y="176.784" class="combo">NAV</text>
<path d="M178.26,246.84 h-53.304 a6.0,6.0 0 0 1 -6.0,-6.0 v-6.405333333333335"/>
<path d="M178.26,246.84 h-6.0 a6.0,6.0 0 0 1 6.0,-6.0 v-33.64"/>
<path d="M178.26,246.84 h53.30400000000003 a6.0,6.0 0 0 0 6.0,-6.0 v-4.333333333333332"/>
<rect rx="6.0" ry="6.0" x="164.26" y="233.84" width="28.0" height="26.0" class="combo"/>
<text x="178.26" y="246.84" class="combo">NUM</text>
</g>
<g class="layer-Nav">
<text x="30.0" y="400.7989535538713" class="label">Nav:</text>
<rect rx="6.0" ry="6.0" x="32.0" y="490.1029535538713" width="55.303999999999995" height="52.0" class=""/>
<rect rx="6.0" ry="6.0" x="91.30399999999999" y="450.56695355387126" width="55.303999999999995" height="52.0" class=""/>
<text x="118.95599999999999" y="476.56695355387126" class="tap">⇤</text>
<rect rx="6.0" ry="6.0" x="150.608" y="430.7989535538713" width="55.303999999999995" height="52.0" class=""/>
<rect rx="6.0" ry="6.0" x="209.91200000000003" y="452.5829535538713" width="55.303999999999995" height="52.0" class=""/>
<text x="237.56400000000002" y="478.5829535538713" class="tap">⇥</text>
<rect rx="6.0" ry="6.0" x="269.21599999999995" y="460.42295355387125" width="55.303999999999995" height="52.0" class=""/>
<text x="296.86799999999994" y="486.42295355387125" class="tap">
<tspan x="296.86799999999994" dy="-0.6em">PG</tspan><tspan x="296.86799999999994" dy="1.2em">UP</tspan></text>
<rect rx="6.0" ry="6.0" x="522.784" y="460.42295355387125" width="55.303999999999995" height="52.0" class=""/>
<rect rx="6.0" ry="6.0" x="582.088" y="452.5829535538713" width="55.303999999999995" height="52.0" class=""/>
<rect rx="6.0" ry="6.0" x="641.3919999999999" y="430.7989535538713" width="55.303999999999995" height="52.0" class=""/>
<text x="669.044" y="456.7989535538713" class="tap">HYPER</text>
<rect rx="6.0" ry="6.0" x="700.696" y="450.56695355387126" width="55.303999999999995" height="52.0" class=""/>
<rect rx="6.0" ry="6.0" x="760.0" y="490.1029535538713" width="55.303999999999995" height="52.0" class=""/>
<rect rx="6.0" ry="6.0" x="32.0" y="546.1029535538713" width="55.303999999999995" height="52.0" class=""/>
<text x="59.652" y="572.1029535538713" class="tap">
<tspan x="59.652" dy="-0.6em">⇧</tspan><tspan x="59.652" dy="1.2em">Lock</tspan></text>
<rect rx="6.0" ry="6.0" x="91.30399999999999" y="506.56695355387126" width="55.303999999999995" height="52.0" class=""/>
<text x="118.95599999999999" y="532.5669535538713" class="tap">←</text>
<rect rx="6.0" ry="6.0" x="150.608" y="486.79895355387134" width="55.303999999999995" height="52.0" class=""/>
<text x="178.26" y="512.7989535538713" class="tap">↑</text>
<rect rx="6.0" ry="6.0" x="209.91200000000003" y="508.58295355387133" width="55.303999999999995" height="52.0" class=""/>
<text x="237.56400000000002" y="534.5829535538713" class="tap">→</text>
<rect rx="6.0" ry="6.0" x="269.21599999999995" y="516.4229535538713" width="55.303999999999995" height="52.0" class=""/>
<text x="296.86799999999994" y="542.4229535538713" class="tap">
<tspan x="296.86799999999994" dy="-0.6em">PG</tspan><tspan x="296.86799999999994" dy="1.2em">DN</tspan></text>
<rect rx="6.0" ry="6.0" x="522.784" y="516.4229535538713" width="55.303999999999995" height="52.0" class=""/>
<rect rx="6.0" ry="6.0" x="582.088" y="508.58295355387133" width="55.303999999999995" height="52.0" class=""/>
<text x="609.74" y="534.5829535538713" class="tap">⇧</text>
<rect rx="6.0" ry="6.0" x="641.3919999999999" y="486.79895355387134" width="55.303999999999995" height="52.0" class=""/>
<text x="669.044" y="512.7989535538713" class="tap">⌘</text>
<rect rx="6.0" ry="6.0" x="700.696" y="506.56695355387126" width="55.303999999999995" height="52.0" class=""/>
<text x="728.3480000000001" y="532.5669535538713" class="tap">⎇</text>
<rect rx="6.0" ry="6.0" x="760.0" y="546.1029535538713" width="55.303999999999995" height="52.0" class=""/>
<text x="787.652" y="572.1029535538713" class="tap">⌃</text>
<rect rx="6.0" ry="6.0" x="32.0" y="602.1029535538713" width="55.303999999999995" height="52.0" class=""/>
<rect rx="6.0" ry="6.0" x="91.30399999999999" y="562.5669535538713" width="55.303999999999995" height="52.0" class=""/>
<text x="118.95599999999999" y="588.5669535538713" class="tap">↞</text>
<rect rx="6.0" ry="6.0" x="150.608" y="542.7989535538713" width="55.303999999999995" height="52.0" class=""/>
<text x="178.26" y="568.7989535538713" class="tap">↓</text>
<rect rx="6.0" ry="6.0" x="209.91200000000003" y="564.6389535538713" width="55.303999999999995" height="52.0" class=""/>
<text x="237.56400000000002" y="590.6389535538713" class="tap">↠</text>
<rect rx="6.0" ry="6.0" x="269.21599999999995" y="572.4229535538713" width="55.303999999999995" height="52.0" class=""/>
<rect rx="6.0" ry="6.0" x="522.784" y="572.4229535538713" width="55.303999999999995" height="52.0" class=""/>
<rect rx="6.0" ry="6.0" x="582.088" y="564.6389535538713" width="55.303999999999995" height="52.0" class=""/>
<rect rx="6.0" ry="6.0" x="641.3919999999999" y="542.7989535538713" width="55.303999999999995" height="52.0" class=""/>
<text x="669.044" y="568.7989535538713" class="tap">MEH</text>
<rect rx="6.0" ry="6.0" x="700.696" y="562.5669535538713" width="55.303999999999995" height="52.0" class=""/>
<rect rx="6.0" ry="6.0" x="760.0" y="602.1029535538713" width="55.303999999999995" height="52.0" class=""/>
<rect rx="6.0" ry="6.0" x="190.42400000000004" y="630.3829535538713" width="55.303999999999995" height="52.0" class=""/>
<text x="218.07600000000002" y="656.3829535538713" class="tap">
<tspan x="218.07600000000002" dy="-1.2em">Cancel</tspan><tspan x="218.07600000000002" dy="1.2em">Nav</tspan></text>
<text x="218.07600000000002" y="680.3829535538713" class="hold">⌘</text>
<g transform="rotate(15.0, 284.15695407686394, 664.9022004871341)">
<rect rx="6.0" ry="6.0" x="256.50495407686395" y="638.9022004871341" width="55.303999999999995" height="52.0" class=""/>
</g>
<g transform="rotate(30.0, 350.59357474425406, 676.2909535538713)">
<rect rx="6.0" ry="6.0" x="324.59357474425406" y="633.8269535538714" width="52.0" height="84.928" class=""/>
</g>
<g transform="rotate(-30.0, 493.40642525574594, 676.2909535538713)">
<rect rx="6.0" ry="6.0" x="467.40642525574594" y="633.8269535538714" width="52.0" height="84.928" class=""/>
</g>
<g transform="rotate(-15.0, 563.0344648531952, 665.7573386121529)">
<rect rx="6.0" ry="6.0" x="535.3824648531952" y="639.7573386121529" width="55.303999999999995" height="52.0" class="held"/>
</g>
<rect rx="6.0" ry="6.0" x="601.5759999999999" y="630.3829535538713" width="55.303999999999995" height="52.0" class=""/>
<path d="M284.27550960703934,738.5549535538713 h-60.19950960703932 a6.0,6.0 0 0 1 -6.0,-6.0 v-57.505333333333354"/>
<path d="M284.27550960703934,738.5549535538713 h5.881444469824601 a6.0,6.0 0 0 1 -6.0,-6.0 v-56.4527530667372"/>
<path d="M284.27550960703934,738.5549535538713 h60.31806513721472 a6.0,6.0 0 0 0 6.0,-6.0 v-26.621333333333343"/>
<rect rx="6.0" ry="6.0" x="270.27550960703934" y="725.5549535538713" width="28.0" height="26.0" class="combo"/>
<text x="284.27550960703934" y="738.5549535538713" class="combo">RET</text>
<rect rx="6.0" ry="6.0" x="303.375264410559" y="657.5965770205028" width="28.0" height="26.0" class="combo"/>
<text x="317.375264410559" y="670.5965770205028" class="combo">BSPC</text>
<path d="M178.26,619.6389535538713 h-53.304 a6.0,6.0 0 0 1 -6.0,-6.0 v-6.405333333333335"/>
<path d="M178.26,619.6389535538713 h-6.0 a6.0,6.0 0 0 1 6.0,-6.0 v-33.639999999999915"/>
<path d="M178.26,619.6389535538713 h53.30400000000003 a6.0,6.0 0 0 0 6.0,-6.0 v-4.333333333333332"/>
<rect rx="6.0" ry="6.0" x="164.26" y="606.6389535538713" width="28.0" height="26.0" class="combo"/>
<text x="178.26" y="619.6389535538713" class="combo">NUM</text>
</g>
<g class="layer-Num">
<text x="30.0" y="773.5979071077426" class="label">Num:</text>
<rect rx="6.0" ry="6.0" x="32.0" y="862.9019071077425" width="55.303999999999995" height="52.0" class=""/>
<rect rx="6.0" ry="6.0" x="91.30399999999999" y="823.3659071077426" width="55.303999999999995" height="52.0" class=""/>
<text x="118.95599999999999" y="849.3659071077426" class="tap">7</text>
<rect rx="6.0" ry="6.0" x="150.608" y="803.5979071077426" width="55.303999999999995" height="52.0" class=""/>
<text x="178.26" y="829.5979071077426" class="tap">8</text>
<rect rx="6.0" ry="6.0" x="209.91200000000003" y="825.3819071077426" width="55.303999999999995" height="52.0" class=""/>
<text x="237.56400000000002" y="851.3819071077426" class="tap">9</text>
<rect rx="6.0" ry="6.0" x="269.21599999999995" y="833.2219071077426" width="55.303999999999995" height="52.0" class=""/>
<rect rx="6.0" ry="6.0" x="522.784" y="833.2219071077426" width="55.303999999999995" height="52.0" class=""/>
<rect rx="6.0" ry="6.0" x="582.088" y="825.3819071077426" width="55.303999999999995" height="52.0" class=""/>
<text x="609.74" y="851.3819071077426" class="tap">$</text>
<rect rx="6.0" ry="6.0" x="641.3919999999999" y="803.5979071077426" width="55.303999999999995" height="52.0" class=""/>
<text x="669.044" y="829.5979071077426" class="tap">HYPER</text>
<rect rx="6.0" ry="6.0" x="700.696" y="823.3659071077426" width="55.303999999999995" height="52.0" class=""/>
<rect rx="6.0" ry="6.0" x="760.0" y="862.9019071077425" width="55.303999999999995" height="52.0" class=""/>
<rect rx="6.0" ry="6.0" x="32.0" y="918.9019071077425" width="55.303999999999995" height="52.0" class=""/>
<text x="59.652" y="944.9019071077425" class="tap">0</text>
<text x="59.652" y="968.9019071077425" class="hold">⌃</text>
<rect rx="6.0" ry="6.0" x="91.30399999999999" y="879.3659071077426" width="55.303999999999995" height="52.0" class=""/>
<text x="118.95599999999999" y="905.3659071077426" class="tap">4</text>
<text x="118.95599999999999" y="929.3659071077426" class="hold">⎇</text>
<rect rx="6.0" ry="6.0" x="150.608" y="859.5979071077426" width="55.303999999999995" height="52.0" class=""/>
<text x="178.26" y="885.5979071077426" class="tap">5</text>
<rect rx="6.0" ry="6.0" x="209.91200000000003" y="881.3819071077426" width="55.303999999999995" height="52.0" class=""/>
<text x="237.56400000000002" y="907.3819071077426" class="tap">6</text>
<text x="237.56400000000002" y="931.3819071077426" class="hold">⇧</text>
<rect rx="6.0" ry="6.0" x="269.21599999999995" y="889.2219071077426" width="55.303999999999995" height="52.0" class=""/>
<text x="296.86799999999994" y="915.2219071077426" class="tap">0</text>
<rect rx="6.0" ry="6.0" x="522.784" y="889.2219071077426" width="55.303999999999995" height="52.0" class=""/>
<text x="550.436" y="915.2219071077426" class="tap">+</text>
<rect rx="6.0" ry="6.0" x="582.088" y="881.3819071077426" width="55.303999999999995" height="52.0" class=""/>
<text x="609.74" y="907.3819071077426" class="tap">⇧</text>
<rect rx="6.0" ry="6.0" x="641.3919999999999" y="859.5979071077426" width="55.303999999999995" height="52.0" class=""/>
<text x="669.044" y="885.5979071077426" class="tap">=</text>
<text x="669.044" y="909.5979071077426" class="hold">⌘</text>
<text x="669.044" y="861.5979071077426" class="shifted">+</text>
<rect rx="6.0" ry="6.0" x="700.696" y="879.3659071077426" width="55.303999999999995" height="52.0" class=""/>
<text x="728.3480000000001" y="905.3659071077426" class="tap">⎇</text>
<rect rx="6.0" ry="6.0" x="760.0" y="918.9019071077425" width="55.303999999999995" height="52.0" class=""/>
<text x="787.652" y="944.9019071077425" class="tap">*</text>
<text x="787.652" y="968.9019071077425" class="hold">⌃</text>
<rect rx="6.0" ry="6.0" x="32.0" y="974.9019071077425" width="55.303999999999995" height="52.0" class=""/>
<rect rx="6.0" ry="6.0" x="91.30399999999999" y="935.3659071077426" width="55.303999999999995" height="52.0" class=""/>
<text x="118.95599999999999" y="961.3659071077426" class="tap">1</text>
<rect rx="6.0" ry="6.0" x="150.608" y="915.5979071077426" width="55.303999999999995" height="52.0" class=""/>
<text x="178.26" y="941.5979071077426" class="tap">2</text>
<rect rx="6.0" ry="6.0" x="209.91200000000003" y="937.4379071077426" width="55.303999999999995" height="52.0" class=""/>
<text x="237.56400000000002" y="963.4379071077426" class="tap">3</text>
<rect rx="6.0" ry="6.0" x="269.21599999999995" y="945.2219071077426" width="55.303999999999995" height="52.0" class=""/>
<rect rx="6.0" ry="6.0" x="522.784" y="945.2219071077426" width="55.303999999999995" height="52.0" class=""/>
<text x="550.436" y="971.2219071077426" class="tap">%</text>
<rect rx="6.0" ry="6.0" x="582.088" y="937.4379071077426" width="55.303999999999995" height="52.0" class=""/>
<text x="609.74" y="963.4379071077426" class="tap">-</text>
<text x="609.74" y="939.4379071077426" class="shifted">_</text>
<rect rx="6.0" ry="6.0" x="641.3919999999999" y="915.5979071077426" width="55.303999999999995" height="52.0" class=""/>
<text x="669.044" y="941.5979071077426" class="tap">,</text>
<text x="669.044" y="965.5979071077426" class="hold">MEH</text>
<text x="669.044" y="917.5979071077426" class="shifted">;</text>
<rect rx="6.0" ry="6.0" x="700.696" y="935.3659071077426" width="55.303999999999995" height="52.0" class=""/>
<text x="728.3480000000001" y="961.3659071077426" class="tap">.</text>
<text x="728.3480000000001" y="937.3659071077426" class="shifted">:</text>
<rect rx="6.0" ry="6.0" x="760.0" y="974.9019071077425" width="55.303999999999995" height="52.0" class=""/>
<text x="787.652" y="1000.9019071077425" class="tap">/</text>
<text x="787.652" y="976.9019071077425" class="shifted">?</text>
<rect rx="6.0" ry="6.0" x="190.42400000000004" y="1003.1819071077425" width="55.303999999999995" height="52.0" class=""/>
<text x="218.07600000000002" y="1029.1819071077425" class="tap">
<tspan x="218.07600000000002" dy="-1.2em">Cancel</tspan><tspan x="218.07600000000002" dy="1.2em">Num</tspan></text>
<text x="218.07600000000002" y="1053.1819071077425" class="hold">⌘</text>
<g transform="rotate(15.0, 284.15695407686394, 1037.7011540410053)">
<rect rx="6.0" ry="6.0" x="256.50495407686395" y="1011.7011540410053" width="55.303999999999995" height="52.0" class=""/>
</g>
<g transform="rotate(30.0, 350.59357474425406, 1049.0899071077426)">
<rect rx="6.0" ry="6.0" x="324.59357474425406" y="1006.6259071077427" width="52.0" height="84.928" class=""/>
</g>
<g transform="rotate(-30.0, 493.40642525574594, 1049.0899071077426)">
<rect rx="6.0" ry="6.0" x="467.40642525574594" y="1006.6259071077427" width="52.0" height="84.928" class=""/>
</g>
<g transform="rotate(-15.0, 563.0344648531952, 1038.5562921660241)">
<rect rx="6.0" ry="6.0" x="535.3824648531952" y="1012.5562921660241" width="55.303999999999995" height="52.0" class=""/>
</g>
<rect rx="6.0" ry="6.0" x="601.5759999999999" y="1003.1819071077425" width="55.303999999999995" height="52.0" class="held"/>
<rect rx="6.0" ry="6.0" x="193.912" y="883.4899071077425" width="28.0" height="26.0" class="combo"/>
<text x="207.912" y="896.4899071077425" class="combo">(</text>
<rect rx="6.0" ry="6.0" x="625.392" y="883.4899071077425" width="28.0" height="26.0" class="combo"/>
<text x="639.392" y="896.4899071077425" class="combo">)</text>
<rect rx="6.0" ry="6.0" x="193.912" y="939.5179071077425" width="28.0" height="26.0" class="combo"/>
<text x="207.912" y="952.5179071077425" class="combo">[</text>
<rect rx="6.0" ry="6.0" x="625.392" y="939.5179071077425" width="28.0" height="26.0" class="combo"/>
<text x="639.392" y="952.5179071077425" class="combo">]</text>
<rect rx="6.0" ry="6.0" x="193.912" y="827.4899071077425" width="28.0" height="26.0" class="combo"/>
<text x="207.912" y="840.4899071077425" class="combo">{</text>
<rect rx="6.0" ry="6.0" x="625.392" y="827.4899071077425" width="28.0" height="26.0" class="combo"/>
<text x="639.392" y="840.4899071077425" class="combo">}</text>
<rect rx="6.0" ry="6.0" x="253.216" y="898.3019071077426" width="28.0" height="26.0" class="combo"/>
<text x="267.216" y="911.3019071077426" class="combo">&lt;</text>
<rect rx="6.0" ry="6.0" x="566.088" y="898.3019071077426" width="28.0" height="26.0" class="combo"/>
<text x="580.088" y="911.3019071077426" class="combo">&gt;</text>
<path d="M284.27550960703934,1111.3539071077425 h-60.19950960703932 a6.0,6.0 0 0 1 -6.0,-6.0 v-57.505333333333354"/>
<path d="M284.27550960703934,1111.3539071077425 h5.881444469824601 a6.0,6.0 0 0 1 -6.0,-6.0 v-56.4527530667372"/>
<path d="M284.27550960703934,1111.3539071077425 h60.31806513721472 a6.0,6.0 0 0 0 6.0,-6.0 v-26.62133333333323"/>
<rect rx="6.0" ry="6.0" x="270.27550960703934" y="1098.3539071077425" width="28.0" height="26.0" class="combo"/>
<text x="284.27550960703934" y="1111.3539071077425" class="combo">RET</text>
<rect rx="6.0" ry="6.0" x="303.375264410559" y="1030.3955305743739" width="28.0" height="26.0" class="combo"/>
<text x="317.375264410559" y="1043.3955305743739" class="combo">BSPC</text>
<path d="M178.26,922.3819071077426 h-53.304 a6.0,6.0 0 0 1 -6.0,-6.0 v7.650666666666705"/>
<path d="M178.26,922.3819071077426 h-6.0 a6.0,6.0 0 0 1 6.0,-6.0 v-19.583999999999993"/>
<path d="M178.26,922.3819071077426 h53.30400000000003 a6.0,6.0 0 0 0 6.0,-6.0 v9.666666666666668"/>
<rect rx="6.0" ry="6.0" x="164.26" y="909.3819071077426" width="28.0" height="26.0" class="combo"/>
<text x="178.26" y="922.3819071077426" class="combo">NAV</text>
</g>
<g class="layer-Sym">
<text x="30.0" y="1146.3968606616138" class="label">Sym:</text>
<rect rx="6.0" ry="6.0" x="32.0" y="1235.700860661614" width="55.303999999999995" height="52.0" class=""/>
<text x="59.652" y="1261.700860661614" class="tap">⌘Q</text>
<rect rx="6.0" ry="6.0" x="91.30399999999999" y="1196.1648606616138" width="55.303999999999995" height="52.0" class=""/>
<text x="118.95599999999999" y="1222.1648606616138" class="tap">⌘W</text>
<rect rx="6.0" ry="6.0" x="150.608" y="1176.3968606616138" width="55.303999999999995" height="52.0" class=""/>
<text x="178.26" y="1202.3968606616138" class="tap">⌃⇧↹</text>
<rect rx="6.0" ry="6.0" x="209.91200000000003" y="1198.180860661614" width="55.303999999999995" height="52.0" class=""/>
<text x="237.56400000000002" y="1224.180860661614" class="tap">⌃↹</text>
<rect rx="6.0" ry="6.0" x="269.21599999999995" y="1206.0208606616138" width="55.303999999999995" height="52.0" class=""/>
<text x="296.86799999999994" y="1232.0208606616138" class="tap">⌘`</text>
<rect rx="6.0" ry="6.0" x="522.784" y="1206.0208606616138" width="55.303999999999995" height="52.0" class=""/>
<text x="550.436" y="1232.0208606616138" class="tap">~</text>
<rect rx="6.0" ry="6.0" x="582.088" y="1198.180860661614" width="55.303999999999995" height="52.0" class=""/>
<text x="609.74" y="1224.180860661614" class="tap">$</text>
<rect rx="6.0" ry="6.0" x="641.3919999999999" y="1176.3968606616138" width="55.303999999999995" height="52.0" class=""/>
<text x="669.044" y="1202.3968606616138" class="tap">&amp;</text>
<rect rx="6.0" ry="6.0" x="700.696" y="1196.1648606616138" width="55.303999999999995" height="52.0" class=""/>
<text x="728.3480000000001" y="1222.1648606616138" class="tap">|</text>
<rect rx="6.0" ry="6.0" x="760.0" y="1235.700860661614" width="55.303999999999995" height="52.0" class=""/>
<text x="787.652" y="1261.700860661614" class="tap">`</text>
<text x="787.652" y="1237.700860661614" class="shifted">^</text>
<rect rx="6.0" ry="6.0" x="32.0" y="1291.700860661614" width="55.303999999999995" height="52.0" class=""/>
<text x="59.652" y="1317.700860661614" class="tap">⌃</text>
<rect rx="6.0" ry="6.0" x="91.30399999999999" y="1252.1648606616138" width="55.303999999999995" height="52.0" class=""/>
<text x="118.95599999999999" y="1278.1648606616138" class="tap">⎇</text>
<rect rx="6.0" ry="6.0" x="150.608" y="1232.3968606616138" width="55.303999999999995" height="52.0" class=""/>
<text x="178.26" y="1258.3968606616138" class="tap">⌘</text>
<rect rx="6.0" ry="6.0" x="209.91200000000003" y="1254.180860661614" width="55.303999999999995" height="52.0" class=""/>
<text x="237.56400000000002" y="1280.180860661614" class="tap">⇧</text>
<rect rx="6.0" ry="6.0" x="269.21599999999995" y="1262.0208606616138" width="55.303999999999995" height="52.0" class=""/>
<text x="296.86799999999994" y="1288.0208606616138" class="tap">⌘↹</text>
<rect rx="6.0" ry="6.0" x="522.784" y="1262.0208606616138" width="55.303999999999995" height="52.0" class=""/>
<text x="550.436" y="1288.0208606616138" class="tap">+</text>
<rect rx="6.0" ry="6.0" x="582.088" y="1254.180860661614" width="55.303999999999995" height="52.0" class=""/>
<text x="609.74" y="1280.180860661614" class="tap">!</text>
<rect rx="6.0" ry="6.0" x="641.3919999999999" y="1232.3968606616138" width="55.303999999999995" height="52.0" class=""/>
<text x="669.044" y="1258.3968606616138" class="tap">=</text>
<text x="669.044" y="1234.3968606616138" class="shifted">+</text>
<rect rx="6.0" ry="6.0" x="700.696" y="1252.1648606616138" width="55.303999999999995" height="52.0" class=""/>
<text x="728.3480000000001" y="1278.1648606616138" class="tap">#</text>
<rect rx="6.0" ry="6.0" x="760.0" y="1291.700860661614" width="55.303999999999995" height="52.0" class=""/>
<text x="787.652" y="1317.700860661614" class="tap">*</text>
<rect rx="6.0" ry="6.0" x="32.0" y="1347.700860661614" width="55.303999999999995" height="52.0" class=""/>
<text x="59.652" y="1373.700860661614" class="tap">⌘Z</text>
<rect rx="6.0" ry="6.0" x="91.30399999999999" y="1308.1648606616138" width="55.303999999999995" height="52.0" class=""/>
<text x="118.95599999999999" y="1334.1648606616138" class="tap">⌘X</text>
<rect rx="6.0" ry="6.0" x="150.608" y="1288.3968606616138" width="55.303999999999995" height="52.0" class=""/>
<text x="178.26" y="1314.3968606616138" class="tap">⌘C</text>
<rect rx="6.0" ry="6.0" x="209.91200000000003" y="1310.2368606616137" width="55.303999999999995" height="52.0" class=""/>
<rect rx="6.0" ry="6.0" x="269.21599999999995" y="1318.0208606616138" width="55.303999999999995" height="52.0" class=""/>
<text x="296.86799999999994" y="1344.0208606616138" class="tap">⌘V</text>
<rect rx="6.0" ry="6.0" x="522.784" y="1318.0208606616138" width="55.303999999999995" height="52.0" class=""/>
<text x="550.436" y="1344.0208606616138" class="tap">%</text>
<rect rx="6.0" ry="6.0" x="582.088" y="1310.2368606616137" width="55.303999999999995" height="52.0" class=""/>
<text x="609.74" y="1336.2368606616137" class="tap">-</text>
<text x="609.74" y="1312.2368606616137" class="shifted">_</text>
<rect rx="6.0" ry="6.0" x="641.3919999999999" y="1288.3968606616138" width="55.303999999999995" height="52.0" class=""/>
<text x="669.044" y="1314.3968606616138" class="tap">_</text>
<rect rx="6.0" ry="6.0" x="700.696" y="1308.1648606616138" width="55.303999999999995" height="52.0" class=""/>
<text x="728.3480000000001" y="1334.1648606616138" class="tap">@</text>
<rect rx="6.0" ry="6.0" x="760.0" y="1347.700860661614" width="55.303999999999995" height="52.0" class=""/>
<text x="787.652" y="1373.700860661614" class="tap">\</text>
<text x="787.652" y="1349.700860661614" class="shifted">|</text>
<rect rx="6.0" ry="6.0" x="190.42400000000004" y="1375.9808606616139" width="55.303999999999995" height="52.0" class=""/>
<text x="218.07600000000002" y="1401.9808606616139" class="tap">
<tspan x="218.07600000000002" dy="-1.2em">Cancel</tspan><tspan x="218.07600000000002" dy="1.2em">Sym</tspan></text>
<text x="218.07600000000002" y="1425.9808606616139" class="hold">⌘</text>
<g transform="rotate(15.0, 284.15695407686394, 1410.5001075948767)">
<rect rx="6.0" ry="6.0" x="256.50495407686395" y="1384.5001075948767" width="55.303999999999995" height="52.0" class="held"/>
</g>
<g transform="rotate(30.0, 350.59357474425406, 1421.8888606616138)">
<rect rx="6.0" ry="6.0" x="324.59357474425406" y="1379.4248606616138" width="52.0" height="84.928" class=""/>
</g>
<g transform="rotate(-30.0, 493.40642525574594, 1421.8888606616138)">
<rect rx="6.0" ry="6.0" x="467.40642525574594" y="1379.4248606616138" width="52.0" height="84.928" class=""/>
</g>
<g transform="rotate(-15.0, 563.0344648531952, 1411.3552457198955)">
<rect rx="6.0" ry="6.0" x="535.3824648531952" y="1385.3552457198955" width="55.303999999999995" height="52.0" class=""/>
</g>
<rect rx="6.0" ry="6.0" x="601.5759999999999" y="1375.9808606616139" width="55.303999999999995" height="52.0" class=""/>
<rect rx="6.0" ry="6.0" x="193.912" y="1256.2888606616139" width="28.0" height="26.0" class="combo"/>
<text x="207.912" y="1269.2888606616139" class="combo">(</text>
<rect rx="6.0" ry="6.0" x="625.392" y="1256.2888606616139" width="28.0" height="26.0" class="combo"/>
<text x="639.392" y="1269.2888606616139" class="combo">)</text>
<rect rx="6.0" ry="6.0" x="193.912" y="1312.3168606616139" width="28.0" height="26.0" class="combo"/>
<text x="207.912" y="1325.3168606616139" class="combo">[</text>
<rect rx="6.0" ry="6.0" x="625.392" y="1312.3168606616139" width="28.0" height="26.0" class="combo"/>
<text x="639.392" y="1325.3168606616139" class="combo">]</text>
<rect rx="6.0" ry="6.0" x="193.912" y="1200.2888606616139" width="28.0" height="26.0" class="combo"/>
<text x="207.912" y="1213.2888606616139" class="combo">{</text>
<rect rx="6.0" ry="6.0" x="625.392" y="1200.2888606616139" width="28.0" height="26.0" class="combo"/>
<text x="639.392" y="1213.2888606616139" class="combo">}</text>
<rect rx="6.0" ry="6.0" x="253.216" y="1271.1008606616138" width="28.0" height="26.0" class="combo"/>
<text x="267.216" y="1284.1008606616138" class="combo">&lt;</text>
<rect rx="6.0" ry="6.0" x="566.088" y="1271.1008606616138" width="28.0" height="26.0" class="combo"/>
<text x="580.088" y="1284.1008606616138" class="combo">&gt;</text>
<path d="M284.27550960703934,1484.1528606616139 h-60.19950960703932 a6.0,6.0 0 0 1 -6.0,-6.0 v-57.505333333333354"/>
<path d="M284.27550960703934,1484.1528606616139 h5.881444469824601 a6.0,6.0 0 0 1 -6.0,-6.0 v-56.4527530667372"/>
<path d="M284.27550960703934,1484.1528606616139 h60.31806513721472 a6.0,6.0 0 0 0 6.0,-6.0 v-26.621333333333457"/>
<rect rx="6.0" ry="6.0" x="270.27550960703934" y="1471.1528606616139" width="28.0" height="26.0" class="combo"/>
<text x="284.27550960703934" y="1484.1528606616139" class="combo">RET</text>
<rect rx="6.0" ry="6.0" x="303.375264410559" y="1403.1944841282452" width="28.0" height="26.0" class="combo"/>
<text x="317.375264410559" y="1416.1944841282452" class="combo">BSPC</text>
</g>
<g class="layer-Func">
<text x="30.0" y="1519.1958142154851" class="label">Func:</text>
<rect rx="6.0" ry="6.0" x="32.0" y="1608.4998142154852" width="55.303999999999995" height="52.0" class=""/>
<rect rx="6.0" ry="6.0" x="91.30399999999999" y="1568.9638142154852" width="55.303999999999995" height="52.0" class=""/>
<text x="118.95599999999999" y="1594.9638142154852" class="tap">F7</text>
<rect rx="6.0" ry="6.0" x="150.608" y="1549.1958142154851" width="55.303999999999995" height="52.0" class=""/>
<text x="178.26" y="1575.1958142154851" class="tap">F8</text>
<rect rx="6.0" ry="6.0" x="209.91200000000003" y="1570.9798142154852" width="55.303999999999995" height="52.0" class=""/>
<text x="237.56400000000002" y="1596.9798142154852" class="tap">F9</text>
<rect rx="6.0" ry="6.0" x="269.21599999999995" y="1578.8198142154852" width="55.303999999999995" height="52.0" class=""/>
<text x="296.86799999999994" y="1604.8198142154852" class="tap">F12</text>
<rect rx="6.0" ry="6.0" x="522.784" y="1578.8198142154852" width="55.303999999999995" height="52.0" class=""/>
<rect rx="6.0" ry="6.0" x="582.088" y="1570.9798142154852" width="55.303999999999995" height="52.0" class=""/>
<rect rx="6.0" ry="6.0" x="641.3919999999999" y="1549.1958142154851" width="55.303999999999995" height="52.0" class=""/>
<text x="669.044" y="1575.1958142154851" class="tap">HYPER</text>
<rect rx="6.0" ry="6.0" x="700.696" y="1568.9638142154852" width="55.303999999999995" height="52.0" class=""/>
<rect rx="6.0" ry="6.0" x="760.0" y="1608.4998142154852" width="55.303999999999995" height="52.0" class=""/>
<rect rx="6.0" ry="6.0" x="32.0" y="1664.4998142154852" width="55.303999999999995" height="52.0" class=""/>
<rect rx="6.0" ry="6.0" x="91.30399999999999" y="1624.9638142154852" width="55.303999999999995" height="52.0" class=""/>
<text x="118.95599999999999" y="1650.9638142154852" class="tap">F4</text>
<rect rx="6.0" ry="6.0" x="150.608" y="1605.1958142154851" width="55.303999999999995" height="52.0" class=""/>
<text x="178.26" y="1631.1958142154851" class="tap">F5</text>
<rect rx="6.0" ry="6.0" x="209.91200000000003" y="1626.9798142154852" width="55.303999999999995" height="52.0" class=""/>
<text x="237.56400000000002" y="1652.9798142154852" class="tap">F6</text>
<rect rx="6.0" ry="6.0" x="269.21599999999995" y="1634.8198142154852" width="55.303999999999995" height="52.0" class=""/>
<text x="296.86799999999994" y="1660.8198142154852" class="tap">F11</text>
<rect rx="6.0" ry="6.0" x="522.784" y="1634.8198142154852" width="55.303999999999995" height="52.0" class=""/>
<rect rx="6.0" ry="6.0" x="582.088" y="1626.9798142154852" width="55.303999999999995" height="52.0" class=""/>
<text x="609.74" y="1652.9798142154852" class="tap">⇧</text>
<rect rx="6.0" ry="6.0" x="641.3919999999999" y="1605.1958142154851" width="55.303999999999995" height="52.0" class=""/>
<text x="669.044" y="1631.1958142154851" class="tap">⌘</text>
<rect rx="6.0" ry="6.0" x="700.696" y="1624.9638142154852" width="55.303999999999995" height="52.0" class=""/>
<text x="728.3480000000001" y="1650.9638142154852" class="tap">⎇</text>
<rect rx="6.0" ry="6.0" x="760.0" y="1664.4998142154852" width="55.303999999999995" height="52.0" class=""/>
<text x="787.652" y="1690.4998142154852" class="tap">⌃</text>
<rect rx="6.0" ry="6.0" x="32.0" y="1720.4998142154852" width="55.303999999999995" height="52.0" class=""/>
<rect rx="6.0" ry="6.0" x="91.30399999999999" y="1680.9638142154852" width="55.303999999999995" height="52.0" class=""/>
<text x="118.95599999999999" y="1706.9638142154852" class="tap">F1</text>
<rect rx="6.0" ry="6.0" x="150.608" y="1661.1958142154851" width="55.303999999999995" height="52.0" class=""/>
<text x="178.26" y="1687.1958142154851" class="tap">F2</text>
<rect rx="6.0" ry="6.0" x="209.91200000000003" y="1683.035814215485" width="55.303999999999995" height="52.0" class=""/>
<text x="237.56400000000002" y="1709.035814215485" class="tap">F3</text>
<rect rx="6.0" ry="6.0" x="269.21599999999995" y="1690.8198142154852" width="55.303999999999995" height="52.0" class=""/>
<text x="296.86799999999994" y="1716.8198142154852" class="tap">F10</text>
<rect rx="6.0" ry="6.0" x="522.784" y="1690.8198142154852" width="55.303999999999995" height="52.0" class=""/>
<rect rx="6.0" ry="6.0" x="582.088" y="1683.035814215485" width="55.303999999999995" height="52.0" class=""/>
<rect rx="6.0" ry="6.0" x="641.3919999999999" y="1661.1958142154851" width="55.303999999999995" height="52.0" class=""/>
<text x="669.044" y="1687.1958142154851" class="tap">MEH</text>
<rect rx="6.0" ry="6.0" x="700.696" y="1680.9638142154852" width="55.303999999999995" height="52.0" class=""/>
<rect rx="6.0" ry="6.0" x="760.0" y="1720.4998142154852" width="55.303999999999995" height="52.0" class=""/>
<rect rx="6.0" ry="6.0" x="190.42400000000004" y="1748.7798142154852" width="55.303999999999995" height="52.0" class=""/>
<text x="218.07600000000002" y="1774.7798142154852" class="tap">
<tspan x="218.07600000000002" dy="-1.2em">Cancel</tspan><tspan x="218.07600000000002" dy="1.2em">Func</tspan></text>
<text x="218.07600000000002" y="1798.7798142154852" class="hold">⌘</text>
<g transform="rotate(15.0, 284.15695407686394, 1783.299061148748)">
<rect rx="6.0" ry="6.0" x="256.50495407686395" y="1757.299061148748" width="55.303999999999995" height="52.0" class="held"/>
</g>
<g transform="rotate(30.0, 350.59357474425406, 1794.687814215485)">
<rect rx="6.0" ry="6.0" x="324.59357474425406" y="1752.2238142154852" width="52.0" height="84.928" class=""/>
</g>
<g transform="rotate(-30.0, 493.40642525574594, 1794.687814215485)">
<rect rx="6.0" ry="6.0" x="467.40642525574594" y="1752.2238142154852" width="52.0" height="84.928" class=""/>
</g>
<g transform="rotate(-15.0, 563.0344648531952, 1784.1541992737668)">
<rect rx="6.0" ry="6.0" x="535.3824648531952" y="1758.1541992737668" width="55.303999999999995" height="52.0" class=""/>
</g>
<rect rx="6.0" ry="6.0" x="601.5759999999999" y="1748.7798142154852" width="55.303999999999995" height="52.0" class="held"/>
</g>
<g class="layer-Adjust">
<text x="30.0" y="1875.1947677693565" class="label">Adjust:</text>
<rect rx="6.0" ry="6.0" x="32.0" y="1964.4987677693566" width="55.303999999999995" height="52.0" class=""/>
<text x="59.652" y="1990.4987677693566" class="tap">⌘Q</text>
<rect rx="6.0" ry="6.0" x="91.30399999999999" y="1924.9627677693566" width="55.303999999999995" height="52.0" class=""/>
<text x="118.95599999999999" y="1950.9627677693566" class="tap">⌘W</text>
<rect rx="6.0" ry="6.0" x="150.608" y="1905.1947677693565" width="55.303999999999995" height="52.0" class=""/>
<rect rx="6.0" ry="6.0" x="209.91200000000003" y="1926.9787677693566" width="55.303999999999995" height="52.0" class=""/>
<rect rx="6.0" ry="6.0" x="269.21599999999995" y="1934.8187677693566" width="55.303999999999995" height="52.0" class=""/>
<text x="296.86799999999994" y="1960.8187677693566" class="tap">⌘`</text>
<rect rx="6.0" ry="6.0" x="522.784" y="1934.8187677693566" width="55.303999999999995" height="52.0" class=""/>
<text x="550.436" y="1960.8187677693566" class="tap">
<tspan x="550.436" dy="-0.6em">BT</tspan><tspan x="550.436" dy="1.2em">CLR</tspan></text>
<rect rx="6.0" ry="6.0" x="582.088" y="1926.9787677693566" width="55.303999999999995" height="52.0" class=""/>
<text x="609.74" y="1952.9787677693566" class="tap">
<tspan x="609.74" dy="-0.6em">BT</tspan><tspan x="609.74" dy="1.2em">PRV</tspan></text>
<rect rx="6.0" ry="6.0" x="641.3919999999999" y="1905.1947677693565" width="55.303999999999995" height="52.0" class=""/>
<text x="669.044" y="1931.1947677693565" class="tap">
<tspan x="669.044" dy="-0.6em">BT</tspan><tspan x="669.044" dy="1.2em">NXT</tspan></text>
<rect rx="6.0" ry="6.0" x="700.696" y="1924.9627677693566" width="55.303999999999995" height="52.0" class=""/>
<text x="728.3480000000001" y="1950.9627677693566" class="tap">
<tspan x="728.3480000000001" dy="-1.7999999999999998em">EXT</tspan><tspan x="728.3480000000001" dy="1.2em">POWER</tspan><tspan x="728.3480000000001" dy="1.2em">TOGGLE</tspan><tspan x="728.3480000000001" dy="1.2em">CMD</tspan></text>
<rect rx="6.0" ry="6.0" x="760.0" y="1964.4987677693566" width="55.303999999999995" height="52.0" class=""/>
<text x="787.652" y="1990.4987677693566" class="tap">Base</text>
<rect rx="6.0" ry="6.0" x="32.0" y="2020.4987677693566" width="55.303999999999995" height="52.0" class=""/>
<rect rx="6.0" ry="6.0" x="91.30399999999999" y="1980.9627677693566" width="55.303999999999995" height="52.0" class=""/>
<rect rx="6.0" ry="6.0" x="150.608" y="1961.1947677693565" width="55.303999999999995" height="52.0" class=""/>
<rect rx="6.0" ry="6.0" x="209.91200000000003" y="1982.9787677693566" width="55.303999999999995" height="52.0" class=""/>
<rect rx="6.0" ry="6.0" x="269.21599999999995" y="1990.8187677693566" width="55.303999999999995" height="52.0" class=""/>
<text x="296.86799999999994" y="2016.8187677693566" class="tap">⌘↹</text>
<rect rx="6.0" ry="6.0" x="522.784" y="1990.8187677693566" width="55.303999999999995" height="52.0" class=""/>
<text x="550.436" y="2016.8187677693566" class="tap">
<tspan x="550.436" dy="-0.6em">VOL</tspan><tspan x="550.436" dy="1.2em">MUTE</tspan></text>
<rect rx="6.0" ry="6.0" x="582.088" y="1982.9787677693566" width="55.303999999999995" height="52.0" class=""/>
<text x="609.74" y="2008.9787677693566" class="tap">⏮</text>
<rect rx="6.0" ry="6.0" x="641.3919999999999" y="1961.1947677693565" width="55.303999999999995" height="52.0" class=""/>
<text x="669.044" y="1987.1947677693565" class="tap">
<tspan x="669.044" dy="-0.6em">VOL</tspan><tspan x="669.044" dy="1.2em">DOWN</tspan></text>
<rect rx="6.0" ry="6.0" x="700.696" y="1980.9627677693566" width="55.303999999999995" height="52.0" class=""/>
<text x="728.3480000000001" y="2006.9627677693566" class="tap">
<tspan x="728.3480000000001" dy="-0.6em">VOL</tspan><tspan x="728.3480000000001" dy="1.2em">UP</tspan></text>
<rect rx="6.0" ry="6.0" x="760.0" y="2020.4987677693566" width="55.303999999999995" height="52.0" class=""/>
<text x="787.652" y="2046.4987677693566" class="tap">⏭</text>
<rect rx="6.0" ry="6.0" x="32.0" y="2076.4987677693566" width="55.303999999999995" height="52.0" class=""/>
<text x="59.652" y="2102.4987677693566" class="tap">⌘Z</text>
<rect rx="6.0" ry="6.0" x="91.30399999999999" y="2036.9627677693566" width="55.303999999999995" height="52.0" class=""/>
<text x="118.95599999999999" y="2062.9627677693566" class="tap">⌘X</text>
<rect rx="6.0" ry="6.0" x="150.608" y="2017.1947677693565" width="55.303999999999995" height="52.0" class=""/>
<text x="178.26" y="2043.1947677693565" class="tap">⌘C</text>
<rect rx="6.0" ry="6.0" x="209.91200000000003" y="2039.0347677693567" width="55.303999999999995" height="52.0" class=""/>
<rect rx="6.0" ry="6.0" x="269.21599999999995" y="2046.8187677693563" width="55.303999999999995" height="52.0" class=""/>
<text x="296.86799999999994" y="2072.8187677693563" class="tap">⌘V</text>
<rect rx="6.0" ry="6.0" x="522.784" y="2046.8187677693563" width="55.303999999999995" height="52.0" class=""/>
<rect rx="6.0" ry="6.0" x="582.088" y="2039.0347677693567" width="55.303999999999995" height="52.0" class=""/>
<text x="609.74" y="2065.0347677693567" class="tap">⏯</text>
<rect rx="6.0" ry="6.0" x="641.3919999999999" y="2017.1947677693565" width="55.303999999999995" height="52.0" class=""/>
<text x="669.044" y="2043.1947677693565" class="tap">☀↓</text>
<rect rx="6.0" ry="6.0" x="700.696" y="2036.9627677693566" width="55.303999999999995" height="52.0" class=""/>
<text x="728.3480000000001" y="2062.9627677693566" class="tap">☀↑</text>
<rect rx="6.0" ry="6.0" x="760.0" y="2076.4987677693566" width="55.303999999999995" height="52.0" class=""/>
<rect rx="6.0" ry="6.0" x="190.42400000000004" y="2104.7787677693564" width="55.303999999999995" height="52.0" class=""/>
<text x="218.07600000000002" y="2130.7787677693564" class="tap">
<tspan x="218.07600000000002" dy="-1.2em">Cancel</tspan><tspan x="218.07600000000002" dy="1.2em">Adjust</tspan></text>
<text x="218.07600000000002" y="2154.7787677693564" class="hold">⌘</text>
<g transform="rotate(15.0, 284.15695407686394, 2139.298014702619)">
<rect rx="6.0" ry="6.0" x="256.50495407686395" y="2113.298014702619" width="55.303999999999995" height="52.0" class=""/>
</g>
<g transform="rotate(30.0, 350.59357474425406, 2150.6867677693567)">
<rect rx="6.0" ry="6.0" x="324.59357474425406" y="2108.222767769357" width="52.0" height="84.928" class="held"/>
</g>
<g transform="rotate(-30.0, 493.40642525574594, 2150.6867677693567)">
<rect rx="6.0" ry="6.0" x="467.40642525574594" y="2108.222767769357" width="52.0" height="84.928" class=""/>
</g>
<g transform="rotate(-15.0, 563.0344648531952, 2140.153152827638)">
<rect rx="6.0" ry="6.0" x="535.3824648531952" y="2114.153152827638" width="55.303999999999995" height="52.0" class=""/>
</g>
<rect rx="6.0" ry="6.0" x="601.5759999999999" y="2104.7787677693564" width="55.303999999999995" height="52.0" class=""/>
</g>
</svg>
