<svg width="900.0" height="2038.4000000000003" viewBox="0 0 900.0 2038.4000000000003" xmlns="http://www.w3.org/2000/svg">
<style>/* font and background color specifications */
svg {
    font-family: SFMono-Regular,Consolas,Liberation Mono,Menlo,monospace;
    font-size: 14px;
    font-kerning: normal;
    text-rendering: optimizeLegibility;
    fill: #24292e;
}

/* default key styling */
rect {
    fill: #f6f8fa;
    stroke: #c9cccf;
    stroke-width: 1;
}

/* color accent for combo boxes */
rect.combo {
    fill: #cdf;
}

/* color accent for held keys */
rect.held, rect.combo.held {
    fill: #fdd;
}

/* color accent for ghost (optional) keys */
rect.ghost, rect.combo.ghost {
    fill: #ddd;
}

text {
    text-anchor: middle;
    dominant-baseline: middle;
}

/* styling for layer labels */
text.label {
    font-weight: bold;
    text-anchor: start;
    stroke: white;
    stroke-width: 2;
    paint-order: stroke;
}

/* styling for combo tap, and key hold/shifted label text */
text.combo, text.hold, text.shifted {
    font-size: 11px;
}

text.hold {
    text-anchor: middle;
    dominant-baseline: auto;
}

text.shifted {
    text-anchor: middle;
    dominant-baseline: hanging;
}

/* styling for hold/shifted label text in combo box */
text.combo.hold, text.combo.shifted {
    font-size: 8px;
}

/* styling for combo dendrons */
path {
    stroke-width: 1;
    stroke: gray;
    fill: none;
}
</style>
<g class="layer-Base">
<text x="30.0" y="28.0" class="label">Base:</text>
<rect rx="6.0" ry="6.0" x="32.0" y="74.80000000000001" width="52.0" height="52.0" class=""/>
<text x="58.0" y="100.80000000000001" class="tap">ESC</text>
<text x="58.0" y="76.80000000000001" class="shifted">` ~</text>
<rect rx="6.0" ry="6.0" x="88.0" y="74.80000000000001" width="52.0" height="52.0" class=""/>
<text x="114.0" y="100.80000000000001" class="tap">Q</text>
<rect rx="6.0" ry="6.0" x="144.0" y="63.599999999999994" width="52.0" height="52.0" class=""/>
<text x="170.0" y="89.6" class="tap">W</text>
<rect rx="6.0" ry="6.0" x="200.0" y="58.0" width="52.0" height="52.0" class=""/>
<text x="226.0" y="84.0" class="tap">F</text>
<text x="226.0" y="108.0" class="hold">HYPER</text>
<rect rx="6.0" ry="6.0" x="256.0" y="63.599999999999994" width="52.0" height="52.0" class=""/>
<text x="282.0" y="89.6" class="tap">P</text>
<rect rx="6.0" ry="6.0" x="312.0" y="69.19999999999999" width="52.0" height="52.0" class=""/>
<text x="338.0" y="95.19999999999999" class="tap">B</text>
<rect rx="6.0" ry="6.0" x="536.0" y="69.19999999999999" width="52.0" height="52.0" class=""/>
<text x="562.0" y="95.19999999999999" class="tap">J</text>
<rect rx="6.0" ry="6.0" x="592.0" y="63.599999999999994" width="52.0" height="52.0" class=""/>
<text x="618.0" y="89.6" class="tap">L</text>
<rect rx="6.0" ry="6.0" x="648.0" y="58.0" width="52.0" height="52.0" class=""/>
<text x="674.0" y="84.0" class="tap">U</text>
<text x="674.0" y="108.0" class="hold">HYPER</text>
<rect rx="6.0" ry="6.0" x="704.0" y="63.599999999999994" width="52.0" height="52.0" class=""/>
<text x="730.0" y="89.6" class="tap">Y</text>
<rect rx="6.0" ry="6.0" x="760.0" y="74.80000000000001" width="52.0" height="52.0" class=""/>
<text x="786.0" y="100.80000000000001" class="tap">&#x27;</text>
<text x="786.0" y="76.80000000000001" class="shifted">&quot;</text>
<rect rx="6.0" ry="6.0" x="816.0" y="74.80000000000001" width="52.0" height="52.0" class=""/>
<text x="842.0" y="100.80000000000001" class="tap">⌫</text>
<text x="842.0" y="76.80000000000001" class="shifted">⌦</text>
<rect rx="6.0" ry="6.0" x="32.0" y="130.8" width="52.0" height="52.0" class=""/>
<text x="58.0" y="156.8" class="tap">↹</text>
<rect rx="6.0" ry="6.0" x="88.0" y="130.8" width="52.0" height="52.0" class=""/>
<text x="114.0" y="156.8" class="tap">A</text>
<text x="114.0" y="180.8" class="hold">⎈</text>
<rect rx="6.0" ry="6.0" x="144.0" y="119.60000000000002" width="52.0" height="52.0" class=""/>
<text x="170.0" y="145.60000000000002" class="tap">R</text>
<text x="170.0" y="169.60000000000002" class="hold">⎇</text>
<rect rx="6.0" ry="6.0" x="200.0" y="114.0" width="52.0" height="52.0" class=""/>
<text x="226.0" y="140.0" class="tap">S</text>
<text x="226.0" y="164.0" class="hold">⌘</text>
<rect rx="6.0" ry="6.0" x="256.0" y="119.60000000000002" width="52.0" height="52.0" class=""/>
<text x="282.0" y="145.60000000000002" class="tap">T</text>
<text x="282.0" y="169.60000000000002" class="hold">⇧</text>
<rect rx="6.0" ry="6.0" x="312.0" y="125.19999999999999" width="52.0" height="52.0" class=""/>
<text x="338.0" y="151.2" class="tap">G</text>
<rect rx="6.0" ry="6.0" x="536.0" y="125.19999999999999" width="52.0" height="52.0" class=""/>
<text x="562.0" y="151.2" class="tap">M</text>
<rect rx="6.0" ry="6.0" x="592.0" y="119.60000000000002" width="52.0" height="52.0" class=""/>
<text x="618.0" y="145.60000000000002" class="tap">N</text>
<text x="618.0" y="169.60000000000002" class="hold">⇧</text>
<rect rx="6.0" ry="6.0" x="648.0" y="114.0" width="52.0" height="52.0" class=""/>
<text x="674.0" y="140.0" class="tap">E</text>
<text x="674.0" y="164.0" class="hold">⌘</text>
<rect rx="6.0" ry="6.0" x="704.0" y="119.60000000000002" width="52.0" height="52.0" class=""/>
<text x="730.0" y="145.60000000000002" class="tap">I</text>
<text x="730.0" y="169.60000000000002" class="hold">⎇</text>
<rect rx="6.0" ry="6.0" x="760.0" y="130.8" width="52.0" height="52.0" class=""/>
<text x="786.0" y="156.8" class="tap">O</text>
<text x="786.0" y="180.8" class="hold">⎈</text>
<rect rx="6.0" ry="6.0" x="816.0" y="130.8" width="52.0" height="52.0" class=""/>
<text x="842.0" y="156.8" class="tap">&#x27;</text>
<text x="842.0" y="132.8" class="shifted">&quot;</text>
<rect rx="6.0" ry="6.0" x="32.0" y="186.79999999999998" width="52.0" height="52.0" class=""/>
<text x="58.0" y="212.79999999999998" class="tap">⇧</text>
<rect rx="6.0" ry="6.0" x="88.0" y="186.79999999999998" width="52.0" height="52.0" class=""/>
<text x="114.0" y="212.79999999999998" class="tap">Z</text>
<rect rx="6.0" ry="6.0" x="144.0" y="175.6" width="52.0" height="52.0" class=""/>
<text x="170.0" y="201.6" class="tap">X</text>
<rect rx="6.0" ry="6.0" x="200.0" y="170.0" width="52.0" height="52.0" class=""/>
<text x="226.0" y="196.0" class="tap">C</text>
<text x="226.0" y="220.0" class="hold">MEH</text>
<rect rx="6.0" ry="6.0" x="256.0" y="175.6" width="52.0" height="52.0" class=""/>
<text x="282.0" y="201.6" class="tap">D</text>
<rect rx="6.0" ry="6.0" x="312.0" y="181.20000000000002" width="52.0" height="52.0" class=""/>
<text x="338.0" y="207.20000000000002" class="tap">V</text>
<rect rx="6.0" ry="6.0" x="536.0" y="181.20000000000002" width="52.0" height="52.0" class=""/>
<text x="562.0" y="207.20000000000002" class="tap">K</text>
<rect rx="6.0" ry="6.0" x="592.0" y="175.6" width="52.0" height="52.0" class=""/>
<text x="618.0" y="201.6" class="tap">H</text>
<rect rx="6.0" ry="6.0" x="648.0" y="170.0" width="52.0" height="52.0" class=""/>
<text x="674.0" y="196.0" class="tap">,</text>
<text x="674.0" y="220.0" class="hold">MEH</text>
<text x="674.0" y="172.0" class="shifted">;</text>
<rect rx="6.0" ry="6.0" x="704.0" y="175.6" width="52.0" height="52.0" class=""/>
<text x="730.0" y="201.6" class="tap">.</text>
<text x="730.0" y="177.6" class="shifted">:</text>
<rect rx="6.0" ry="6.0" x="760.0" y="186.79999999999998" width="52.0" height="52.0" class=""/>
<text x="786.0" y="212.79999999999998" class="tap">/</text>
<text x="786.0" y="188.79999999999998" class="shifted">?</text>
<rect rx="6.0" ry="6.0" x="816.0" y="186.79999999999998" width="52.0" height="52.0" class=""/>
<text x="842.0" y="212.79999999999998" class="tap">⇧</text>
<rect rx="6.0" ry="6.0" x="256.0" y="265.20000000000005" width="52.0" height="52.0" class=""/>
<text x="282.0" y="291.20000000000005" class="tap">ESC</text>
<text x="282.0" y="315.20000000000005" class="hold">⌘</text>
<text x="282.0" y="267.20000000000005" class="shifted">~ `</text>
<rect rx="6.0" ry="6.0" x="312.0" y="265.20000000000005" width="52.0" height="52.0" class=""/>
<text x="338.0" y="291.20000000000005" class="tap">⎵</text>
<text x="338.0" y="315.20000000000005" class="hold">SYM</text>
<text x="338.0" y="267.20000000000005" class="shifted">_ -</text>
<rect rx="6.0" ry="6.0" x="368.0" y="237.20000000000005" width="52.0" height="80.0" class=""/>
<text x="394.0" y="277.20000000000005" class="tap">↹</text>
<text x="394.0" y="315.20000000000005" class="hold">Adjust</text>
<rect rx="6.0" ry="6.0" x="480.0" y="237.20000000000005" width="52.0" height="80.0" class=""/>
<text x="506.0" y="277.20000000000005" class="tap">⌫</text>
<text x="506.0" y="239.20000000000005" class="shifted">⌦</text>
<rect rx="6.0" ry="6.0" x="536.0" y="265.20000000000005" width="52.0" height="52.0" class=""/>
<text x="562.0" y="291.20000000000005" class="tap">RETURN</text>
<text x="562.0" y="315.20000000000005" class="hold">Nav</text>
<rect rx="6.0" ry="6.0" x="592.0" y="265.20000000000005" width="52.0" height="52.0" class=""/>
<text x="618.0" y="291.20000000000005" class="tap">0</text>
<text x="618.0" y="315.20000000000005" class="hold">Num</text>
<rect rx="6.0" ry="6.0" x="240.0" y="129.8" width="28.0" height="26.0" class="combo"/>
<text x="254.0" y="142.8" class="combo">(</text>
<rect rx="6.0" ry="6.0" x="632.0" y="129.8" width="28.0" height="26.0" class="combo"/>
<text x="646.0" y="142.8" class="combo">)</text>
<rect rx="6.0" ry="6.0" x="240.0" y="185.8" width="28.0" height="26.0" class="combo"/>
<text x="254.0" y="198.8" class="combo">[</text>
<text x="254.0" y="187.8" class="combo shifted">{</text>
<rect rx="6.0" ry="6.0" x="632.0" y="185.8" width="28.0" height="26.0" class="combo"/>
<text x="646.0" y="198.8" class="combo">]</text>
<text x="646.0" y="187.8" class="combo shifted">}</text>
<rect rx="6.0" ry="6.0" x="240.0" y="73.8" width="28.0" height="26.0" class="combo"/>
<text x="254.0" y="86.8" class="combo">{</text>
<rect rx="6.0" ry="6.0" x="632.0" y="73.8" width="28.0" height="26.0" class="combo"/>
<text x="646.0" y="86.8" class="combo">}</text>
<path d="M450.0,145.60000000000002 l-149.33333333333331,0.0"/>
<path d="M450.0,145.60000000000002 l149.33333333333331,0.0"/>
<rect rx="6.0" ry="6.0" x="436.0" y="132.60000000000002" width="28.0" height="26.0" class="combo"/>
<text x="450.0" y="145.60000000000002" class="combo">
<tspan x="450.0" dy="-0.6em">Caps</tspan><tspan x="450.0" dy="1.2em">Word</tspan></text>
<path d="M338.0,337.00000000000006 h-50.0 a6.0,6.0 0 0 1 -6.0,-6.0 v-21.133333333333344"/>
<path d="M338.0,337.00000000000006 h-6.0 a6.0,6.0 0 0 1 6.0,-6.0 v-28.600000000000012"/>
<path d="M338.0,337.00000000000006 h50.0 a6.0,6.0 0 0 0 6.0,-6.0 v-25.80000000000001"/>
<rect rx="6.0" ry="6.0" x="324.0" y="324.00000000000006" width="28.0" height="26.0" class="combo"/>
<text x="338.0" y="337.00000000000006" class="combo">RET</text>
<rect rx="6.0" ry="6.0" x="352.0" y="271.20000000000005" width="28.0" height="26.0" class="combo"/>
<text x="366.0" y="284.20000000000005" class="combo">BSPC</text>
<path d="M226.0,180.2 h-50.0 a6.0,6.0 0 0 1 -6.0,-6.0 v-9.933333333333298"/>
<path d="M226.0,180.2 h-6.0 a6.0,6.0 0 0 1 6.0,-6.0 v-22.99999999999999"/>
<path d="M226.0,180.2 h50.0 a6.0,6.0 0 0 0 6.0,-6.0 v-9.933333333333298"/>
<rect rx="6.0" ry="6.0" x="212.0" y="167.2" width="28.0" height="26.0" class="combo"/>
<text x="226.0" y="180.2" class="combo">NAV</text>
<path d="M226.0,241.79999999999998 h-50.0 a6.0,6.0 0 0 1 -6.0,-6.0 v-15.53333333333332"/>
<path d="M226.0,241.79999999999998 h-6.0 a6.0,6.0 0 0 1 6.0,-6.0 v-28.599999999999984"/>
<path d="M226.0,241.79999999999998 h50.0 a6.0,6.0 0 0 0 6.0,-6.0 v-15.53333333333332"/>
<rect rx="6.0" ry="6.0" x="212.0" y="228.79999999999998" width="28.0" height="26.0" class="combo"/>
<text x="226.0" y="241.79999999999998" class="combo">NUM</text>
</g>
<g class="layer-Nav">
<text x="30.0" y="364.00000000000006" class="label">Nav:</text>
<rect rx="6.0" ry="6.0" x="32.0" y="410.80000000000007" width="52.0" height="52.0" class=""/>
<rect rx="6.0" ry="6.0" x="88.0" y="410.80000000000007" width="52.0" height="52.0" class=""/>
<rect rx="6.0" ry="6.0" x="144.0" y="399.6000000000001" width="52.0" height="52.0" class=""/>
<text x="170.0" y="425.6000000000001" class="tap">⇤</text>
<rect rx="6.0" ry="6.0" x="200.0" y="394.00000000000006" width="52.0" height="52.0" class=""/>
<rect rx="6.0" ry="6.0" x="256.0" y="399.6000000000001" width="52.0" height="52.0" class=""/>
<text x="282.0" y="425.6000000000001" class="tap">⇥</text>
<rect rx="6.0" ry="6.0" x="312.0" y="405.20000000000005" width="52.0" height="52.0" class=""/>
<text x="338.0" y="431.20000000000005" class="tap">
<tspan x="338.0" dy="-0.6em">PG</tspan><tspan x="338.0" dy="1.2em">UP</tspan></text>
<rect rx="6.0" ry="6.0" x="536.0" y="405.20000000000005" width="52.0" height="52.0" class=""/>
<rect rx="6.0" ry="6.0" x="592.0" y="399.6000000000001" width="52.0" height="52.0" class=""/>
<rect rx="6.0" ry="6.0" x="648.0" y="394.00000000000006" width="52.0" height="52.0" class=""/>
<text x="674.0" y="420.00000000000006" class="tap">HYPER</text>
<rect rx="6.0" ry="6.0" x="704.0" y="399.6000000000001" width="52.0" height="52.0" class=""/>
<rect rx="6.0" ry="6.0" x="760.0" y="410.80000000000007" width="52.0" height="52.0" class=""/>
<rect rx="6.0" ry="6.0" x="816.0" y="410.80000000000007" width="52.0" height="52.0" class=""/>
<rect rx="6.0" ry="6.0" x="32.0" y="466.80000000000007" width="52.0" height="52.0" class=""/>
<rect rx="6.0" ry="6.0" x="88.0" y="466.80000000000007" width="52.0" height="52.0" class=""/>
<rect rx="6.0" ry="6.0" x="144.0" y="455.6000000000001" width="52.0" height="52.0" class=""/>
<text x="170.0" y="481.6000000000001" class="tap">←</text>
<rect rx="6.0" ry="6.0" x="200.0" y="450.00000000000006" width="52.0" height="52.0" class=""/>
<text x="226.0" y="476.00000000000006" class="tap">↑</text>
<rect rx="6.0" ry="6.0" x="256.0" y="455.6000000000001" width="52.0" height="52.0" class=""/>
<text x="282.0" y="481.6000000000001" class="tap">→</text>
<rect rx="6.0" ry="6.0" x="312.0" y="461.20000000000005" width="52.0" height="52.0" class=""/>
<text x="338.0" y="487.20000000000005" class="tap">
<tspan x="338.0" dy="-0.6em">PG</tspan><tspan x="338.0" dy="1.2em">DN</tspan></text>
<rect rx="6.0" ry="6.0" x="536.0" y="461.20000000000005" width="52.0" height="52.0" class=""/>
<rect rx="6.0" ry="6.0" x="592.0" y="455.6000000000001" width="52.0" height="52.0" class=""/>
<text x="618.0" y="481.6000000000001" class="tap">⇧</text>
<rect rx="6.0" ry="6.0" x="648.0" y="450.00000000000006" width="52.0" height="52.0" class=""/>
<text x="674.0" y="476.00000000000006" class="tap">⌘</text>
<rect rx="6.0" ry="6.0" x="704.0" y="455.6000000000001" width="52.0" height="52.0" class=""/>
<text x="730.0" y="481.6000000000001" class="tap">⎇</text>
<rect rx="6.0" ry="6.0" x="760.0" y="466.80000000000007" width="52.0" height="52.0" class=""/>
<text x="786.0" y="492.80000000000007" class="tap">⎈</text>
<rect rx="6.0" ry="6.0" x="816.0" y="466.80000000000007" width="52.0" height="52.0" class=""/>
<rect rx="6.0" ry="6.0" x="32.0" y="522.8000000000001" width="52.0" height="52.0" class=""/>
<rect rx="6.0" ry="6.0" x="88.0" y="522.8000000000001" width="52.0" height="52.0" class=""/>
<rect rx="6.0" ry="6.0" x="144.0" y="511.6" width="52.0" height="52.0" class=""/>
<text x="170.0" y="537.6" class="tap">↞</text>
<rect rx="6.0" ry="6.0" x="200.0" y="506.0" width="52.0" height="52.0" class=""/>
<text x="226.0" y="532.0" class="tap">↓</text>
<rect rx="6.0" ry="6.0" x="256.0" y="511.6" width="52.0" height="52.0" class=""/>
<text x="282.0" y="537.6" class="tap">↠</text>
<rect rx="6.0" ry="6.0" x="312.0" y="517.2" width="52.0" height="52.0" class=""/>
<rect rx="6.0" ry="6.0" x="536.0" y="517.2" width="52.0" height="52.0" class=""/>
<rect rx="6.0" ry="6.0" x="592.0" y="511.6" width="52.0" height="52.0" class=""/>
<rect rx="6.0" ry="6.0" x="648.0" y="506.0" width="52.0" height="52.0" class=""/>
<text x="674.0" y="532.0" class="tap">MEH</text>
<rect rx="6.0" ry="6.0" x="704.0" y="511.6" width="52.0" height="52.0" class=""/>
<rect rx="6.0" ry="6.0" x="760.0" y="522.8000000000001" width="52.0" height="52.0" class=""/>
<rect rx="6.0" ry="6.0" x="816.0" y="522.8000000000001" width="52.0" height="52.0" class=""/>
<rect rx="6.0" ry="6.0" x="256.0" y="601.2" width="52.0" height="52.0" class=""/>
<text x="282.0" y="627.2" class="tap">2</text>
<text x="282.0" y="651.2" class="hold">⌘</text>
<rect rx="6.0" ry="6.0" x="312.0" y="601.2" width="52.0" height="52.0" class=""/>
<rect rx="6.0" ry="6.0" x="368.0" y="573.2" width="52.0" height="80.0" class=""/>
<rect rx="6.0" ry="6.0" x="480.0" y="573.2" width="52.0" height="80.0" class=""/>
<rect rx="6.0" ry="6.0" x="536.0" y="601.2" width="52.0" height="52.0" class="held"/>
<rect rx="6.0" ry="6.0" x="592.0" y="601.2" width="52.0" height="52.0" class=""/>
<path d="M338.0,673.0000000000001 h-50.0 a6.0,6.0 0 0 1 -6.0,-6.0 v-21.1333333333334"/>
<path d="M338.0,673.0000000000001 h-6.0 a6.0,6.0 0 0 1 6.0,-6.0 v-28.60000000000007"/>
<path d="M338.0,673.0000000000001 h50.0 a6.0,6.0 0 0 0 6.0,-6.0 v-25.800000000000068"/>
<rect rx="6.0" ry="6.0" x="324.0" y="660.0000000000001" width="28.0" height="26.0" class="combo"/>
<text x="338.0" y="673.0000000000001" class="combo">RET</text>
<rect rx="6.0" ry="6.0" x="352.0" y="607.2" width="28.0" height="26.0" class="combo"/>
<text x="366.0" y="620.2" class="combo">BSPC</text>
<path d="M226.0,577.8000000000001 h-50.0 a6.0,6.0 0 0 1 -6.0,-6.0 v-15.533333333333378"/>
<path d="M226.0,577.8000000000001 h-6.0 a6.0,6.0 0 0 1 6.0,-6.0 v-28.60000000000007"/>
<path d="M226.0,577.8000000000001 h50.0 a6.0,6.0 0 0 0 6.0,-6.0 v-15.533333333333378"/>
<rect rx="6.0" ry="6.0" x="212.0" y="564.8000000000001" width="28.0" height="26.0" class="combo"/>
<text x="226.0" y="577.8000000000001" class="combo">NUM</text>
</g>
<g class="layer-Sym">
<text x="30.0" y="700.0000000000001" class="label">Sym:</text>
<rect rx="6.0" ry="6.0" x="32.0" y="746.8000000000001" width="52.0" height="52.0" class=""/>
<rect rx="6.0" ry="6.0" x="88.0" y="746.8000000000001" width="52.0" height="52.0" class=""/>
<text x="114.0" y="772.8000000000001" class="tap">⌘Q</text>
<rect rx="6.0" ry="6.0" x="144.0" y="735.6000000000001" width="52.0" height="52.0" class=""/>
<text x="170.0" y="761.6000000000001" class="tap">⌘W</text>
<rect rx="6.0" ry="6.0" x="200.0" y="730.0000000000001" width="52.0" height="52.0" class=""/>
<rect rx="6.0" ry="6.0" x="256.0" y="735.6000000000001" width="52.0" height="52.0" class=""/>
<rect rx="6.0" ry="6.0" x="312.0" y="741.2000000000002" width="52.0" height="52.0" class=""/>
<text x="338.0" y="767.2000000000002" class="tap">⌘`</text>
<rect rx="6.0" ry="6.0" x="536.0" y="741.2000000000002" width="52.0" height="52.0" class=""/>
<text x="562.0" y="767.2000000000002" class="tap">~</text>
<rect rx="6.0" ry="6.0" x="592.0" y="735.6000000000001" width="52.0" height="52.0" class=""/>
<text x="618.0" y="761.6000000000001" class="tap">$</text>
<rect rx="6.0" ry="6.0" x="648.0" y="730.0000000000001" width="52.0" height="52.0" class=""/>
<text x="674.0" y="756.0000000000001" class="tap">&amp;</text>
<rect rx="6.0" ry="6.0" x="704.0" y="735.6000000000001" width="52.0" height="52.0" class=""/>
<text x="730.0" y="761.6000000000001" class="tap">|</text>
<rect rx="6.0" ry="6.0" x="760.0" y="746.8000000000001" width="52.0" height="52.0" class=""/>
<text x="786.0" y="772.8000000000001" class="tap">`</text>
<text x="786.0" y="748.8000000000001" class="shifted">^</text>
<rect rx="6.0" ry="6.0" x="816.0" y="746.8000000000001" width="52.0" height="52.0" class=""/>
<rect rx="6.0" ry="6.0" x="32.0" y="802.8000000000001" width="52.0" height="52.0" class=""/>
<rect rx="6.0" ry="6.0" x="88.0" y="802.8000000000001" width="52.0" height="52.0" class=""/>
<text x="114.0" y="828.8000000000001" class="tap">⎈</text>
<rect rx="6.0" ry="6.0" x="144.0" y="791.6000000000001" width="52.0" height="52.0" class=""/>
<text x="170.0" y="817.6000000000001" class="tap">⎇</text>
<rect rx="6.0" ry="6.0" x="200.0" y="786.0000000000001" width="52.0" height="52.0" class=""/>
<text x="226.0" y="812.0000000000001" class="tap">⌘</text>
<rect rx="6.0" ry="6.0" x="256.0" y="791.6000000000001" width="52.0" height="52.0" class=""/>
<text x="282.0" y="817.6000000000001" class="tap">⇧</text>
<rect rx="6.0" ry="6.0" x="312.0" y="797.2000000000002" width="52.0" height="52.0" class=""/>
<text x="338.0" y="823.2000000000002" class="tap">⌘↹</text>
<rect rx="6.0" ry="6.0" x="536.0" y="797.2000000000002" width="52.0" height="52.0" class=""/>
<text x="562.0" y="823.2000000000002" class="tap">@</text>
<rect rx="6.0" ry="6.0" x="592.0" y="791.6000000000001" width="52.0" height="52.0" class=""/>
<text x="618.0" y="817.6000000000001" class="tap">!</text>
<rect rx="6.0" ry="6.0" x="648.0" y="786.0000000000001" width="52.0" height="52.0" class=""/>
<text x="674.0" y="812.0000000000001" class="tap">=</text>
<text x="674.0" y="788.0000000000001" class="shifted">+</text>
<rect rx="6.0" ry="6.0" x="704.0" y="791.6000000000001" width="52.0" height="52.0" class=""/>
<text x="730.0" y="817.6000000000001" class="tap">#</text>
<rect rx="6.0" ry="6.0" x="760.0" y="802.8000000000001" width="52.0" height="52.0" class=""/>
<text x="786.0" y="828.8000000000001" class="tap">*</text>
<rect rx="6.0" ry="6.0" x="816.0" y="802.8000000000001" width="52.0" height="52.0" class=""/>
<text x="842.0" y="828.8000000000001" class="tap">`</text>
<text x="842.0" y="804.8000000000001" class="shifted">~</text>
<rect rx="6.0" ry="6.0" x="32.0" y="858.8000000000001" width="52.0" height="52.0" class=""/>
<rect rx="6.0" ry="6.0" x="88.0" y="858.8000000000001" width="52.0" height="52.0" class=""/>
<text x="114.0" y="884.8000000000001" class="tap">⌘Z</text>
<rect rx="6.0" ry="6.0" x="144.0" y="847.6000000000001" width="52.0" height="52.0" class=""/>
<text x="170.0" y="873.6000000000001" class="tap">⌘X</text>
<rect rx="6.0" ry="6.0" x="200.0" y="842.0000000000001" width="52.0" height="52.0" class=""/>
<text x="226.0" y="868.0000000000001" class="tap">⌘C</text>
<rect rx="6.0" ry="6.0" x="256.0" y="847.6000000000001" width="52.0" height="52.0" class=""/>
<rect rx="6.0" ry="6.0" x="312.0" y="853.2000000000002" width="52.0" height="52.0" class=""/>
<text x="338.0" y="879.2000000000002" class="tap">⌘V</text>
<rect rx="6.0" ry="6.0" x="536.0" y="853.2000000000002" width="52.0" height="52.0" class=""/>
<text x="562.0" y="879.2000000000002" class="tap">%</text>
<rect rx="6.0" ry="6.0" x="592.0" y="847.6000000000001" width="52.0" height="52.0" class=""/>
<text x="618.0" y="873.6000000000001" class="tap">+</text>
<text x="618.0" y="849.6000000000001" class="shifted">-</text>
<rect rx="6.0" ry="6.0" x="648.0" y="842.0000000000001" width="52.0" height="52.0" class=""/>
<text x="674.0" y="868.0000000000001" class="tap">&lt;</text>
<rect rx="6.0" ry="6.0" x="704.0" y="847.6000000000001" width="52.0" height="52.0" class=""/>
<text x="730.0" y="873.6000000000001" class="tap">&gt;</text>
<rect rx="6.0" ry="6.0" x="760.0" y="858.8000000000001" width="52.0" height="52.0" class=""/>
<text x="786.0" y="884.8000000000001" class="tap">\</text>
<text x="786.0" y="860.8000000000001" class="shifted">|</text>
<rect rx="6.0" ry="6.0" x="816.0" y="858.8000000000001" width="52.0" height="52.0" class=""/>
<rect rx="6.0" ry="6.0" x="256.0" y="937.2000000000002" width="52.0" height="52.0" class=""/>
<rect rx="6.0" ry="6.0" x="312.0" y="937.2000000000002" width="52.0" height="52.0" class="held"/>
<rect rx="6.0" ry="6.0" x="368.0" y="909.2000000000002" width="52.0" height="80.0" class=""/>
<rect rx="6.0" ry="6.0" x="480.0" y="909.2000000000002" width="52.0" height="80.0" class=""/>
<rect rx="6.0" ry="6.0" x="536.0" y="937.2000000000002" width="52.0" height="52.0" class=""/>
<rect rx="6.0" ry="6.0" x="592.0" y="937.2000000000002" width="52.0" height="52.0" class=""/>
<rect rx="6.0" ry="6.0" x="240.0" y="801.8000000000002" width="28.0" height="26.0" class="combo"/>
<text x="254.0" y="814.8000000000002" class="combo">(</text>
<rect rx="6.0" ry="6.0" x="632.0" y="801.8000000000002" width="28.0" height="26.0" class="combo"/>
<text x="646.0" y="814.8000000000002" class="combo">)</text>
<rect rx="6.0" ry="6.0" x="240.0" y="857.8000000000002" width="28.0" height="26.0" class="combo"/>
<text x="254.0" y="870.8000000000002" class="combo">[</text>
<text x="254.0" y="859.8000000000002" class="combo shifted">{</text>
<rect rx="6.0" ry="6.0" x="632.0" y="857.8000000000002" width="28.0" height="26.0" class="combo"/>
<text x="646.0" y="870.8000000000002" class="combo">]</text>
<text x="646.0" y="859.8000000000002" class="combo shifted">}</text>
<rect rx="6.0" ry="6.0" x="240.0" y="745.8000000000001" width="28.0" height="26.0" class="combo"/>
<text x="254.0" y="758.8000000000001" class="combo">{</text>
<rect rx="6.0" ry="6.0" x="632.0" y="745.8000000000001" width="28.0" height="26.0" class="combo"/>
<text x="646.0" y="758.8000000000001" class="combo">}</text>
<path d="M338.0,1009.0000000000002 h-50.0 a6.0,6.0 0 0 1 -6.0,-6.0 v-21.1333333333334"/>
<path d="M338.0,1009.0000000000002 h-6.0 a6.0,6.0 0 0 1 6.0,-6.0 v-28.60000000000007"/>
<path d="M338.0,1009.0000000000002 h50.0 a6.0,6.0 0 0 0 6.0,-6.0 v-25.800000000000068"/>
<rect rx="6.0" ry="6.0" x="324.0" y="996.0000000000002" width="28.0" height="26.0" class="combo"/>
<text x="338.0" y="1009.0000000000002" class="combo">RET</text>
<rect rx="6.0" ry="6.0" x="352.0" y="943.2000000000002" width="28.0" height="26.0" class="combo"/>
<text x="366.0" y="956.2000000000002" class="combo">BSPC</text>
</g>
<g class="layer-Num">
<text x="30.0" y="1036.0000000000002" class="label">Num:</text>
<rect rx="6.0" ry="6.0" x="32.0" y="1082.8000000000002" width="52.0" height="52.0" class=""/>
<rect rx="6.0" ry="6.0" x="88.0" y="1082.8000000000002" width="52.0" height="52.0" class=""/>
<rect rx="6.0" ry="6.0" x="144.0" y="1071.6000000000001" width="52.0" height="52.0" class=""/>
<text x="170.0" y="1097.6000000000001" class="tap">7</text>
<rect rx="6.0" ry="6.0" x="200.0" y="1066.0000000000002" width="52.0" height="52.0" class=""/>
<text x="226.0" y="1092.0000000000002" class="tap">8</text>
<rect rx="6.0" ry="6.0" x="256.0" y="1071.6000000000001" width="52.0" height="52.0" class=""/>
<text x="282.0" y="1097.6000000000001" class="tap">9</text>
<rect rx="6.0" ry="6.0" x="312.0" y="1077.2000000000003" width="52.0" height="52.0" class=""/>
<rect rx="6.0" ry="6.0" x="536.0" y="1077.2000000000003" width="52.0" height="52.0" class=""/>
<rect rx="6.0" ry="6.0" x="592.0" y="1071.6000000000001" width="52.0" height="52.0" class=""/>
<text x="618.0" y="1097.6000000000001" class="tap">$</text>
<rect rx="6.0" ry="6.0" x="648.0" y="1066.0000000000002" width="52.0" height="52.0" class=""/>
<text x="674.0" y="1092.0000000000002" class="tap">HYPER</text>
<rect rx="6.0" ry="6.0" x="704.0" y="1071.6000000000001" width="52.0" height="52.0" class=""/>
<rect rx="6.0" ry="6.0" x="760.0" y="1082.8000000000002" width="52.0" height="52.0" class=""/>
<rect rx="6.0" ry="6.0" x="816.0" y="1082.8000000000002" width="52.0" height="52.0" class=""/>
<rect rx="6.0" ry="6.0" x="32.0" y="1138.8000000000002" width="52.0" height="52.0" class=""/>
<rect rx="6.0" ry="6.0" x="88.0" y="1138.8000000000002" width="52.0" height="52.0" class=""/>
<rect rx="6.0" ry="6.0" x="144.0" y="1127.6000000000001" width="52.0" height="52.0" class=""/>
<text x="170.0" y="1153.6000000000001" class="tap">4</text>
<text x="170.0" y="1177.6000000000001" class="hold">⎇</text>
<rect rx="6.0" ry="6.0" x="200.0" y="1122.0000000000002" width="52.0" height="52.0" class=""/>
<text x="226.0" y="1148.0000000000002" class="tap">5</text>
<rect rx="6.0" ry="6.0" x="256.0" y="1127.6000000000001" width="52.0" height="52.0" class=""/>
<text x="282.0" y="1153.6000000000001" class="tap">6</text>
<rect rx="6.0" ry="6.0" x="312.0" y="1133.2000000000003" width="52.0" height="52.0" class=""/>
<rect rx="6.0" ry="6.0" x="536.0" y="1133.2000000000003" width="52.0" height="52.0" class=""/>
<rect rx="6.0" ry="6.0" x="592.0" y="1127.6000000000001" width="52.0" height="52.0" class=""/>
<text x="618.0" y="1153.6000000000001" class="tap">⇧</text>
<rect rx="6.0" ry="6.0" x="648.0" y="1122.0000000000002" width="52.0" height="52.0" class=""/>
<text x="674.0" y="1148.0000000000002" class="tap">=</text>
<text x="674.0" y="1172.0000000000002" class="hold">⌘</text>
<text x="674.0" y="1124.0000000000002" class="shifted">+</text>
<rect rx="6.0" ry="6.0" x="704.0" y="1127.6000000000001" width="52.0" height="52.0" class=""/>
<text x="730.0" y="1153.6000000000001" class="tap">⎇</text>
<rect rx="6.0" ry="6.0" x="760.0" y="1138.8000000000002" width="52.0" height="52.0" class=""/>
<text x="786.0" y="1164.8000000000002" class="tap">*</text>
<text x="786.0" y="1188.8000000000002" class="hold">⎈</text>
<rect rx="6.0" ry="6.0" x="816.0" y="1138.8000000000002" width="52.0" height="52.0" class=""/>
<rect rx="6.0" ry="6.0" x="32.0" y="1194.8000000000002" width="52.0" height="52.0" class=""/>
<rect rx="6.0" ry="6.0" x="88.0" y="1194.8000000000002" width="52.0" height="52.0" class=""/>
<rect rx="6.0" ry="6.0" x="144.0" y="1183.6000000000001" width="52.0" height="52.0" class=""/>
<text x="170.0" y="1209.6000000000001" class="tap">1</text>
<rect rx="6.0" ry="6.0" x="200.0" y="1178.0000000000002" width="52.0" height="52.0" class=""/>
<text x="226.0" y="1204.0000000000002" class="tap">2</text>
<rect rx="6.0" ry="6.0" x="256.0" y="1183.6000000000001" width="52.0" height="52.0" class=""/>
<text x="282.0" y="1209.6000000000001" class="tap">3</text>
<rect rx="6.0" ry="6.0" x="312.0" y="1189.2000000000003" width="52.0" height="52.0" class=""/>
<rect rx="6.0" ry="6.0" x="536.0" y="1189.2000000000003" width="52.0" height="52.0" class=""/>
<text x="562.0" y="1215.2000000000003" class="tap">%</text>
<rect rx="6.0" ry="6.0" x="592.0" y="1183.6000000000001" width="52.0" height="52.0" class=""/>
<text x="618.0" y="1209.6000000000001" class="tap">+</text>
<text x="618.0" y="1185.6000000000001" class="shifted">-</text>
<rect rx="6.0" ry="6.0" x="648.0" y="1178.0000000000002" width="52.0" height="52.0" class=""/>
<text x="674.0" y="1204.0000000000002" class="tap">,</text>
<text x="674.0" y="1228.0000000000002" class="hold">MEH</text>
<text x="674.0" y="1180.0000000000002" class="shifted">;</text>
<rect rx="6.0" ry="6.0" x="704.0" y="1183.6000000000001" width="52.0" height="52.0" class=""/>
<text x="730.0" y="1209.6000000000001" class="tap">.</text>
<text x="730.0" y="1185.6000000000001" class="shifted">:</text>
<rect rx="6.0" ry="6.0" x="760.0" y="1194.8000000000002" width="52.0" height="52.0" class=""/>
<text x="786.0" y="1220.8000000000002" class="tap">/</text>
<text x="786.0" y="1196.8000000000002" class="shifted">?</text>
<rect rx="6.0" ry="6.0" x="816.0" y="1194.8000000000002" width="52.0" height="52.0" class=""/>
<rect rx="6.0" ry="6.0" x="256.0" y="1273.2000000000003" width="52.0" height="52.0" class=""/>
<text x="282.0" y="1299.2000000000003" class="tap">Num</text>
<rect rx="6.0" ry="6.0" x="312.0" y="1273.2000000000003" width="52.0" height="52.0" class=""/>
<rect rx="6.0" ry="6.0" x="368.0" y="1245.2000000000003" width="52.0" height="80.0" class=""/>
<text x="394.0" y="1285.2000000000003" class="tap">0</text>
<rect rx="6.0" ry="6.0" x="480.0" y="1245.2000000000003" width="52.0" height="80.0" class=""/>
<rect rx="6.0" ry="6.0" x="536.0" y="1273.2000000000003" width="52.0" height="52.0" class=""/>
<rect rx="6.0" ry="6.0" x="592.0" y="1273.2000000000003" width="52.0" height="52.0" class="held"/>
<rect rx="6.0" ry="6.0" x="240.0" y="1137.8000000000002" width="28.0" height="26.0" class="combo"/>
<text x="254.0" y="1150.8000000000002" class="combo">(</text>
<rect rx="6.0" ry="6.0" x="632.0" y="1137.8000000000002" width="28.0" height="26.0" class="combo"/>
<text x="646.0" y="1150.8000000000002" class="combo">)</text>
<rect rx="6.0" ry="6.0" x="240.0" y="1193.8000000000002" width="28.0" height="26.0" class="combo"/>
<text x="254.0" y="1206.8000000000002" class="combo">[</text>
<text x="254.0" y="1195.8000000000002" class="combo shifted">{</text>
<rect rx="6.0" ry="6.0" x="632.0" y="1193.8000000000002" width="28.0" height="26.0" class="combo"/>
<text x="646.0" y="1206.8000000000002" class="combo">]</text>
<text x="646.0" y="1195.8000000000002" class="combo shifted">}</text>
<rect rx="6.0" ry="6.0" x="240.0" y="1081.8000000000002" width="28.0" height="26.0" class="combo"/>
<text x="254.0" y="1094.8000000000002" class="combo">{</text>
<rect rx="6.0" ry="6.0" x="632.0" y="1081.8000000000002" width="28.0" height="26.0" class="combo"/>
<text x="646.0" y="1094.8000000000002" class="combo">}</text>
<path d="M338.0,1345.0000000000002 h-50.0 a6.0,6.0 0 0 1 -6.0,-6.0 v-21.133333333333287"/>
<path d="M338.0,1345.0000000000002 h-6.0 a6.0,6.0 0 0 1 6.0,-6.0 v-28.599999999999955"/>
<path d="M338.0,1345.0000000000002 h50.0 a6.0,6.0 0 0 0 6.0,-6.0 v-25.799999999999955"/>
<rect rx="6.0" ry="6.0" x="324.0" y="1332.0000000000002" width="28.0" height="26.0" class="combo"/>
<text x="338.0" y="1345.0000000000002" class="combo">RET</text>
<rect rx="6.0" ry="6.0" x="352.0" y="1279.2000000000003" width="28.0" height="26.0" class="combo"/>
<text x="366.0" y="1292.2000000000003" class="combo">BSPC</text>
<path d="M226.0,1188.2000000000003 h-50.0 a6.0,6.0 0 0 1 -6.0,-6.0 v-9.933333333333469"/>
<path d="M226.0,1188.2000000000003 h-6.0 a6.0,6.0 0 0 1 6.0,-6.0 v-23.000000000000046"/>
<path d="M226.0,1188.2000000000003 h50.0 a6.0,6.0 0 0 0 6.0,-6.0 v-9.933333333333469"/>
<rect rx="6.0" ry="6.0" x="212.0" y="1175.2000000000003" width="28.0" height="26.0" class="combo"/>
<text x="226.0" y="1188.2000000000003" class="combo">NAV</text>
</g>
<g class="layer-Func">
<text x="30.0" y="1372.0000000000002" class="label">Func:</text>
<rect rx="6.0" ry="6.0" x="32.0" y="1418.8000000000002" width="52.0" height="52.0" class=""/>
<rect rx="6.0" ry="6.0" x="88.0" y="1418.8000000000002" width="52.0" height="52.0" class=""/>
<text x="114.0" y="1444.8000000000002" class="tap">F12</text>
<rect rx="6.0" ry="6.0" x="144.0" y="1407.6000000000001" width="52.0" height="52.0" class=""/>
<text x="170.0" y="1433.6000000000001" class="tap">F7</text>
<rect rx="6.0" ry="6.0" x="200.0" y="1402.0000000000002" width="52.0" height="52.0" class=""/>
<text x="226.0" y="1428.0000000000002" class="tap">F8</text>
<rect rx="6.0" ry="6.0" x="256.0" y="1407.6000000000001" width="52.0" height="52.0" class=""/>
<text x="282.0" y="1433.6000000000001" class="tap">F9</text>
<rect rx="6.0" ry="6.0" x="312.0" y="1413.2000000000003" width="52.0" height="52.0" class=""/>
<rect rx="6.0" ry="6.0" x="536.0" y="1413.2000000000003" width="52.0" height="52.0" class=""/>
<rect rx="6.0" ry="6.0" x="592.0" y="1407.6000000000001" width="52.0" height="52.0" class=""/>
<rect rx="6.0" ry="6.0" x="648.0" y="1402.0000000000002" width="52.0" height="52.0" class=""/>
<text x="674.0" y="1428.0000000000002" class="tap">HYPER</text>
<rect rx="6.0" ry="6.0" x="704.0" y="1407.6000000000001" width="52.0" height="52.0" class=""/>
<rect rx="6.0" ry="6.0" x="760.0" y="1418.8000000000002" width="52.0" height="52.0" class=""/>
<rect rx="6.0" ry="6.0" x="816.0" y="1418.8000000000002" width="52.0" height="52.0" class=""/>
<rect rx="6.0" ry="6.0" x="32.0" y="1474.8000000000002" width="52.0" height="52.0" class=""/>
<rect rx="6.0" ry="6.0" x="88.0" y="1474.8000000000002" width="52.0" height="52.0" class=""/>
<text x="114.0" y="1500.8000000000002" class="tap">F11</text>
<rect rx="6.0" ry="6.0" x="144.0" y="1463.6000000000001" width="52.0" height="52.0" class=""/>
<text x="170.0" y="1489.6000000000001" class="tap">F4</text>
<rect rx="6.0" ry="6.0" x="200.0" y="1458.0000000000002" width="52.0" height="52.0" class=""/>
<text x="226.0" y="1484.0000000000002" class="tap">F5</text>
<rect rx="6.0" ry="6.0" x="256.0" y="1463.6000000000001" width="52.0" height="52.0" class=""/>
<text x="282.0" y="1489.6000000000001" class="tap">F6</text>
<rect rx="6.0" ry="6.0" x="312.0" y="1469.2000000000003" width="52.0" height="52.0" class=""/>
<rect rx="6.0" ry="6.0" x="536.0" y="1469.2000000000003" width="52.0" height="52.0" class=""/>
<rect rx="6.0" ry="6.0" x="592.0" y="1463.6000000000001" width="52.0" height="52.0" class=""/>
<text x="618.0" y="1489.6000000000001" class="tap">⇧</text>
<rect rx="6.0" ry="6.0" x="648.0" y="1458.0000000000002" width="52.0" height="52.0" class=""/>
<text x="674.0" y="1484.0000000000002" class="tap">⌘</text>
<rect rx="6.0" ry="6.0" x="704.0" y="1463.6000000000001" width="52.0" height="52.0" class=""/>
<text x="730.0" y="1489.6000000000001" class="tap">⎇</text>
<rect rx="6.0" ry="6.0" x="760.0" y="1474.8000000000002" width="52.0" height="52.0" class=""/>
<text x="786.0" y="1500.8000000000002" class="tap">⎈</text>
<rect rx="6.0" ry="6.0" x="816.0" y="1474.8000000000002" width="52.0" height="52.0" class=""/>
<rect rx="6.0" ry="6.0" x="32.0" y="1530.8000000000002" width="52.0" height="52.0" class=""/>
<rect rx="6.0" ry="6.0" x="88.0" y="1530.8000000000002" width="52.0" height="52.0" class=""/>
<text x="114.0" y="1556.8000000000002" class="tap">F10</text>
<rect rx="6.0" ry="6.0" x="144.0" y="1519.6000000000001" width="52.0" height="52.0" class=""/>
<text x="170.0" y="1545.6000000000001" class="tap">F1</text>
<rect rx="6.0" ry="6.0" x="200.0" y="1514.0000000000002" width="52.0" height="52.0" class=""/>
<text x="226.0" y="1540.0000000000002" class="tap">F2</text>
<rect rx="6.0" ry="6.0" x="256.0" y="1519.6000000000001" width="52.0" height="52.0" class=""/>
<text x="282.0" y="1545.6000000000001" class="tap">F3</text>
<rect rx="6.0" ry="6.0" x="312.0" y="1525.2000000000003" width="52.0" height="52.0" class=""/>
<rect rx="6.0" ry="6.0" x="536.0" y="1525.2000000000003" width="52.0" height="52.0" class=""/>
<rect rx="6.0" ry="6.0" x="592.0" y="1519.6000000000001" width="52.0" height="52.0" class=""/>
<rect rx="6.0" ry="6.0" x="648.0" y="1514.0000000000002" width="52.0" height="52.0" class=""/>
<text x="674.0" y="1540.0000000000002" class="tap">MEH</text>
<rect rx="6.0" ry="6.0" x="704.0" y="1519.6000000000001" width="52.0" height="52.0" class=""/>
<rect rx="6.0" ry="6.0" x="760.0" y="1530.8000000000002" width="52.0" height="52.0" class=""/>
<rect rx="6.0" ry="6.0" x="816.0" y="1530.8000000000002" width="52.0" height="52.0" class=""/>
<rect rx="6.0" ry="6.0" x="256.0" y="1609.2000000000003" width="52.0" height="52.0" class=""/>
<rect rx="6.0" ry="6.0" x="312.0" y="1609.2000000000003" width="52.0" height="52.0" class=""/>
<rect rx="6.0" ry="6.0" x="368.0" y="1581.2000000000003" width="52.0" height="80.0" class=""/>
<rect rx="6.0" ry="6.0" x="480.0" y="1581.2000000000003" width="52.0" height="80.0" class=""/>
<rect rx="6.0" ry="6.0" x="536.0" y="1609.2000000000003" width="52.0" height="52.0" class=""/>
<rect rx="6.0" ry="6.0" x="592.0" y="1609.2000000000003" width="52.0" height="52.0" class=""/>
</g>
<g class="layer-Adjust">
<text x="30.0" y="1691.2000000000003" class="label">Adjust:</text>
<rect rx="6.0" ry="6.0" x="32.0" y="1738.0000000000002" width="52.0" height="52.0" class=""/>
<rect rx="6.0" ry="6.0" x="88.0" y="1738.0000000000002" width="52.0" height="52.0" class=""/>
<text x="114.0" y="1764.0000000000002" class="tap">⌘Q</text>
<rect rx="6.0" ry="6.0" x="144.0" y="1726.8000000000002" width="52.0" height="52.0" class=""/>
<text x="170.0" y="1752.8000000000002" class="tap">⌘W</text>
<rect rx="6.0" ry="6.0" x="200.0" y="1721.2000000000003" width="52.0" height="52.0" class=""/>
<rect rx="6.0" ry="6.0" x="256.0" y="1726.8000000000002" width="52.0" height="52.0" class=""/>
<rect rx="6.0" ry="6.0" x="312.0" y="1732.4000000000003" width="52.0" height="52.0" class=""/>
<text x="338.0" y="1758.4000000000003" class="tap">⌘`</text>
<rect rx="6.0" ry="6.0" x="536.0" y="1732.4000000000003" width="52.0" height="52.0" class=""/>
<text x="562.0" y="1758.4000000000003" class="tap">
<tspan x="562.0" dy="-0.6em">BT</tspan><tspan x="562.0" dy="1.2em">CLR</tspan></text>
<rect rx="6.0" ry="6.0" x="592.0" y="1726.8000000000002" width="52.0" height="52.0" class=""/>
<text x="618.0" y="1752.8000000000002" class="tap">
<tspan x="618.0" dy="-0.6em">BT</tspan><tspan x="618.0" dy="1.2em">PRV</tspan></text>
<rect rx="6.0" ry="6.0" x="648.0" y="1721.2000000000003" width="52.0" height="52.0" class=""/>
<text x="674.0" y="1747.2000000000003" class="tap">
<tspan x="674.0" dy="-0.6em">BT</tspan><tspan x="674.0" dy="1.2em">NXT</tspan></text>
<rect rx="6.0" ry="6.0" x="704.0" y="1726.8000000000002" width="52.0" height="52.0" class=""/>
<text x="730.0" y="1752.8000000000002" class="tap">
<tspan x="730.0" dy="-1.7999999999999998em">EXT</tspan><tspan x="730.0" dy="1.2em">POWER</tspan><tspan x="730.0" dy="1.2em">TOGGLE</tspan><tspan x="730.0" dy="1.2em">CMD</tspan></text>
<rect rx="6.0" ry="6.0" x="760.0" y="1738.0000000000002" width="52.0" height="52.0" class=""/>
<text x="786.0" y="1764.0000000000002" class="tap">Base</text>
<rect rx="6.0" ry="6.0" x="816.0" y="1738.0000000000002" width="52.0" height="52.0" class=""/>
<text x="842.0" y="1764.0000000000002" class="tap">QWERTY</text>
<rect rx="6.0" ry="6.0" x="32.0" y="1794.0000000000002" width="52.0" height="52.0" class=""/>
<rect rx="6.0" ry="6.0" x="88.0" y="1794.0000000000002" width="52.0" height="52.0" class=""/>
<rect rx="6.0" ry="6.0" x="144.0" y="1782.8000000000002" width="52.0" height="52.0" class=""/>
<rect rx="6.0" ry="6.0" x="200.0" y="1777.2000000000003" width="52.0" height="52.0" class=""/>
<rect rx="6.0" ry="6.0" x="256.0" y="1782.8000000000002" width="52.0" height="52.0" class=""/>
<rect rx="6.0" ry="6.0" x="312.0" y="1788.4000000000003" width="52.0" height="52.0" class=""/>
<text x="338.0" y="1814.4000000000003" class="tap">⌘↹</text>
<rect rx="6.0" ry="6.0" x="536.0" y="1788.4000000000003" width="52.0" height="52.0" class=""/>
<text x="562.0" y="1814.4000000000003" class="tap">
<tspan x="562.0" dy="-0.6em">VOL</tspan><tspan x="562.0" dy="1.2em">MUTE</tspan></text>
<rect rx="6.0" ry="6.0" x="592.0" y="1782.8000000000002" width="52.0" height="52.0" class=""/>
<text x="618.0" y="1808.8000000000002" class="tap">⏮</text>
<rect rx="6.0" ry="6.0" x="648.0" y="1777.2000000000003" width="52.0" height="52.0" class=""/>
<text x="674.0" y="1803.2000000000003" class="tap">
<tspan x="674.0" dy="-0.6em">VOL</tspan><tspan x="674.0" dy="1.2em">DOWN</tspan></text>
<rect rx="6.0" ry="6.0" x="704.0" y="1782.8000000000002" width="52.0" height="52.0" class=""/>
<text x="730.0" y="1808.8000000000002" class="tap">
<tspan x="730.0" dy="-0.6em">VOL</tspan><tspan x="730.0" dy="1.2em">UP</tspan></text>
<rect rx="6.0" ry="6.0" x="760.0" y="1794.0000000000002" width="52.0" height="52.0" class=""/>
<text x="786.0" y="1820.0000000000002" class="tap">⏭</text>
<rect rx="6.0" ry="6.0" x="816.0" y="1794.0000000000002" width="52.0" height="52.0" class=""/>
<rect rx="6.0" ry="6.0" x="32.0" y="1850.0000000000002" width="52.0" height="52.0" class=""/>
<rect rx="6.0" ry="6.0" x="88.0" y="1850.0000000000002" width="52.0" height="52.0" class=""/>
<text x="114.0" y="1876.0000000000002" class="tap">⌘Z</text>
<rect rx="6.0" ry="6.0" x="144.0" y="1838.8000000000002" width="52.0" height="52.0" class=""/>
<text x="170.0" y="1864.8000000000002" class="tap">⌘X</text>
<rect rx="6.0" ry="6.0" x="200.0" y="1833.2000000000003" width="52.0" height="52.0" class=""/>
<text x="226.0" y="1859.2000000000003" class="tap">⌘C</text>
<rect rx="6.0" ry="6.0" x="256.0" y="1838.8000000000002" width="52.0" height="52.0" class=""/>
<rect rx="6.0" ry="6.0" x="312.0" y="1844.4000000000003" width="52.0" height="52.0" class=""/>
<text x="338.0" y="1870.4000000000003" class="tap">⌘V</text>
<rect rx="6.0" ry="6.0" x="536.0" y="1844.4000000000003" width="52.0" height="52.0" class=""/>
<rect rx="6.0" ry="6.0" x="592.0" y="1838.8000000000002" width="52.0" height="52.0" class=""/>
<text x="618.0" y="1864.8000000000002" class="tap">⏯</text>
<rect rx="6.0" ry="6.0" x="648.0" y="1833.2000000000003" width="52.0" height="52.0" class=""/>
<text x="674.0" y="1859.2000000000003" class="tap">☀↓</text>
<rect rx="6.0" ry="6.0" x="704.0" y="1838.8000000000002" width="52.0" height="52.0" class=""/>
<text x="730.0" y="1864.8000000000002" class="tap">☀↑</text>
<rect rx="6.0" ry="6.0" x="760.0" y="1850.0000000000002" width="52.0" height="52.0" class=""/>
<rect rx="6.0" ry="6.0" x="816.0" y="1850.0000000000002" width="52.0" height="52.0" class=""/>
<rect rx="6.0" ry="6.0" x="256.0" y="1928.4000000000003" width="52.0" height="52.0" class=""/>
<text x="282.0" y="1954.4000000000003" class="tap">Nav</text>
<rect rx="6.0" ry="6.0" x="312.0" y="1928.4000000000003" width="52.0" height="52.0" class=""/>
<rect rx="6.0" ry="6.0" x="368.0" y="1900.4000000000003" width="52.0" height="80.0" class="held"/>
<rect rx="6.0" ry="6.0" x="480.0" y="1900.4000000000003" width="52.0" height="80.0" class=""/>
<rect rx="6.0" ry="6.0" x="536.0" y="1928.4000000000003" width="52.0" height="52.0" class=""/>
<rect rx="6.0" ry="6.0" x="592.0" y="1928.4000000000003" width="52.0" height="52.0" class=""/>
<text x="618.0" y="1954.4000000000003" class="tap">Adjust</text>
</g>
</svg>
