<svg width="847.3040000000001" height="2206.064" viewBox="0 0 847.3040000000001 2206.064" xmlns="http://www.w3.org/2000/svg">
<style>/* font and background color specifications */
svg {
    font-family: SFMono-Regular,Consolas,Liberation Mono,Menlo,monospace;
    font-size: 14px;
    font-kerning: normal;
    text-rendering: optimizeLegibility;
    fill: #24292e;
}

/* default key styling */
rect {
    fill: #f6f8fa;
    stroke: #c9cccf;
    stroke-width: 1;
}

/* color accent for combo boxes */
rect.combo {
    fill: #cdf;
}

/* color accent for held keys */
rect.held, rect.combo.held {
    fill: #fdd;
}

/* color accent for ghost (optional) keys */
rect.ghost, rect.combo.ghost {
    fill: #ddd;
}

text {
    text-anchor: middle;
    dominant-baseline: middle;
}

/* styling for layer labels */
text.label {
    font-weight: bold;
    text-anchor: start;
    stroke: white;
    stroke-width: 2;
    paint-order: stroke;
}

/* styling for combo tap, and key hold/shifted label text */
text.combo, text.hold, text.shifted {
    font-size: 11px;
}

text.hold {
    text-anchor: middle;
    dominant-baseline: auto;
}

text.shifted {
    text-anchor: middle;
    dominant-baseline: hanging;
}

/* styling for hold/shifted label text in combo box */
text.combo.hold, text.combo.shifted {
    font-size: 8px;
}

/* styling for combo dendrons */
path {
    stroke-width: 1;
    stroke: gray;
    fill: none;
}
</style>
<g class="layer-Base">
<text x="30.0" y="28.0" class="label">Base:</text>
<rect rx="6.0" ry="6.0" x="32.0" y="117.304" width="55.303999999999995" height="52.0" class=""/>
<text x="59.652" y="143.304" class="tap">Q</text>
<rect rx="6.0" ry="6.0" x="91.30399999999999" y="77.768" width="55.303999999999995" height="52.0" class=""/>
<text x="118.95599999999999" y="103.768" class="tap">W</text>
<rect rx="6.0" ry="6.0" x="150.608" y="58.0" width="55.303999999999995" height="52.0" class=""/>
<text x="178.26" y="84.0" class="tap">F</text>
<text x="178.26" y="108.0" class="hold">HYPER</text>
<rect rx="6.0" ry="6.0" x="209.91200000000003" y="79.78399999999999" width="55.303999999999995" height="52.0" class=""/>
<text x="237.56400000000002" y="105.78399999999999" class="tap">P</text>
<rect rx="6.0" ry="6.0" x="269.21599999999995" y="87.624" width="55.303999999999995" height="52.0" class=""/>
<text x="296.86799999999994" y="113.624" class="tap">B</text>
<rect rx="6.0" ry="6.0" x="522.784" y="87.624" width="55.303999999999995" height="52.0" class=""/>
<text x="550.436" y="113.624" class="tap">J</text>
<rect rx="6.0" ry="6.0" x="582.088" y="79.78399999999999" width="55.303999999999995" height="52.0" class=""/>
<text x="609.74" y="105.78399999999999" class="tap">L</text>
<rect rx="6.0" ry="6.0" x="641.3919999999999" y="58.0" width="55.303999999999995" height="52.0" class=""/>
<text x="669.044" y="84.0" class="tap">U</text>
<text x="669.044" y="108.0" class="hold">HYPER</text>
<rect rx="6.0" ry="6.0" x="700.696" y="77.768" width="55.303999999999995" height="52.0" class=""/>
<text x="728.3480000000001" y="103.768" class="tap">Y</text>
<rect rx="6.0" ry="6.0" x="760.0" y="117.304" width="55.303999999999995" height="52.0" class=""/>
<text x="787.652" y="143.304" class="tap">&#x27;</text>
<text x="787.652" y="119.304" class="shifted">&quot;</text>
<rect rx="6.0" ry="6.0" x="32.0" y="173.304" width="55.303999999999995" height="52.0" class=""/>
<text x="59.652" y="199.304" class="tap">A</text>
<text x="59.652" y="223.304" class="hold">⌃</text>
<rect rx="6.0" ry="6.0" x="91.30399999999999" y="133.768" width="55.303999999999995" height="52.0" class=""/>
<text x="118.95599999999999" y="159.768" class="tap">R</text>
<text x="118.95599999999999" y="183.768" class="hold">⎇</text>
<rect rx="6.0" ry="6.0" x="150.608" y="114.0" width="55.303999999999995" height="52.0" class=""/>
<text x="178.26" y="140.0" class="tap">S</text>
<text x="178.26" y="164.0" class="hold">⌘</text>
<rect rx="6.0" ry="6.0" x="209.91200000000003" y="135.784" width="55.303999999999995" height="52.0" class=""/>
<text x="237.56400000000002" y="161.784" class="tap">T</text>
<text x="237.56400000000002" y="185.784" class="hold">⇧</text>
<rect rx="6.0" ry="6.0" x="269.21599999999995" y="143.624" width="55.303999999999995" height="52.0" class=""/>
<text x="296.86799999999994" y="169.624" class="tap">G</text>
<rect rx="6.0" ry="6.0" x="522.784" y="143.624" width="55.303999999999995" height="52.0" class=""/>
<text x="550.436" y="169.624" class="tap">M</text>
<rect rx="6.0" ry="6.0" x="582.088" y="135.784" width="55.303999999999995" height="52.0" class=""/>
<text x="609.74" y="161.784" class="tap">N</text>
<text x="609.74" y="185.784" class="hold">⇧</text>
<rect rx="6.0" ry="6.0" x="641.3919999999999" y="114.0" width="55.303999999999995" height="52.0" class=""/>
<text x="669.044" y="140.0" class="tap">E</text>
<text x="669.044" y="164.0" class="hold">⌘</text>
<rect rx="6.0" ry="6.0" x="700.696" y="133.768" width="55.303999999999995" height="52.0" class=""/>
<text x="728.3480000000001" y="159.768" class="tap">I</text>
<text x="728.3480000000001" y="183.768" class="hold">⎇</text>
<rect rx="6.0" ry="6.0" x="760.0" y="173.304" width="55.303999999999995" height="52.0" class=""/>
<text x="787.652" y="199.304" class="tap">O</text>
<text x="787.652" y="223.304" class="hold">⌃</text>
<rect rx="6.0" ry="6.0" x="32.0" y="229.304" width="55.303999999999995" height="52.0" class=""/>
<text x="59.652" y="255.304" class="tap">Z</text>
<rect rx="6.0" ry="6.0" x="91.30399999999999" y="189.768" width="55.303999999999995" height="52.0" class=""/>
<text x="118.95599999999999" y="215.768" class="tap">X</text>
<rect rx="6.0" ry="6.0" x="150.608" y="170.0" width="55.303999999999995" height="52.0" class=""/>
<text x="178.26" y="196.0" class="tap">C</text>
<text x="178.26" y="220.0" class="hold">MEH</text>
<rect rx="6.0" ry="6.0" x="209.91200000000003" y="191.84" width="55.303999999999995" height="52.0" class=""/>
<text x="237.56400000000002" y="217.84" class="tap">D</text>
<rect rx="6.0" ry="6.0" x="269.21599999999995" y="199.624" width="55.303999999999995" height="52.0" class=""/>
<text x="296.86799999999994" y="225.624" class="tap">V</text>
<rect rx="6.0" ry="6.0" x="522.784" y="199.624" width="55.303999999999995" height="52.0" class=""/>
<text x="550.436" y="225.624" class="tap">K</text>
<rect rx="6.0" ry="6.0" x="582.088" y="191.84" width="55.303999999999995" height="52.0" class=""/>
<text x="609.74" y="217.84" class="tap">H</text>
<rect rx="6.0" ry="6.0" x="641.3919999999999" y="170.0" width="55.303999999999995" height="52.0" class=""/>
<text x="669.044" y="196.0" class="tap">,</text>
<text x="669.044" y="220.0" class="hold">MEH</text>
<text x="669.044" y="172.0" class="shifted">;</text>
<rect rx="6.0" ry="6.0" x="700.696" y="189.768" width="55.303999999999995" height="52.0" class=""/>
<text x="728.3480000000001" y="215.768" class="tap">.</text>
<text x="728.3480000000001" y="191.768" class="shifted">:</text>
<rect rx="6.0" ry="6.0" x="760.0" y="229.304" width="55.303999999999995" height="52.0" class=""/>
<text x="787.652" y="255.304" class="tap">/</text>
<text x="787.652" y="231.304" class="shifted">?</text>
<rect rx="6.0" ry="6.0" x="190.42400000000004" y="257.584" width="55.303999999999995" height="52.0" class=""/>
<text x="218.07600000000002" y="283.584" class="tap">⎋</text>
<text x="218.07600000000002" y="307.584" class="hold">⌘</text>
<text x="218.07600000000002" y="259.584" class="shifted">~ `</text>
<g transform="rotate(15.0, 284.18399999999997, 292.096)">
<rect rx="6.0" ry="6.0" x="256.504" y="266.096" width="55.303999999999995" height="52.0" class=""/>
<text x="284.156" y="292.096" class="tap">⎵</text>
<text x="284.156" y="316.096" class="hold">SYM</text>
<text x="284.156" y="268.096" class="shifted">_ -</text>
</g>
<g transform="rotate(30.0, 352.0, 302.68)">
<rect rx="6.0" ry="6.0" x="324.376" y="260.216" width="52.0" height="84.928" class=""/>
<text x="350.376" y="302.68" class="tap">↹</text>
<text x="350.376" y="343.144" class="hold">Adjust</text>
</g>
<g transform="rotate(-30.0, 492.0, 302.68)">
<rect rx="6.0" ry="6.0" x="467.624" y="260.216" width="52.0" height="84.928" class=""/>
<text x="493.624" y="302.68" class="tap">⌫</text>
<text x="493.624" y="262.216" class="shifted">⌦</text>
</g>
<g transform="rotate(-15.0, 559.816, 292.096)">
<rect rx="6.0" ry="6.0" x="535.496" y="266.096" width="55.303999999999995" height="52.0" class=""/>
<text x="563.148" y="292.096" class="tap">⏎</text>
<text x="563.148" y="316.096" class="hold">Nav</text>
</g>
<rect rx="6.0" ry="6.0" x="601.5759999999999" y="257.584" width="55.303999999999995" height="52.0" class=""/>
<text x="629.228" y="283.584" class="tap">0</text>
<text x="629.228" y="307.584" class="hold">Num</text>
<rect rx="6.0" ry="6.0" x="193.912" y="137.892" width="28.0" height="26.0" class="combo"/>
<text x="207.912" y="150.892" class="combo">(</text>
<rect rx="6.0" ry="6.0" x="625.392" y="137.892" width="28.0" height="26.0" class="combo"/>
<text x="639.392" y="150.892" class="combo">)</text>
<rect rx="6.0" ry="6.0" x="193.912" y="193.92000000000002" width="28.0" height="26.0" class="combo"/>
<text x="207.912" y="206.92000000000002" class="combo">[</text>
<rect rx="6.0" ry="6.0" x="625.392" y="193.92000000000002" width="28.0" height="26.0" class="combo"/>
<text x="639.392" y="206.92000000000002" class="combo">]</text>
<rect rx="6.0" ry="6.0" x="193.912" y="81.892" width="28.0" height="26.0" class="combo"/>
<text x="207.912" y="94.892" class="combo">{</text>
<rect rx="6.0" ry="6.0" x="625.392" y="81.892" width="28.0" height="26.0" class="combo"/>
<text x="639.392" y="94.892" class="combo">}</text>
<rect rx="6.0" ry="6.0" x="253.216" y="152.704" width="28.0" height="26.0" class="combo"/>
<text x="267.216" y="165.704" class="combo">&lt;</text>
<rect rx="6.0" ry="6.0" x="566.088" y="152.704" width="28.0" height="26.0" class="combo"/>
<text x="580.088" y="165.704" class="combo">&gt;</text>
<path d="M423.65200000000004,161.784 l-166.32000000000002,0.0"/>
<path d="M423.65200000000004,161.784 l166.31999999999996,0.0"/>
<rect rx="6.0" ry="6.0" x="409.65200000000004" y="148.784" width="28.0" height="26.0" class="combo"/>
<text x="423.65200000000004" y="161.784" class="combo">
<tspan x="423.65200000000004" dy="-0.6em">Caps</tspan><tspan x="423.65200000000004" dy="1.2em">Word</tspan></text>
<path d="M284.20266666666663,364.944 h-60.12666666666661 a6.0,6.0 0 0 1 -6.0,-6.0 v-56.69333333333334"/>
<path d="M284.20266666666663,364.944 h5.953333333333376 a6.0,6.0 0 0 1 -6.0,-6.0 v-55.64800000000001"/>
<path d="M284.20266666666663,364.944 h60.173333333333346 a6.0,6.0 0 0 0 6.0,-6.0 v-26.621333333333343"/>
<rect rx="6.0" ry="6.0" x="270.20266666666663" y="351.944" width="28.0" height="26.0" class="combo"/>
<text x="284.20266666666663" y="364.944" class="combo">RET</text>
<rect rx="6.0" ry="6.0" x="303.26599999999996" y="284.38800000000003" width="28.0" height="26.0" class="combo"/>
<text x="317.26599999999996" y="297.38800000000003" class="combo">BSPC</text>
<path d="M178.26,176.784 h-53.304 a6.0,6.0 0 0 1 -6.0,-6.0 v7.650666666666677"/>
<path d="M178.26,176.784 h-6.0 a6.0,6.0 0 0 1 6.0,-6.0 v-19.583999999999993"/>
<path d="M178.26,176.784 h53.30400000000003 a6.0,6.0 0 0 0 6.0,-6.0 v9.666666666666668"/>
<rect rx="6.0" ry="6.0" x="164.26" y="163.784" width="28.0" height="26.0" class="combo"/>
<text x="178.26" y="176.784" class="combo">NAV</text>
<path d="M178.26,246.84 h-53.304 a6.0,6.0 0 0 1 -6.0,-6.0 v-6.405333333333335"/>
<path d="M178.26,246.84 h-6.0 a6.0,6.0 0 0 1 6.0,-6.0 v-33.64"/>
<path d="M178.26,246.84 h53.30400000000003 a6.0,6.0 0 0 0 6.0,-6.0 v-4.333333333333332"/>
<rect rx="6.0" ry="6.0" x="164.26" y="233.84" width="28.0" height="26.0" class="combo"/>
<text x="178.26" y="246.84" class="combo">NUM</text>
</g>
<g class="layer-Nav">
<text x="30.0" y="391.944" class="label">Nav:</text>
<rect rx="6.0" ry="6.0" x="32.0" y="481.24800000000005" width="55.303999999999995" height="52.0" class=""/>
<rect rx="6.0" ry="6.0" x="91.30399999999999" y="441.712" width="55.303999999999995" height="52.0" class=""/>
<text x="118.95599999999999" y="467.712" class="tap">⇤</text>
<rect rx="6.0" ry="6.0" x="150.608" y="421.944" width="55.303999999999995" height="52.0" class=""/>
<rect rx="6.0" ry="6.0" x="209.91200000000003" y="443.728" width="55.303999999999995" height="52.0" class=""/>
<text x="237.56400000000002" y="469.728" class="tap">⇥</text>
<rect rx="6.0" ry="6.0" x="269.21599999999995" y="451.568" width="55.303999999999995" height="52.0" class=""/>
<text x="296.86799999999994" y="477.568" class="tap">
<tspan x="296.86799999999994" dy="-0.6em">PG</tspan><tspan x="296.86799999999994" dy="1.2em">UP</tspan></text>
<rect rx="6.0" ry="6.0" x="522.784" y="451.568" width="55.303999999999995" height="52.0" class=""/>
<rect rx="6.0" ry="6.0" x="582.088" y="443.728" width="55.303999999999995" height="52.0" class=""/>
<rect rx="6.0" ry="6.0" x="641.3919999999999" y="421.944" width="55.303999999999995" height="52.0" class=""/>
<text x="669.044" y="447.944" class="tap">HYPER</text>
<rect rx="6.0" ry="6.0" x="700.696" y="441.712" width="55.303999999999995" height="52.0" class=""/>
<rect rx="6.0" ry="6.0" x="760.0" y="481.24800000000005" width="55.303999999999995" height="52.0" class=""/>
<rect rx="6.0" ry="6.0" x="32.0" y="537.248" width="55.303999999999995" height="52.0" class=""/>
<text x="59.652" y="563.248" class="tap">
<tspan x="59.652" dy="-0.6em">⇧</tspan><tspan x="59.652" dy="1.2em">Lock</tspan></text>
<rect rx="6.0" ry="6.0" x="91.30399999999999" y="497.712" width="55.303999999999995" height="52.0" class=""/>
<text x="118.95599999999999" y="523.712" class="tap">←</text>
<rect rx="6.0" ry="6.0" x="150.608" y="477.944" width="55.303999999999995" height="52.0" class=""/>
<text x="178.26" y="503.944" class="tap">↑</text>
<rect rx="6.0" ry="6.0" x="209.91200000000003" y="499.72800000000007" width="55.303999999999995" height="52.0" class=""/>
<text x="237.56400000000002" y="525.7280000000001" class="tap">→</text>
<rect rx="6.0" ry="6.0" x="269.21599999999995" y="507.568" width="55.303999999999995" height="52.0" class=""/>
<text x="296.86799999999994" y="533.568" class="tap">
<tspan x="296.86799999999994" dy="-0.6em">PG</tspan><tspan x="296.86799999999994" dy="1.2em">DN</tspan></text>
<rect rx="6.0" ry="6.0" x="522.784" y="507.568" width="55.303999999999995" height="52.0" class=""/>
<rect rx="6.0" ry="6.0" x="582.088" y="499.72800000000007" width="55.303999999999995" height="52.0" class=""/>
<text x="609.74" y="525.7280000000001" class="tap">⇧</text>
<rect rx="6.0" ry="6.0" x="641.3919999999999" y="477.944" width="55.303999999999995" height="52.0" class=""/>
<text x="669.044" y="503.944" class="tap">⌘</text>
<rect rx="6.0" ry="6.0" x="700.696" y="497.712" width="55.303999999999995" height="52.0" class=""/>
<text x="728.3480000000001" y="523.712" class="tap">⎇</text>
<rect rx="6.0" ry="6.0" x="760.0" y="537.248" width="55.303999999999995" height="52.0" class=""/>
<text x="787.652" y="563.248" class="tap">⌃</text>
<rect rx="6.0" ry="6.0" x="32.0" y="593.248" width="55.303999999999995" height="52.0" class=""/>
<rect rx="6.0" ry="6.0" x="91.30399999999999" y="553.712" width="55.303999999999995" height="52.0" class=""/>
<text x="118.95599999999999" y="579.712" class="tap">↞</text>
<rect rx="6.0" ry="6.0" x="150.608" y="533.944" width="55.303999999999995" height="52.0" class=""/>
<text x="178.26" y="559.944" class="tap">↓</text>
<rect rx="6.0" ry="6.0" x="209.91200000000003" y="555.784" width="55.303999999999995" height="52.0" class=""/>
<text x="237.56400000000002" y="581.784" class="tap">↠</text>
<rect rx="6.0" ry="6.0" x="269.21599999999995" y="563.568" width="55.303999999999995" height="52.0" class=""/>
<rect rx="6.0" ry="6.0" x="522.784" y="563.568" width="55.303999999999995" height="52.0" class=""/>
<rect rx="6.0" ry="6.0" x="582.088" y="555.784" width="55.303999999999995" height="52.0" class=""/>
<rect rx="6.0" ry="6.0" x="641.3919999999999" y="533.944" width="55.303999999999995" height="52.0" class=""/>
<text x="669.044" y="559.944" class="tap">MEH</text>
<rect rx="6.0" ry="6.0" x="700.696" y="553.712" width="55.303999999999995" height="52.0" class=""/>
<rect rx="6.0" ry="6.0" x="760.0" y="593.248" width="55.303999999999995" height="52.0" class=""/>
<rect rx="6.0" ry="6.0" x="190.42400000000004" y="621.528" width="55.303999999999995" height="52.0" class=""/>
<text x="218.07600000000002" y="647.528" class="tap">
<tspan x="218.07600000000002" dy="-1.2em">Cancel</tspan><tspan x="218.07600000000002" dy="1.2em">Nav</tspan></text>
<text x="218.07600000000002" y="671.528" class="hold">⌘</text>
<g transform="rotate(15.0, 284.18399999999997, 656.04)">
<rect rx="6.0" ry="6.0" x="256.504" y="630.04" width="55.303999999999995" height="52.0" class=""/>
</g>
<g transform="rotate(30.0, 352.0, 666.624)">
<rect rx="6.0" ry="6.0" x="324.376" y="624.1600000000001" width="52.0" height="84.928" class=""/>
</g>
<g transform="rotate(-30.0, 492.0, 666.624)">
<rect rx="6.0" ry="6.0" x="467.624" y="624.1600000000001" width="52.0" height="84.928" class=""/>
</g>
<g transform="rotate(-15.0, 559.816, 656.04)">
<rect rx="6.0" ry="6.0" x="535.496" y="630.04" width="55.303999999999995" height="52.0" class="held"/>
</g>
<rect rx="6.0" ry="6.0" x="601.5759999999999" y="621.528" width="55.303999999999995" height="52.0" class=""/>
<path d="M284.20266666666663,728.888 h-60.12666666666661 a6.0,6.0 0 0 1 -6.0,-6.0 v-56.69333333333334"/>
<path d="M284.20266666666663,728.888 h5.953333333333376 a6.0,6.0 0 0 1 -6.0,-6.0 v-55.64800000000007"/>
<path d="M284.20266666666663,728.888 h60.173333333333346 a6.0,6.0 0 0 0 6.0,-6.0 v-26.621333333333343"/>
<rect rx="6.0" ry="6.0" x="270.20266666666663" y="715.888" width="28.0" height="26.0" class="combo"/>
<text x="284.20266666666663" y="728.888" class="combo">RET</text>
<rect rx="6.0" ry="6.0" x="303.26599999999996" y="648.332" width="28.0" height="26.0" class="combo"/>
<text x="317.26599999999996" y="661.332" class="combo">BSPC</text>
<path d="M178.26,610.784 h-53.304 a6.0,6.0 0 0 1 -6.0,-6.0 v-6.405333333333335"/>
<path d="M178.26,610.784 h-6.0 a6.0,6.0 0 0 1 6.0,-6.0 v-33.64000000000003"/>
<path d="M178.26,610.784 h53.30400000000003 a6.0,6.0 0 0 0 6.0,-6.0 v-4.333333333333332"/>
<rect rx="6.0" ry="6.0" x="164.26" y="597.784" width="28.0" height="26.0" class="combo"/>
<text x="178.26" y="610.784" class="combo">NUM</text>
</g>
<g class="layer-Num">
<text x="30.0" y="755.888" class="label">Num:</text>
<rect rx="6.0" ry="6.0" x="32.0" y="845.192" width="55.303999999999995" height="52.0" class=""/>
<rect rx="6.0" ry="6.0" x="91.30399999999999" y="805.6560000000001" width="55.303999999999995" height="52.0" class=""/>
<text x="118.95599999999999" y="831.6560000000001" class="tap">7</text>
<rect rx="6.0" ry="6.0" x="150.608" y="785.888" width="55.303999999999995" height="52.0" class=""/>
<text x="178.26" y="811.888" class="tap">8</text>
<rect rx="6.0" ry="6.0" x="209.91200000000003" y="807.672" width="55.303999999999995" height="52.0" class=""/>
<text x="237.56400000000002" y="833.672" class="tap">9</text>
<rect rx="6.0" ry="6.0" x="269.21599999999995" y="815.5120000000001" width="55.303999999999995" height="52.0" class=""/>
<rect rx="6.0" ry="6.0" x="522.784" y="815.5120000000001" width="55.303999999999995" height="52.0" class=""/>
<rect rx="6.0" ry="6.0" x="582.088" y="807.672" width="55.303999999999995" height="52.0" class=""/>
<text x="609.74" y="833.672" class="tap">$</text>
<rect rx="6.0" ry="6.0" x="641.3919999999999" y="785.888" width="55.303999999999995" height="52.0" class=""/>
<text x="669.044" y="811.888" class="tap">HYPER</text>
<rect rx="6.0" ry="6.0" x="700.696" y="805.6560000000001" width="55.303999999999995" height="52.0" class=""/>
<rect rx="6.0" ry="6.0" x="760.0" y="845.192" width="55.303999999999995" height="52.0" class=""/>
<rect rx="6.0" ry="6.0" x="32.0" y="901.192" width="55.303999999999995" height="52.0" class=""/>
<text x="59.652" y="927.192" class="tap">0</text>
<text x="59.652" y="951.192" class="hold">⌃</text>
<rect rx="6.0" ry="6.0" x="91.30399999999999" y="861.6560000000001" width="55.303999999999995" height="52.0" class=""/>
<text x="118.95599999999999" y="887.6560000000001" class="tap">4</text>
<text x="118.95599999999999" y="911.6560000000001" class="hold">⎇</text>
<rect rx="6.0" ry="6.0" x="150.608" y="841.888" width="55.303999999999995" height="52.0" class=""/>
<text x="178.26" y="867.888" class="tap">5</text>
<rect rx="6.0" ry="6.0" x="209.91200000000003" y="863.672" width="55.303999999999995" height="52.0" class=""/>
<text x="237.56400000000002" y="889.672" class="tap">6</text>
<text x="237.56400000000002" y="913.672" class="hold">⇧</text>
<rect rx="6.0" ry="6.0" x="269.21599999999995" y="871.5120000000001" width="55.303999999999995" height="52.0" class=""/>
<text x="296.86799999999994" y="897.5120000000001" class="tap">0</text>
<rect rx="6.0" ry="6.0" x="522.784" y="871.5120000000001" width="55.303999999999995" height="52.0" class=""/>
<text x="550.436" y="897.5120000000001" class="tap">+</text>
<rect rx="6.0" ry="6.0" x="582.088" y="863.672" width="55.303999999999995" height="52.0" class=""/>
<text x="609.74" y="889.672" class="tap">⇧</text>
<rect rx="6.0" ry="6.0" x="641.3919999999999" y="841.888" width="55.303999999999995" height="52.0" class=""/>
<text x="669.044" y="867.888" class="tap">=</text>
<text x="669.044" y="891.888" class="hold">⌘</text>
<text x="669.044" y="843.888" class="shifted">+</text>
<rect rx="6.0" ry="6.0" x="700.696" y="861.6560000000001" width="55.303999999999995" height="52.0" class=""/>
<text x="728.3480000000001" y="887.6560000000001" class="tap">⎇</text>
<rect rx="6.0" ry="6.0" x="760.0" y="901.192" width="55.303999999999995" height="52.0" class=""/>
<text x="787.652" y="927.192" class="tap">*</text>
<text x="787.652" y="951.192" class="hold">⌃</text>
<rect rx="6.0" ry="6.0" x="32.0" y="957.192" width="55.303999999999995" height="52.0" class=""/>
<rect rx="6.0" ry="6.0" x="91.30399999999999" y="917.6560000000001" width="55.303999999999995" height="52.0" class=""/>
<text x="118.95599999999999" y="943.6560000000001" class="tap">1</text>
<rect rx="6.0" ry="6.0" x="150.608" y="897.888" width="55.303999999999995" height="52.0" class=""/>
<text x="178.26" y="923.888" class="tap">2</text>
<rect rx="6.0" ry="6.0" x="209.91200000000003" y="919.7280000000001" width="55.303999999999995" height="52.0" class=""/>
<text x="237.56400000000002" y="945.7280000000001" class="tap">3</text>
<rect rx="6.0" ry="6.0" x="269.21599999999995" y="927.5120000000001" width="55.303999999999995" height="52.0" class=""/>
<rect rx="6.0" ry="6.0" x="522.784" y="927.5120000000001" width="55.303999999999995" height="52.0" class=""/>
<text x="550.436" y="953.5120000000001" class="tap">%</text>
<rect rx="6.0" ry="6.0" x="582.088" y="919.7280000000001" width="55.303999999999995" height="52.0" class=""/>
<text x="609.74" y="945.7280000000001" class="tap">-</text>
<text x="609.74" y="921.7280000000001" class="shifted">_</text>
<rect rx="6.0" ry="6.0" x="641.3919999999999" y="897.888" width="55.303999999999995" height="52.0" class=""/>
<text x="669.044" y="923.888" class="tap">,</text>
<text x="669.044" y="947.888" class="hold">MEH</text>
<text x="669.044" y="899.888" class="shifted">;</text>
<rect rx="6.0" ry="6.0" x="700.696" y="917.6560000000001" width="55.303999999999995" height="52.0" class=""/>
<text x="728.3480000000001" y="943.6560000000001" class="tap">.</text>
<text x="728.3480000000001" y="919.6560000000001" class="shifted">:</text>
<rect rx="6.0" ry="6.0" x="760.0" y="957.192" width="55.303999999999995" height="52.0" class=""/>
<text x="787.652" y="983.192" class="tap">/</text>
<text x="787.652" y="959.192" class="shifted">?</text>
<rect rx="6.0" ry="6.0" x="190.42400000000004" y="985.472" width="55.303999999999995" height="52.0" class=""/>
<text x="218.07600000000002" y="1011.472" class="tap">
<tspan x="218.07600000000002" dy="-1.2em">Cancel</tspan><tspan x="218.07600000000002" dy="1.2em">Num</tspan></text>
<text x="218.07600000000002" y="1035.472" class="hold">⌘</text>
<g transform="rotate(15.0, 284.18399999999997, 1019.984)">
<rect rx="6.0" ry="6.0" x="256.504" y="993.984" width="55.303999999999995" height="52.0" class=""/>
</g>
<g transform="rotate(30.0, 352.0, 1030.568)">
<rect rx="6.0" ry="6.0" x="324.376" y="988.104" width="52.0" height="84.928" class=""/>
</g>
<g transform="rotate(-30.0, 492.0, 1030.568)">
<rect rx="6.0" ry="6.0" x="467.624" y="988.104" width="52.0" height="84.928" class=""/>
</g>
<g transform="rotate(-15.0, 559.816, 1019.984)">
<rect rx="6.0" ry="6.0" x="535.496" y="993.984" width="55.303999999999995" height="52.0" class=""/>
</g>
<rect rx="6.0" ry="6.0" x="601.5759999999999" y="985.472" width="55.303999999999995" height="52.0" class="held"/>
<rect rx="6.0" ry="6.0" x="193.912" y="865.78" width="28.0" height="26.0" class="combo"/>
<text x="207.912" y="878.78" class="combo">(</text>
<rect rx="6.0" ry="6.0" x="625.392" y="865.78" width="28.0" height="26.0" class="combo"/>
<text x="639.392" y="878.78" class="combo">)</text>
<rect rx="6.0" ry="6.0" x="193.912" y="921.808" width="28.0" height="26.0" class="combo"/>
<text x="207.912" y="934.808" class="combo">[</text>
<rect rx="6.0" ry="6.0" x="625.392" y="921.808" width="28.0" height="26.0" class="combo"/>
<text x="639.392" y="934.808" class="combo">]</text>
<rect rx="6.0" ry="6.0" x="193.912" y="809.78" width="28.0" height="26.0" class="combo"/>
<text x="207.912" y="822.78" class="combo">{</text>
<rect rx="6.0" ry="6.0" x="625.392" y="809.78" width="28.0" height="26.0" class="combo"/>
<text x="639.392" y="822.78" class="combo">}</text>
<rect rx="6.0" ry="6.0" x="253.216" y="880.5920000000001" width="28.0" height="26.0" class="combo"/>
<text x="267.216" y="893.5920000000001" class="combo">&lt;</text>
<rect rx="6.0" ry="6.0" x="566.088" y="880.5920000000001" width="28.0" height="26.0" class="combo"/>
<text x="580.088" y="893.5920000000001" class="combo">&gt;</text>
<path d="M284.20266666666663,1092.832 h-60.12666666666661 a6.0,6.0 0 0 1 -6.0,-6.0 v-56.693333333333456"/>
<path d="M284.20266666666663,1092.832 h5.953333333333376 a6.0,6.0 0 0 1 -6.0,-6.0 v-55.64800000000007"/>
<path d="M284.20266666666663,1092.832 h60.173333333333346 a6.0,6.0 0 0 0 6.0,-6.0 v-26.621333333333457"/>
<rect rx="6.0" ry="6.0" x="270.20266666666663" y="1079.832" width="28.0" height="26.0" class="combo"/>
<text x="284.20266666666663" y="1092.832" class="combo">RET</text>
<rect rx="6.0" ry="6.0" x="303.26599999999996" y="1012.2760000000001" width="28.0" height="26.0" class="combo"/>
<text x="317.26599999999996" y="1025.276" class="combo">BSPC</text>
<path d="M178.26,904.672 h-53.304 a6.0,6.0 0 0 1 -6.0,-6.0 v7.650666666666705"/>
<path d="M178.26,904.672 h-6.0 a6.0,6.0 0 0 1 6.0,-6.0 v-19.583999999999993"/>
<path d="M178.26,904.672 h53.30400000000003 a6.0,6.0 0 0 0 6.0,-6.0 v9.666666666666668"/>
<rect rx="6.0" ry="6.0" x="164.26" y="891.672" width="28.0" height="26.0" class="combo"/>
<text x="178.26" y="904.672" class="combo">NAV</text>
</g>
<g class="layer-Sym">
<text x="30.0" y="1119.832" class="label">Sym:</text>
<rect rx="6.0" ry="6.0" x="32.0" y="1209.1360000000002" width="55.303999999999995" height="52.0" class=""/>
<text x="59.652" y="1235.1360000000002" class="tap">⌘Q</text>
<rect rx="6.0" ry="6.0" x="91.30399999999999" y="1169.6000000000001" width="55.303999999999995" height="52.0" class=""/>
<text x="118.95599999999999" y="1195.6000000000001" class="tap">⌘W</text>
<rect rx="6.0" ry="6.0" x="150.608" y="1149.832" width="55.303999999999995" height="52.0" class=""/>
<text x="178.26" y="1175.832" class="tap">⌃⇧↹</text>
<rect rx="6.0" ry="6.0" x="209.91200000000003" y="1171.6160000000002" width="55.303999999999995" height="52.0" class=""/>
<text x="237.56400000000002" y="1197.6160000000002" class="tap">⌃↹</text>
<rect rx="6.0" ry="6.0" x="269.21599999999995" y="1179.4560000000001" width="55.303999999999995" height="52.0" class=""/>
<text x="296.86799999999994" y="1205.4560000000001" class="tap">⌘`</text>
<rect rx="6.0" ry="6.0" x="522.784" y="1179.4560000000001" width="55.303999999999995" height="52.0" class=""/>
<text x="550.436" y="1205.4560000000001" class="tap">~</text>
<rect rx="6.0" ry="6.0" x="582.088" y="1171.6160000000002" width="55.303999999999995" height="52.0" class=""/>
<text x="609.74" y="1197.6160000000002" class="tap">$</text>
<rect rx="6.0" ry="6.0" x="641.3919999999999" y="1149.832" width="55.303999999999995" height="52.0" class=""/>
<text x="669.044" y="1175.832" class="tap">&amp;</text>
<rect rx="6.0" ry="6.0" x="700.696" y="1169.6000000000001" width="55.303999999999995" height="52.0" class=""/>
<text x="728.3480000000001" y="1195.6000000000001" class="tap">|</text>
<rect rx="6.0" ry="6.0" x="760.0" y="1209.1360000000002" width="55.303999999999995" height="52.0" class=""/>
<text x="787.652" y="1235.1360000000002" class="tap">`</text>
<text x="787.652" y="1211.1360000000002" class="shifted">^</text>
<rect rx="6.0" ry="6.0" x="32.0" y="1265.1360000000002" width="55.303999999999995" height="52.0" class=""/>
<text x="59.652" y="1291.1360000000002" class="tap">⌃</text>
<rect rx="6.0" ry="6.0" x="91.30399999999999" y="1225.6000000000001" width="55.303999999999995" height="52.0" class=""/>
<text x="118.95599999999999" y="1251.6000000000001" class="tap">⎇</text>
<rect rx="6.0" ry="6.0" x="150.608" y="1205.832" width="55.303999999999995" height="52.0" class=""/>
<text x="178.26" y="1231.832" class="tap">⌘</text>
<rect rx="6.0" ry="6.0" x="209.91200000000003" y="1227.6160000000002" width="55.303999999999995" height="52.0" class=""/>
<text x="237.56400000000002" y="1253.6160000000002" class="tap">⇧</text>
<rect rx="6.0" ry="6.0" x="269.21599999999995" y="1235.4560000000001" width="55.303999999999995" height="52.0" class=""/>
<text x="296.86799999999994" y="1261.4560000000001" class="tap">⌘↹</text>
<rect rx="6.0" ry="6.0" x="522.784" y="1235.4560000000001" width="55.303999999999995" height="52.0" class=""/>
<text x="550.436" y="1261.4560000000001" class="tap">+</text>
<rect rx="6.0" ry="6.0" x="582.088" y="1227.6160000000002" width="55.303999999999995" height="52.0" class=""/>
<text x="609.74" y="1253.6160000000002" class="tap">!</text>
<rect rx="6.0" ry="6.0" x="641.3919999999999" y="1205.832" width="55.303999999999995" height="52.0" class=""/>
<text x="669.044" y="1231.832" class="tap">=</text>
<text x="669.044" y="1207.832" class="shifted">+</text>
<rect rx="6.0" ry="6.0" x="700.696" y="1225.6000000000001" width="55.303999999999995" height="52.0" class=""/>
<text x="728.3480000000001" y="1251.6000000000001" class="tap">#</text>
<rect rx="6.0" ry="6.0" x="760.0" y="1265.1360000000002" width="55.303999999999995" height="52.0" class=""/>
<text x="787.652" y="1291.1360000000002" class="tap">*</text>
<rect rx="6.0" ry="6.0" x="32.0" y="1321.1360000000002" width="55.303999999999995" height="52.0" class=""/>
<text x="59.652" y="1347.1360000000002" class="tap">⌘Z</text>
<rect rx="6.0" ry="6.0" x="91.30399999999999" y="1281.6000000000001" width="55.303999999999995" height="52.0" class=""/>
<text x="118.95599999999999" y="1307.6000000000001" class="tap">⌘X</text>
<rect rx="6.0" ry="6.0" x="150.608" y="1261.832" width="55.303999999999995" height="52.0" class=""/>
<text x="178.26" y="1287.832" class="tap">⌘C</text>
<rect rx="6.0" ry="6.0" x="209.91200000000003" y="1283.672" width="55.303999999999995" height="52.0" class=""/>
<rect rx="6.0" ry="6.0" x="269.21599999999995" y="1291.4560000000001" width="55.303999999999995" height="52.0" class=""/>
<text x="296.86799999999994" y="1317.4560000000001" class="tap">⌘V</text>
<rect rx="6.0" ry="6.0" x="522.784" y="1291.4560000000001" width="55.303999999999995" height="52.0" class=""/>
<text x="550.436" y="1317.4560000000001" class="tap">%</text>
<rect rx="6.0" ry="6.0" x="582.088" y="1283.672" width="55.303999999999995" height="52.0" class=""/>
<text x="609.74" y="1309.672" class="tap">-</text>
<text x="609.74" y="1285.672" class="shifted">_</text>
<rect rx="6.0" ry="6.0" x="641.3919999999999" y="1261.832" width="55.303999999999995" height="52.0" class=""/>
<text x="669.044" y="1287.832" class="tap">_</text>
<rect rx="6.0" ry="6.0" x="700.696" y="1281.6000000000001" width="55.303999999999995" height="52.0" class=""/>
<text x="728.3480000000001" y="1307.6000000000001" class="tap">@</text>
<rect rx="6.0" ry="6.0" x="760.0" y="1321.1360000000002" width="55.303999999999995" height="52.0" class=""/>
<text x="787.652" y="1347.1360000000002" class="tap">\</text>
<text x="787.652" y="1323.1360000000002" class="shifted">|</text>
<rect rx="6.0" ry="6.0" x="190.42400000000004" y="1349.4160000000002" width="55.303999999999995" height="52.0" class=""/>
<text x="218.07600000000002" y="1375.4160000000002" class="tap">
<tspan x="218.07600000000002" dy="-1.2em">Cancel</tspan><tspan x="218.07600000000002" dy="1.2em">Sym</tspan></text>
<text x="218.07600000000002" y="1399.4160000000002" class="hold">⌘</text>
<g transform="rotate(15.0, 284.18399999999997, 1383.928)">
<rect rx="6.0" ry="6.0" x="256.504" y="1357.928" width="55.303999999999995" height="52.0" class="held"/>
</g>
<g transform="rotate(30.0, 352.0, 1394.5120000000002)">
<rect rx="6.0" ry="6.0" x="324.376" y="1352.0480000000002" width="52.0" height="84.928" class=""/>
</g>
<g transform="rotate(-30.0, 492.0, 1394.5120000000002)">
<rect rx="6.0" ry="6.0" x="467.624" y="1352.0480000000002" width="52.0" height="84.928" class=""/>
</g>
<g transform="rotate(-15.0, 559.816, 1383.928)">
<rect rx="6.0" ry="6.0" x="535.496" y="1357.928" width="55.303999999999995" height="52.0" class=""/>
</g>
<rect rx="6.0" ry="6.0" x="601.5759999999999" y="1349.4160000000002" width="55.303999999999995" height="52.0" class=""/>
<rect rx="6.0" ry="6.0" x="193.912" y="1229.7240000000002" width="28.0" height="26.0" class="combo"/>
<text x="207.912" y="1242.7240000000002" class="combo">(</text>
<rect rx="6.0" ry="6.0" x="625.392" y="1229.7240000000002" width="28.0" height="26.0" class="combo"/>
<text x="639.392" y="1242.7240000000002" class="combo">)</text>
<rect rx="6.0" ry="6.0" x="193.912" y="1285.7520000000002" width="28.0" height="26.0" class="combo"/>
<text x="207.912" y="1298.7520000000002" class="combo">[</text>
<rect rx="6.0" ry="6.0" x="625.392" y="1285.7520000000002" width="28.0" height="26.0" class="combo"/>
<text x="639.392" y="1298.7520000000002" class="combo">]</text>
<rect rx="6.0" ry="6.0" x="193.912" y="1173.7240000000002" width="28.0" height="26.0" class="combo"/>
<text x="207.912" y="1186.7240000000002" class="combo">{</text>
<rect rx="6.0" ry="6.0" x="625.392" y="1173.7240000000002" width="28.0" height="26.0" class="combo"/>
<text x="639.392" y="1186.7240000000002" class="combo">}</text>
<rect rx="6.0" ry="6.0" x="253.216" y="1244.536" width="28.0" height="26.0" class="combo"/>
<text x="267.216" y="1257.536" class="combo">&lt;</text>
<rect rx="6.0" ry="6.0" x="566.088" y="1244.536" width="28.0" height="26.0" class="combo"/>
<text x="580.088" y="1257.536" class="combo">&gt;</text>
<path d="M284.20266666666663,1456.776 h-60.12666666666661 a6.0,6.0 0 0 1 -6.0,-6.0 v-56.69333333333323"/>
<path d="M284.20266666666663,1456.776 h5.953333333333376 a6.0,6.0 0 0 1 -6.0,-6.0 v-55.64799999999995"/>
<path d="M284.20266666666663,1456.776 h60.173333333333346 a6.0,6.0 0 0 0 6.0,-6.0 v-26.62133333333323"/>
<rect rx="6.0" ry="6.0" x="270.20266666666663" y="1443.776" width="28.0" height="26.0" class="combo"/>
<text x="284.20266666666663" y="1456.776" class="combo">RET</text>
<rect rx="6.0" ry="6.0" x="303.26599999999996" y="1376.22" width="28.0" height="26.0" class="combo"/>
<text x="317.26599999999996" y="1389.22" class="combo">BSPC</text>
</g>
<g class="layer-Func">
<text x="30.0" y="1483.776" class="label">Func:</text>
<rect rx="6.0" ry="6.0" x="32.0" y="1573.0800000000002" width="55.303999999999995" height="52.0" class=""/>
<rect rx="6.0" ry="6.0" x="91.30399999999999" y="1533.544" width="55.303999999999995" height="52.0" class=""/>
<text x="118.95599999999999" y="1559.544" class="tap">F7</text>
<rect rx="6.0" ry="6.0" x="150.608" y="1513.776" width="55.303999999999995" height="52.0" class=""/>
<text x="178.26" y="1539.776" class="tap">F8</text>
<rect rx="6.0" ry="6.0" x="209.91200000000003" y="1535.5600000000002" width="55.303999999999995" height="52.0" class=""/>
<text x="237.56400000000002" y="1561.5600000000002" class="tap">F9</text>
<rect rx="6.0" ry="6.0" x="269.21599999999995" y="1543.4" width="55.303999999999995" height="52.0" class=""/>
<text x="296.86799999999994" y="1569.4" class="tap">F12</text>
<rect rx="6.0" ry="6.0" x="522.784" y="1543.4" width="55.303999999999995" height="52.0" class=""/>
<rect rx="6.0" ry="6.0" x="582.088" y="1535.5600000000002" width="55.303999999999995" height="52.0" class=""/>
<rect rx="6.0" ry="6.0" x="641.3919999999999" y="1513.776" width="55.303999999999995" height="52.0" class=""/>
<text x="669.044" y="1539.776" class="tap">HYPER</text>
<rect rx="6.0" ry="6.0" x="700.696" y="1533.544" width="55.303999999999995" height="52.0" class=""/>
<rect rx="6.0" ry="6.0" x="760.0" y="1573.0800000000002" width="55.303999999999995" height="52.0" class=""/>
<rect rx="6.0" ry="6.0" x="32.0" y="1629.0800000000002" width="55.303999999999995" height="52.0" class=""/>
<rect rx="6.0" ry="6.0" x="91.30399999999999" y="1589.544" width="55.303999999999995" height="52.0" class=""/>
<text x="118.95599999999999" y="1615.544" class="tap">F4</text>
<rect rx="6.0" ry="6.0" x="150.608" y="1569.776" width="55.303999999999995" height="52.0" class=""/>
<text x="178.26" y="1595.776" class="tap">F5</text>
<rect rx="6.0" ry="6.0" x="209.91200000000003" y="1591.5600000000002" width="55.303999999999995" height="52.0" class=""/>
<text x="237.56400000000002" y="1617.5600000000002" class="tap">F6</text>
<rect rx="6.0" ry="6.0" x="269.21599999999995" y="1599.4" width="55.303999999999995" height="52.0" class=""/>
<text x="296.86799999999994" y="1625.4" class="tap">F11</text>
<rect rx="6.0" ry="6.0" x="522.784" y="1599.4" width="55.303999999999995" height="52.0" class=""/>
<rect rx="6.0" ry="6.0" x="582.088" y="1591.5600000000002" width="55.303999999999995" height="52.0" class=""/>
<text x="609.74" y="1617.5600000000002" class="tap">⇧</text>
<rect rx="6.0" ry="6.0" x="641.3919999999999" y="1569.776" width="55.303999999999995" height="52.0" class=""/>
<text x="669.044" y="1595.776" class="tap">⌘</text>
<rect rx="6.0" ry="6.0" x="700.696" y="1589.544" width="55.303999999999995" height="52.0" class=""/>
<text x="728.3480000000001" y="1615.544" class="tap">⎇</text>
<rect rx="6.0" ry="6.0" x="760.0" y="1629.0800000000002" width="55.303999999999995" height="52.0" class=""/>
<text x="787.652" y="1655.0800000000002" class="tap">⌃</text>
<rect rx="6.0" ry="6.0" x="32.0" y="1685.0800000000002" width="55.303999999999995" height="52.0" class=""/>
<rect rx="6.0" ry="6.0" x="91.30399999999999" y="1645.544" width="55.303999999999995" height="52.0" class=""/>
<text x="118.95599999999999" y="1671.544" class="tap">F1</text>
<rect rx="6.0" ry="6.0" x="150.608" y="1625.776" width="55.303999999999995" height="52.0" class=""/>
<text x="178.26" y="1651.776" class="tap">F2</text>
<rect rx="6.0" ry="6.0" x="209.91200000000003" y="1647.616" width="55.303999999999995" height="52.0" class=""/>
<text x="237.56400000000002" y="1673.616" class="tap">F3</text>
<rect rx="6.0" ry="6.0" x="269.21599999999995" y="1655.4" width="55.303999999999995" height="52.0" class=""/>
<text x="296.86799999999994" y="1681.4" class="tap">F10</text>
<rect rx="6.0" ry="6.0" x="522.784" y="1655.4" width="55.303999999999995" height="52.0" class=""/>
<rect rx="6.0" ry="6.0" x="582.088" y="1647.616" width="55.303999999999995" height="52.0" class=""/>
<rect rx="6.0" ry="6.0" x="641.3919999999999" y="1625.776" width="55.303999999999995" height="52.0" class=""/>
<text x="669.044" y="1651.776" class="tap">MEH</text>
<rect rx="6.0" ry="6.0" x="700.696" y="1645.544" width="55.303999999999995" height="52.0" class=""/>
<rect rx="6.0" ry="6.0" x="760.0" y="1685.0800000000002" width="55.303999999999995" height="52.0" class=""/>
<rect rx="6.0" ry="6.0" x="190.42400000000004" y="1713.3600000000001" width="55.303999999999995" height="52.0" class=""/>
<text x="218.07600000000002" y="1739.3600000000001" class="tap">
<tspan x="218.07600000000002" dy="-1.2em">Cancel</tspan><tspan x="218.07600000000002" dy="1.2em">Func</tspan></text>
<text x="218.07600000000002" y="1763.3600000000001" class="hold">⌘</text>
<g transform="rotate(15.0, 284.18399999999997, 1747.872)">
<rect rx="6.0" ry="6.0" x="256.504" y="1721.872" width="55.303999999999995" height="52.0" class="held"/>
</g>
<g transform="rotate(30.0, 352.0, 1758.4560000000001)">
<rect rx="6.0" ry="6.0" x="324.376" y="1715.9920000000002" width="52.0" height="84.928" class=""/>
</g>
<g transform="rotate(-30.0, 492.0, 1758.4560000000001)">
<rect rx="6.0" ry="6.0" x="467.624" y="1715.9920000000002" width="52.0" height="84.928" class=""/>
</g>
<g transform="rotate(-15.0, 559.816, 1747.872)">
<rect rx="6.0" ry="6.0" x="535.496" y="1721.872" width="55.303999999999995" height="52.0" class=""/>
</g>
<rect rx="6.0" ry="6.0" x="601.5759999999999" y="1713.3600000000001" width="55.303999999999995" height="52.0" class="held"/>
</g>
<g class="layer-Adjust">
<text x="30.0" y="1830.92" class="label">Adjust:</text>
<rect rx="6.0" ry="6.0" x="32.0" y="1920.2240000000002" width="55.303999999999995" height="52.0" class=""/>
<text x="59.652" y="1946.2240000000002" class="tap">⌘Q</text>
<rect rx="6.0" ry="6.0" x="91.30399999999999" y="1880.688" width="55.303999999999995" height="52.0" class=""/>
<text x="118.95599999999999" y="1906.688" class="tap">⌘W</text>
<rect rx="6.0" ry="6.0" x="150.608" y="1860.92" width="55.303999999999995" height="52.0" class=""/>
<rect rx="6.0" ry="6.0" x="209.91200000000003" y="1882.7040000000002" width="55.303999999999995" height="52.0" class=""/>
<rect rx="6.0" ry="6.0" x="269.21599999999995" y="1890.544" width="55.303999999999995" height="52.0" class=""/>
<text x="296.86799999999994" y="1916.544" class="tap">⌘`</text>
<rect rx="6.0" ry="6.0" x="522.784" y="1890.544" width="55.303999999999995" height="52.0" class=""/>
<text x="550.436" y="1916.544" class="tap">
<tspan x="550.436" dy="-0.6em">BT</tspan><tspan x="550.436" dy="1.2em">CLR</tspan></text>
<rect rx="6.0" ry="6.0" x="582.088" y="1882.7040000000002" width="55.303999999999995" height="52.0" class=""/>
<text x="609.74" y="1908.7040000000002" class="tap">
<tspan x="609.74" dy="-0.6em">BT</tspan><tspan x="609.74" dy="1.2em">PRV</tspan></text>
<rect rx="6.0" ry="6.0" x="641.3919999999999" y="1860.92" width="55.303999999999995" height="52.0" class=""/>
<text x="669.044" y="1886.92" class="tap">
<tspan x="669.044" dy="-0.6em">BT</tspan><tspan x="669.044" dy="1.2em">NXT</tspan></text>
<rect rx="6.0" ry="6.0" x="700.696" y="1880.688" width="55.303999999999995" height="52.0" class=""/>
<text x="728.3480000000001" y="1906.688" class="tap">
<tspan x="728.3480000000001" dy="-1.7999999999999998em">EXT</tspan><tspan x="728.3480000000001" dy="1.2em">POWER</tspan><tspan x="728.3480000000001" dy="1.2em">TOGGLE</tspan><tspan x="728.3480000000001" dy="1.2em">CMD</tspan></text>
<rect rx="6.0" ry="6.0" x="760.0" y="1920.2240000000002" width="55.303999999999995" height="52.0" class=""/>
<text x="787.652" y="1946.2240000000002" class="tap">Base</text>
<rect rx="6.0" ry="6.0" x="32.0" y="1976.2240000000002" width="55.303999999999995" height="52.0" class=""/>
<rect rx="6.0" ry="6.0" x="91.30399999999999" y="1936.688" width="55.303999999999995" height="52.0" class=""/>
<rect rx="6.0" ry="6.0" x="150.608" y="1916.92" width="55.303999999999995" height="52.0" class=""/>
<rect rx="6.0" ry="6.0" x="209.91200000000003" y="1938.7040000000002" width="55.303999999999995" height="52.0" class=""/>
<rect rx="6.0" ry="6.0" x="269.21599999999995" y="1946.544" width="55.303999999999995" height="52.0" class=""/>
<text x="296.86799999999994" y="1972.544" class="tap">⌘↹</text>
<rect rx="6.0" ry="6.0" x="522.784" y="1946.544" width="55.303999999999995" height="52.0" class=""/>
<text x="550.436" y="1972.544" class="tap">
<tspan x="550.436" dy="-0.6em">VOL</tspan><tspan x="550.436" dy="1.2em">MUTE</tspan></text>
<rect rx="6.0" ry="6.0" x="582.088" y="1938.7040000000002" width="55.303999999999995" height="52.0" class=""/>
<text x="609.74" y="1964.7040000000002" class="tap">⏮</text>
<rect rx="6.0" ry="6.0" x="641.3919999999999" y="1916.92" width="55.303999999999995" height="52.0" class=""/>
<text x="669.044" y="1942.92" class="tap">
<tspan x="669.044" dy="-0.6em">VOL</tspan><tspan x="669.044" dy="1.2em">DOWN</tspan></text>
<rect rx="6.0" ry="6.0" x="700.696" y="1936.688" width="55.303999999999995" height="52.0" class=""/>
<text x="728.3480000000001" y="1962.688" class="tap">
<tspan x="728.3480000000001" dy="-0.6em">VOL</tspan><tspan x="728.3480000000001" dy="1.2em">UP</tspan></text>
<rect rx="6.0" ry="6.0" x="760.0" y="1976.2240000000002" width="55.303999999999995" height="52.0" class=""/>
<text x="787.652" y="2002.2240000000002" class="tap">⏭</text>
<rect rx="6.0" ry="6.0" x="32.0" y="2032.2240000000002" width="55.303999999999995" height="52.0" class=""/>
<text x="59.652" y="2058.224" class="tap">⌘Z</text>
<rect rx="6.0" ry="6.0" x="91.30399999999999" y="1992.688" width="55.303999999999995" height="52.0" class=""/>
<text x="118.95599999999999" y="2018.688" class="tap">⌘X</text>
<rect rx="6.0" ry="6.0" x="150.608" y="1972.92" width="55.303999999999995" height="52.0" class=""/>
<text x="178.26" y="1998.92" class="tap">⌘C</text>
<rect rx="6.0" ry="6.0" x="209.91200000000003" y="1994.76" width="55.303999999999995" height="52.0" class=""/>
<rect rx="6.0" ry="6.0" x="269.21599999999995" y="2002.544" width="55.303999999999995" height="52.0" class=""/>
<text x="296.86799999999994" y="2028.544" class="tap">⌘V</text>
<rect rx="6.0" ry="6.0" x="522.784" y="2002.544" width="55.303999999999995" height="52.0" class=""/>
<rect rx="6.0" ry="6.0" x="582.088" y="1994.76" width="55.303999999999995" height="52.0" class=""/>
<text x="609.74" y="2020.76" class="tap">⏯</text>
<rect rx="6.0" ry="6.0" x="641.3919999999999" y="1972.92" width="55.303999999999995" height="52.0" class=""/>
<text x="669.044" y="1998.92" class="tap">☀↓</text>
<rect rx="6.0" ry="6.0" x="700.696" y="1992.688" width="55.303999999999995" height="52.0" class=""/>
<text x="728.3480000000001" y="2018.688" class="tap">☀↑</text>
<rect rx="6.0" ry="6.0" x="760.0" y="2032.2240000000002" width="55.303999999999995" height="52.0" class=""/>
<rect rx="6.0" ry="6.0" x="190.42400000000004" y="2060.504" width="55.303999999999995" height="52.0" class=""/>
<text x="218.07600000000002" y="2086.504" class="tap">
<tspan x="218.07600000000002" dy="-1.2em">Cancel</tspan><tspan x="218.07600000000002" dy="1.2em">Adjust</tspan></text>
<text x="218.07600000000002" y="2110.504" class="hold">⌘</text>
<g transform="rotate(15.0, 284.18399999999997, 2095.016)">
<rect rx="6.0" ry="6.0" x="256.504" y="2069.016" width="55.303999999999995" height="52.0" class=""/>
</g>
<g transform="rotate(30.0, 352.0, 2105.6)">
<rect rx="6.0" ry="6.0" x="324.376" y="2063.136" width="52.0" height="84.928" class="held"/>
</g>
<g transform="rotate(-30.0, 492.0, 2105.6)">
<rect rx="6.0" ry="6.0" x="467.624" y="2063.136" width="52.0" height="84.928" class=""/>
</g>
<g transform="rotate(-15.0, 559.816, 2095.016)">
<rect rx="6.0" ry="6.0" x="535.496" y="2069.016" width="55.303999999999995" height="52.0" class=""/>
</g>
<rect rx="6.0" ry="6.0" x="601.5759999999999" y="2060.504" width="55.303999999999995" height="52.0" class=""/>
</g>
</svg>
