<svg width="847.3040000000001" height="1444.576" viewBox="0 0 847.3040000000001 1444.576" xmlns="http://www.w3.org/2000/svg">
<style>/* font and background color specifications */
svg {
    font-family: SFMono-Regular,Consolas,Liberation Mono,Menlo,monospace;
    font-size: 14px;
    font-kerning: normal;
    text-rendering: optimizeLegibility;
    fill: #24292e;
}

/* default key styling */
rect {
    fill: #f6f8fa;
    stroke: #c9cccf;
    stroke-width: 1;
}

/* color accent for combo boxes */
rect.combo {
    fill: #cdf;
}

/* color accent for held keys */
rect.held, rect.combo.held {
    fill: #fdd;
}

/* color accent for ghost (optional) keys */
rect.ghost, rect.combo.ghost {
    fill: #ddd;
}

text {
    text-anchor: middle;
    dominant-baseline: middle;
}

/* styling for layer labels */
text.label {
    font-weight: bold;
    text-anchor: start;
    stroke: white;
    stroke-width: 2;
    paint-order: stroke;
}

/* styling for combo tap, and key hold/shifted label text */
text.combo, text.hold, text.shifted {
    font-size: 11px;
}

text.hold {
    text-anchor: middle;
    dominant-baseline: auto;
}

text.shifted {
    text-anchor: middle;
    dominant-baseline: hanging;
}

/* styling for hold/shifted label text in combo box */
text.combo.hold, text.combo.shifted {
    font-size: 8px;
}

/* styling for combo dendrons */
path {
    stroke-width: 1;
    stroke: gray;
    fill: none;
}
</style>
<g class="layer-abc">
<text x="30.0" y="28.0" class="label">abc:</text>
<rect rx="6.0" ry="6.0" x="32.0" y="117.304" width="55.303999999999995" height="52.0" class=""/>
<text x="59.652" y="143.304" class="tap">Q</text>
<rect rx="6.0" ry="6.0" x="91.30399999999999" y="77.768" width="55.303999999999995" height="52.0" class=""/>
<text x="118.95599999999999" y="103.768" class="tap">W</text>
<rect rx="6.0" ry="6.0" x="150.608" y="58.0" width="55.303999999999995" height="52.0" class=""/>
<text x="178.26" y="84.0" class="tap">E</text>
<rect rx="6.0" ry="6.0" x="209.91200000000003" y="79.78399999999999" width="55.303999999999995" height="52.0" class=""/>
<text x="237.56400000000002" y="105.78399999999999" class="tap">R</text>
<rect rx="6.0" ry="6.0" x="269.21599999999995" y="87.624" width="55.303999999999995" height="52.0" class=""/>
<text x="296.86799999999994" y="113.624" class="tap">T</text>
<rect rx="6.0" ry="6.0" x="522.784" y="87.624" width="55.303999999999995" height="52.0" class=""/>
<text x="550.436" y="113.624" class="tap">Y</text>
<rect rx="6.0" ry="6.0" x="582.088" y="79.78399999999999" width="55.303999999999995" height="52.0" class=""/>
<text x="609.74" y="105.78399999999999" class="tap">U</text>
<rect rx="6.0" ry="6.0" x="641.3919999999999" y="58.0" width="55.303999999999995" height="52.0" class=""/>
<text x="669.044" y="84.0" class="tap">I</text>
<rect rx="6.0" ry="6.0" x="700.696" y="77.768" width="55.303999999999995" height="52.0" class=""/>
<text x="728.3480000000001" y="103.768" class="tap">O</text>
<rect rx="6.0" ry="6.0" x="760.0" y="117.304" width="55.303999999999995" height="52.0" class=""/>
<text x="787.652" y="143.304" class="tap">P</text>
<rect rx="6.0" ry="6.0" x="32.0" y="173.304" width="55.303999999999995" height="52.0" class=""/>
<text x="59.652" y="199.304" class="tap">A</text>
<text x="59.652" y="223.304" class="hold">⎇</text>
<rect rx="6.0" ry="6.0" x="91.30399999999999" y="133.768" width="55.303999999999995" height="52.0" class=""/>
<text x="118.95599999999999" y="159.768" class="tap">S</text>
<text x="118.95599999999999" y="183.768" class="hold">⌃</text>
<rect rx="6.0" ry="6.0" x="150.608" y="114.0" width="55.303999999999995" height="52.0" class=""/>
<text x="178.26" y="140.0" class="tap">D</text>
<text x="178.26" y="164.0" class="hold">⌘</text>
<rect rx="6.0" ry="6.0" x="209.91200000000003" y="135.784" width="55.303999999999995" height="52.0" class=""/>
<text x="237.56400000000002" y="161.784" class="tap">F</text>
<rect rx="6.0" ry="6.0" x="269.21599999999995" y="143.624" width="55.303999999999995" height="52.0" class=""/>
<text x="296.86799999999994" y="169.624" class="tap">G</text>
<rect rx="6.0" ry="6.0" x="522.784" y="143.624" width="55.303999999999995" height="52.0" class=""/>
<text x="550.436" y="169.624" class="tap">H</text>
<rect rx="6.0" ry="6.0" x="582.088" y="135.784" width="55.303999999999995" height="52.0" class=""/>
<text x="609.74" y="161.784" class="tap">J</text>
<rect rx="6.0" ry="6.0" x="641.3919999999999" y="114.0" width="55.303999999999995" height="52.0" class=""/>
<text x="669.044" y="140.0" class="tap">K</text>
<text x="669.044" y="164.0" class="hold">⌘</text>
<rect rx="6.0" ry="6.0" x="700.696" y="133.768" width="55.303999999999995" height="52.0" class=""/>
<text x="728.3480000000001" y="159.768" class="tap">L</text>
<text x="728.3480000000001" y="183.768" class="hold">⌃</text>
<rect rx="6.0" ry="6.0" x="760.0" y="173.304" width="55.303999999999995" height="52.0" class=""/>
<text x="787.652" y="199.304" class="tap">;</text>
<text x="787.652" y="223.304" class="hold">⎇</text>
<text x="787.652" y="175.304" class="shifted">:</text>
<rect rx="6.0" ry="6.0" x="32.0" y="229.304" width="55.303999999999995" height="52.0" class=""/>
<text x="59.652" y="255.304" class="tap">Z</text>
<rect rx="6.0" ry="6.0" x="91.30399999999999" y="189.768" width="55.303999999999995" height="52.0" class=""/>
<text x="118.95599999999999" y="215.768" class="tap">X</text>
<rect rx="6.0" ry="6.0" x="150.608" y="170.0" width="55.303999999999995" height="52.0" class=""/>
<text x="178.26" y="196.0" class="tap">C</text>
<rect rx="6.0" ry="6.0" x="209.91200000000003" y="191.84" width="55.303999999999995" height="52.0" class=""/>
<text x="237.56400000000002" y="217.84" class="tap">V</text>
<rect rx="6.0" ry="6.0" x="269.21599999999995" y="199.624" width="55.303999999999995" height="52.0" class=""/>
<text x="296.86799999999994" y="225.624" class="tap">B</text>
<rect rx="6.0" ry="6.0" x="522.784" y="199.624" width="55.303999999999995" height="52.0" class=""/>
<text x="550.436" y="225.624" class="tap">N</text>
<rect rx="6.0" ry="6.0" x="582.088" y="191.84" width="55.303999999999995" height="52.0" class=""/>
<text x="609.74" y="217.84" class="tap">M</text>
<rect rx="6.0" ry="6.0" x="641.3919999999999" y="170.0" width="55.303999999999995" height="52.0" class=""/>
<text x="669.044" y="196.0" class="tap">,</text>
<text x="669.044" y="172.0" class="shifted">&lt;</text>
<rect rx="6.0" ry="6.0" x="700.696" y="189.768" width="55.303999999999995" height="52.0" class=""/>
<text x="728.3480000000001" y="215.768" class="tap">.</text>
<text x="728.3480000000001" y="191.768" class="shifted">&gt;</text>
<rect rx="6.0" ry="6.0" x="760.0" y="229.304" width="55.303999999999995" height="52.0" class=""/>
<text x="787.652" y="255.304" class="tap">/</text>
<rect rx="6.0" ry="6.0" x="190.42400000000004" y="257.584" width="55.303999999999995" height="52.0" class=""/>
<g transform="rotate(15.0, 284.18399999999997, 292.096)">
<rect rx="6.0" ry="6.0" x="256.504" y="266.096" width="55.303999999999995" height="52.0" class=""/>
<text x="284.156" y="292.096" class="tap">BSPC</text>
<text x="284.156" y="316.096" class="hold">hjkl</text>
</g>
<g transform="rotate(30.0, 352.0, 302.68)">
<rect rx="6.0" ry="6.0" x="324.376" y="260.216" width="52.0" height="84.928" class=""/>
<text x="350.376" y="302.68" class="tap">⇧</text>
</g>
<g transform="rotate(-30.0, 492.0, 302.68)">
<rect rx="6.0" ry="6.0" x="467.624" y="260.216" width="52.0" height="84.928" class=""/>
<text x="493.624" y="302.68" class="tap">RET</text>
</g>
<g transform="rotate(-15.0, 559.816, 292.096)">
<rect rx="6.0" ry="6.0" x="535.496" y="266.096" width="55.303999999999995" height="52.0" class=""/>
<text x="563.148" y="292.096" class="tap">SPACE</text>
<text x="563.148" y="316.096" class="hold">123</text>
</g>
<rect rx="6.0" ry="6.0" x="601.5759999999999" y="257.584" width="55.303999999999995" height="52.0" class=""/>
<rect rx="6.0" ry="6.0" x="625.392" y="137.892" width="28.0" height="26.0" class="combo"/>
<text x="639.392" y="150.892" class="combo">ESC</text>
<rect rx="6.0" ry="6.0" x="134.608" y="136.88400000000001" width="28.0" height="26.0" class="combo"/>
<text x="148.608" y="149.88400000000001" class="combo">↹</text>
</g>
<g class="layer-123">
<text x="30.0" y="375.144" class="label">123:</text>
<rect rx="6.0" ry="6.0" x="32.0" y="464.448" width="55.303999999999995" height="52.0" class=""/>
<text x="59.652" y="490.448" class="tap">1</text>
<rect rx="6.0" ry="6.0" x="91.30399999999999" y="424.91200000000003" width="55.303999999999995" height="52.0" class=""/>
<text x="118.95599999999999" y="450.91200000000003" class="tap">2</text>
<rect rx="6.0" ry="6.0" x="150.608" y="405.144" width="55.303999999999995" height="52.0" class=""/>
<text x="178.26" y="431.144" class="tap">3</text>
<rect rx="6.0" ry="6.0" x="209.91200000000003" y="426.928" width="55.303999999999995" height="52.0" class=""/>
<text x="237.56400000000002" y="452.928" class="tap">4</text>
<rect rx="6.0" ry="6.0" x="269.21599999999995" y="434.76800000000003" width="55.303999999999995" height="52.0" class=""/>
<text x="296.86799999999994" y="460.76800000000003" class="tap">5</text>
<rect rx="6.0" ry="6.0" x="522.784" y="434.76800000000003" width="55.303999999999995" height="52.0" class=""/>
<text x="550.436" y="460.76800000000003" class="tap">6</text>
<rect rx="6.0" ry="6.0" x="582.088" y="426.928" width="55.303999999999995" height="52.0" class=""/>
<text x="609.74" y="452.928" class="tap">7</text>
<rect rx="6.0" ry="6.0" x="641.3919999999999" y="405.144" width="55.303999999999995" height="52.0" class=""/>
<text x="669.044" y="431.144" class="tap">8</text>
<rect rx="6.0" ry="6.0" x="700.696" y="424.91200000000003" width="55.303999999999995" height="52.0" class=""/>
<text x="728.3480000000001" y="450.91200000000003" class="tap">9</text>
<rect rx="6.0" ry="6.0" x="760.0" y="464.448" width="55.303999999999995" height="52.0" class=""/>
<text x="787.652" y="490.448" class="tap">0</text>
<rect rx="6.0" ry="6.0" x="32.0" y="520.448" width="55.303999999999995" height="52.0" class=""/>
<text x="59.652" y="546.448" class="tap">⎇</text>
<rect rx="6.0" ry="6.0" x="91.30399999999999" y="480.91200000000003" width="55.303999999999995" height="52.0" class=""/>
<text x="118.95599999999999" y="506.91200000000003" class="tap">⌃</text>
<rect rx="6.0" ry="6.0" x="150.608" y="461.144" width="55.303999999999995" height="52.0" class=""/>
<text x="178.26" y="487.144" class="tap">⌘</text>
<rect rx="6.0" ry="6.0" x="209.91200000000003" y="482.928" width="55.303999999999995" height="52.0" class=""/>
<rect rx="6.0" ry="6.0" x="269.21599999999995" y="490.76800000000003" width="55.303999999999995" height="52.0" class=""/>
<rect rx="6.0" ry="6.0" x="522.784" y="490.76800000000003" width="55.303999999999995" height="52.0" class=""/>
<text x="550.436" y="516.768" class="tap">\</text>
<rect rx="6.0" ry="6.0" x="582.088" y="482.928" width="55.303999999999995" height="52.0" class=""/>
<text x="609.74" y="508.928" class="tap">-</text>
<text x="609.74" y="484.928" class="shifted">_</text>
<rect rx="6.0" ry="6.0" x="641.3919999999999" y="461.144" width="55.303999999999995" height="52.0" class=""/>
<text x="669.044" y="487.144" class="tap">=</text>
<text x="669.044" y="463.144" class="shifted">+</text>
<rect rx="6.0" ry="6.0" x="700.696" y="480.91200000000003" width="55.303999999999995" height="52.0" class=""/>
<text x="728.3480000000001" y="506.91200000000003" class="tap">[</text>
<text x="728.3480000000001" y="482.91200000000003" class="shifted">{</text>
<rect rx="6.0" ry="6.0" x="760.0" y="520.448" width="55.303999999999995" height="52.0" class=""/>
<text x="787.652" y="546.448" class="tap">]</text>
<text x="787.652" y="522.448" class="shifted">}</text>
<rect rx="6.0" ry="6.0" x="32.0" y="576.448" width="55.303999999999995" height="52.0" class=""/>
<rect rx="6.0" ry="6.0" x="91.30399999999999" y="536.912" width="55.303999999999995" height="52.0" class=""/>
<rect rx="6.0" ry="6.0" x="150.608" y="517.144" width="55.303999999999995" height="52.0" class=""/>
<rect rx="6.0" ry="6.0" x="209.91200000000003" y="538.984" width="55.303999999999995" height="52.0" class=""/>
<rect rx="6.0" ry="6.0" x="269.21599999999995" y="546.768" width="55.303999999999995" height="52.0" class=""/>
<rect rx="6.0" ry="6.0" x="522.784" y="546.768" width="55.303999999999995" height="52.0" class=""/>
<text x="550.436" y="572.768" class="tap">`</text>
<text x="550.436" y="548.768" class="shifted">~</text>
<rect rx="6.0" ry="6.0" x="582.088" y="538.984" width="55.303999999999995" height="52.0" class=""/>
<text x="609.74" y="564.984" class="tap">&#x27;</text>
<rect rx="6.0" ry="6.0" x="641.3919999999999" y="517.144" width="55.303999999999995" height="52.0" class=""/>
<rect rx="6.0" ry="6.0" x="700.696" y="536.912" width="55.303999999999995" height="52.0" class=""/>
<rect rx="6.0" ry="6.0" x="760.0" y="576.448" width="55.303999999999995" height="52.0" class=""/>
<rect rx="6.0" ry="6.0" x="190.42400000000004" y="604.7280000000001" width="55.303999999999995" height="52.0" class=""/>
<g transform="rotate(15.0, 284.18399999999997, 639.24)">
<rect rx="6.0" ry="6.0" x="256.504" y="613.24" width="55.303999999999995" height="52.0" class=""/>
<text x="284.156" y="639.24" class="tap">BSPC</text>
<text x="284.156" y="663.24" class="hold">ext</text>
</g>
<g transform="rotate(30.0, 352.0, 649.8240000000001)">
<rect rx="6.0" ry="6.0" x="324.376" y="607.3600000000001" width="52.0" height="84.928" class=""/>
</g>
<g transform="rotate(-30.0, 492.0, 649.8240000000001)">
<rect rx="6.0" ry="6.0" x="467.624" y="607.3600000000001" width="52.0" height="84.928" class=""/>
</g>
<g transform="rotate(-15.0, 559.816, 639.24)">
<rect rx="6.0" ry="6.0" x="535.496" y="613.24" width="55.303999999999995" height="52.0" class="held"/>
</g>
<rect rx="6.0" ry="6.0" x="601.5759999999999" y="604.7280000000001" width="55.303999999999995" height="52.0" class=""/>
</g>
<g class="layer-hjkl">
<text x="30.0" y="722.288" class="label">hjkl:</text>
<rect rx="6.0" ry="6.0" x="32.0" y="811.592" width="55.303999999999995" height="52.0" class=""/>
<rect rx="6.0" ry="6.0" x="91.30399999999999" y="772.056" width="55.303999999999995" height="52.0" class=""/>
<rect rx="6.0" ry="6.0" x="150.608" y="752.288" width="55.303999999999995" height="52.0" class=""/>
<rect rx="6.0" ry="6.0" x="209.91200000000003" y="774.072" width="55.303999999999995" height="52.0" class=""/>
<rect rx="6.0" ry="6.0" x="269.21599999999995" y="781.912" width="55.303999999999995" height="52.0" class=""/>
<rect rx="6.0" ry="6.0" x="522.784" y="781.912" width="55.303999999999995" height="52.0" class=""/>
<rect rx="6.0" ry="6.0" x="582.088" y="774.072" width="55.303999999999995" height="52.0" class=""/>
<rect rx="6.0" ry="6.0" x="641.3919999999999" y="752.288" width="55.303999999999995" height="52.0" class=""/>
<rect rx="6.0" ry="6.0" x="700.696" y="772.056" width="55.303999999999995" height="52.0" class=""/>
<rect rx="6.0" ry="6.0" x="760.0" y="811.592" width="55.303999999999995" height="52.0" class=""/>
<rect rx="6.0" ry="6.0" x="32.0" y="867.592" width="55.303999999999995" height="52.0" class=""/>
<text x="59.652" y="893.592" class="tap">⎇</text>
<rect rx="6.0" ry="6.0" x="91.30399999999999" y="828.056" width="55.303999999999995" height="52.0" class=""/>
<text x="118.95599999999999" y="854.056" class="tap">⌃</text>
<rect rx="6.0" ry="6.0" x="150.608" y="808.288" width="55.303999999999995" height="52.0" class=""/>
<text x="178.26" y="834.288" class="tap">⌘</text>
<rect rx="6.0" ry="6.0" x="209.91200000000003" y="830.072" width="55.303999999999995" height="52.0" class=""/>
<rect rx="6.0" ry="6.0" x="269.21599999999995" y="837.912" width="55.303999999999995" height="52.0" class=""/>
<rect rx="6.0" ry="6.0" x="522.784" y="837.912" width="55.303999999999995" height="52.0" class=""/>
<text x="550.436" y="863.912" class="tap">←</text>
<rect rx="6.0" ry="6.0" x="582.088" y="830.072" width="55.303999999999995" height="52.0" class=""/>
<text x="609.74" y="856.072" class="tap">↓</text>
<rect rx="6.0" ry="6.0" x="641.3919999999999" y="808.288" width="55.303999999999995" height="52.0" class=""/>
<text x="669.044" y="834.288" class="tap">↑</text>
<rect rx="6.0" ry="6.0" x="700.696" y="828.056" width="55.303999999999995" height="52.0" class=""/>
<text x="728.3480000000001" y="854.056" class="tap">→</text>
<rect rx="6.0" ry="6.0" x="760.0" y="867.592" width="55.303999999999995" height="52.0" class=""/>
<rect rx="6.0" ry="6.0" x="32.0" y="923.592" width="55.303999999999995" height="52.0" class=""/>
<rect rx="6.0" ry="6.0" x="91.30399999999999" y="884.056" width="55.303999999999995" height="52.0" class=""/>
<rect rx="6.0" ry="6.0" x="150.608" y="864.288" width="55.303999999999995" height="52.0" class=""/>
<rect rx="6.0" ry="6.0" x="209.91200000000003" y="886.128" width="55.303999999999995" height="52.0" class=""/>
<rect rx="6.0" ry="6.0" x="269.21599999999995" y="893.912" width="55.303999999999995" height="52.0" class=""/>
<rect rx="6.0" ry="6.0" x="522.784" y="893.912" width="55.303999999999995" height="52.0" class=""/>
<text x="550.436" y="919.912" class="tap">HOME</text>
<rect rx="6.0" ry="6.0" x="582.088" y="886.128" width="55.303999999999995" height="52.0" class=""/>
<text x="609.74" y="912.128" class="tap">
<tspan x="609.74" dy="-0.6em">PG</tspan><tspan x="609.74" dy="1.2em">DN</tspan></text>
<rect rx="6.0" ry="6.0" x="641.3919999999999" y="864.288" width="55.303999999999995" height="52.0" class=""/>
<text x="669.044" y="890.288" class="tap">
<tspan x="669.044" dy="-0.6em">PG</tspan><tspan x="669.044" dy="1.2em">UP</tspan></text>
<rect rx="6.0" ry="6.0" x="700.696" y="884.056" width="55.303999999999995" height="52.0" class=""/>
<text x="728.3480000000001" y="910.056" class="tap">END</text>
<rect rx="6.0" ry="6.0" x="760.0" y="923.592" width="55.303999999999995" height="52.0" class=""/>
<rect rx="6.0" ry="6.0" x="190.42400000000004" y="951.8720000000001" width="55.303999999999995" height="52.0" class=""/>
<g transform="rotate(15.0, 284.18399999999997, 986.384)">
<rect rx="6.0" ry="6.0" x="256.504" y="960.384" width="55.303999999999995" height="52.0" class="held"/>
</g>
<g transform="rotate(30.0, 352.0, 996.9680000000001)">
<rect rx="6.0" ry="6.0" x="324.376" y="954.5040000000001" width="52.0" height="84.928" class=""/>
</g>
<g transform="rotate(-30.0, 492.0, 996.9680000000001)">
<rect rx="6.0" ry="6.0" x="467.624" y="954.5040000000001" width="52.0" height="84.928" class=""/>
</g>
<g transform="rotate(-15.0, 559.816, 986.384)">
<rect rx="6.0" ry="6.0" x="535.496" y="960.384" width="55.303999999999995" height="52.0" class=""/>
<text x="563.148" y="986.384" class="tap">SPACE</text>
<text x="563.148" y="1010.384" class="hold">ext</text>
</g>
<rect rx="6.0" ry="6.0" x="601.5759999999999" y="951.8720000000001" width="55.303999999999995" height="52.0" class=""/>
</g>
<g class="layer-ext">
<text x="30.0" y="1069.432" class="label">ext:</text>
<rect rx="6.0" ry="6.0" x="32.0" y="1158.736" width="55.303999999999995" height="52.0" class=""/>
<text x="59.652" y="1184.736" class="tap">F1</text>
<rect rx="6.0" ry="6.0" x="91.30399999999999" y="1119.2" width="55.303999999999995" height="52.0" class=""/>
<text x="118.95599999999999" y="1145.2" class="tap">F2</text>
<rect rx="6.0" ry="6.0" x="150.608" y="1099.432" width="55.303999999999995" height="52.0" class=""/>
<text x="178.26" y="1125.432" class="tap">F3</text>
<rect rx="6.0" ry="6.0" x="209.91200000000003" y="1121.2160000000001" width="55.303999999999995" height="52.0" class=""/>
<text x="237.56400000000002" y="1147.2160000000001" class="tap">F4</text>
<rect rx="6.0" ry="6.0" x="269.21599999999995" y="1129.056" width="55.303999999999995" height="52.0" class=""/>
<text x="296.86799999999994" y="1155.056" class="tap">F5</text>
<rect rx="6.0" ry="6.0" x="522.784" y="1129.056" width="55.303999999999995" height="52.0" class=""/>
<text x="550.436" y="1155.056" class="tap">F6</text>
<rect rx="6.0" ry="6.0" x="582.088" y="1121.2160000000001" width="55.303999999999995" height="52.0" class=""/>
<text x="609.74" y="1147.2160000000001" class="tap">F7</text>
<rect rx="6.0" ry="6.0" x="641.3919999999999" y="1099.432" width="55.303999999999995" height="52.0" class=""/>
<text x="669.044" y="1125.432" class="tap">F8</text>
<rect rx="6.0" ry="6.0" x="700.696" y="1119.2" width="55.303999999999995" height="52.0" class=""/>
<text x="728.3480000000001" y="1145.2" class="tap">F9</text>
<rect rx="6.0" ry="6.0" x="760.0" y="1158.736" width="55.303999999999995" height="52.0" class=""/>
<text x="787.652" y="1184.736" class="tap">F10</text>
<rect rx="6.0" ry="6.0" x="32.0" y="1214.736" width="55.303999999999995" height="52.0" class=""/>
<text x="59.652" y="1240.736" class="tap">⎇</text>
<rect rx="6.0" ry="6.0" x="91.30399999999999" y="1175.2" width="55.303999999999995" height="52.0" class=""/>
<text x="118.95599999999999" y="1201.2" class="tap">⌃</text>
<rect rx="6.0" ry="6.0" x="150.608" y="1155.432" width="55.303999999999995" height="52.0" class=""/>
<text x="178.26" y="1181.432" class="tap">⌘</text>
<rect rx="6.0" ry="6.0" x="209.91200000000003" y="1177.2160000000001" width="55.303999999999995" height="52.0" class=""/>
<rect rx="6.0" ry="6.0" x="269.21599999999995" y="1185.056" width="55.303999999999995" height="52.0" class=""/>
<text x="296.86799999999994" y="1211.056" class="tap">F11</text>
<rect rx="6.0" ry="6.0" x="522.784" y="1185.056" width="55.303999999999995" height="52.0" class=""/>
<text x="550.436" y="1211.056" class="tap">F12</text>
<rect rx="6.0" ry="6.0" x="582.088" y="1177.2160000000001" width="55.303999999999995" height="52.0" class=""/>
<text x="609.74" y="1203.2160000000001" class="tap">PP</text>
<rect rx="6.0" ry="6.0" x="641.3919999999999" y="1155.432" width="55.303999999999995" height="52.0" class=""/>
<text x="669.044" y="1181.432" class="tap">⌘</text>
<rect rx="6.0" ry="6.0" x="700.696" y="1175.2" width="55.303999999999995" height="52.0" class=""/>
<text x="728.3480000000001" y="1201.2" class="tap">⌃</text>
<rect rx="6.0" ry="6.0" x="760.0" y="1214.736" width="55.303999999999995" height="52.0" class=""/>
<text x="787.652" y="1240.736" class="tap">⎇</text>
<rect rx="6.0" ry="6.0" x="32.0" y="1270.736" width="55.303999999999995" height="52.0" class=""/>
<text x="59.652" y="1296.736" class="tap">
<tspan x="59.652" dy="-0.6em">BT</tspan><tspan x="59.652" dy="1.2em">3</tspan></text>
<rect rx="6.0" ry="6.0" x="91.30399999999999" y="1231.2" width="55.303999999999995" height="52.0" class=""/>
<text x="118.95599999999999" y="1257.2" class="tap">
<tspan x="118.95599999999999" dy="-0.6em">BT</tspan><tspan x="118.95599999999999" dy="1.2em">2</tspan></text>
<rect rx="6.0" ry="6.0" x="150.608" y="1211.432" width="55.303999999999995" height="52.0" class=""/>
<text x="178.26" y="1237.432" class="tap">
<tspan x="178.26" dy="-0.6em">BT</tspan><tspan x="178.26" dy="1.2em">1</tspan></text>
<rect rx="6.0" ry="6.0" x="209.91200000000003" y="1233.272" width="55.303999999999995" height="52.0" class=""/>
<text x="237.56400000000002" y="1259.272" class="tap">
<tspan x="237.56400000000002" dy="-0.6em">BT</tspan><tspan x="237.56400000000002" dy="1.2em">0</tspan></text>
<rect rx="6.0" ry="6.0" x="269.21599999999995" y="1241.056" width="55.303999999999995" height="52.0" class=""/>
<text x="296.86799999999994" y="1267.056" class="tap">
<tspan x="296.86799999999994" dy="-0.6em">BT</tspan><tspan x="296.86799999999994" dy="1.2em">CLR</tspan></text>
<rect rx="6.0" ry="6.0" x="522.784" y="1241.056" width="55.303999999999995" height="52.0" class=""/>
<text x="550.436" y="1267.056" class="tap">PREV</text>
<rect rx="6.0" ry="6.0" x="582.088" y="1233.272" width="55.303999999999995" height="52.0" class=""/>
<text x="609.74" y="1259.272" class="tap">
<tspan x="609.74" dy="-0.6em">VOL</tspan><tspan x="609.74" dy="1.2em">DN</tspan></text>
<rect rx="6.0" ry="6.0" x="641.3919999999999" y="1211.432" width="55.303999999999995" height="52.0" class=""/>
<text x="669.044" y="1237.432" class="tap">
<tspan x="669.044" dy="-0.6em">VOL</tspan><tspan x="669.044" dy="1.2em">UP</tspan></text>
<rect rx="6.0" ry="6.0" x="700.696" y="1231.2" width="55.303999999999995" height="52.0" class=""/>
<text x="728.3480000000001" y="1257.2" class="tap">NEXT</text>
<rect rx="6.0" ry="6.0" x="760.0" y="1270.736" width="55.303999999999995" height="52.0" class=""/>
<rect rx="6.0" ry="6.0" x="190.42400000000004" y="1299.016" width="55.303999999999995" height="52.0" class=""/>
<g transform="rotate(15.0, 284.18399999999997, 1333.528)">
<rect rx="6.0" ry="6.0" x="256.504" y="1307.528" width="55.303999999999995" height="52.0" class="held"/>
</g>
<g transform="rotate(30.0, 352.0, 1344.112)">
<rect rx="6.0" ry="6.0" x="324.376" y="1301.6480000000001" width="52.0" height="84.928" class=""/>
</g>
<g transform="rotate(-30.0, 492.0, 1344.112)">
<rect rx="6.0" ry="6.0" x="467.624" y="1301.6480000000001" width="52.0" height="84.928" class=""/>
</g>
<g transform="rotate(-15.0, 559.816, 1333.528)">
<rect rx="6.0" ry="6.0" x="535.496" y="1307.528" width="55.303999999999995" height="52.0" class="held"/>
</g>
<rect rx="6.0" ry="6.0" x="601.5759999999999" y="1299.016" width="55.303999999999995" height="52.0" class=""/>
<text x="629.228" y="1325.016" class="tap">MUTE</text>
</g>
</svg>
