<svg width="900.0" height="2184.0000000000005" viewBox="0 0 900.0 2184.0000000000005" xmlns="http://www.w3.org/2000/svg">
<style>/* font and background color specifications */
svg {
    font-family: SFMono-Regular,Consolas,Liberation Mono,Menlo,monospace;
    font-size: 14px;
    font-kerning: normal;
    text-rendering: optimizeLegibility;
    fill: #24292e;
}

/* default key styling */
rect {
    fill: #f6f8fa;
    stroke: #c9cccf;
    stroke-width: 1;
}

/* color accent for combo boxes */
rect.combo {
    fill: #cdf;
}

/* color accent for held keys */
rect.held, rect.combo.held {
    fill: #fdd;
}

/* color accent for ghost (optional) keys */
rect.ghost, rect.combo.ghost {
    fill: #ddd;
}

text {
    text-anchor: middle;
    dominant-baseline: middle;
}

/* styling for layer labels */
text.label {
    font-weight: bold;
    text-anchor: start;
    stroke: white;
    stroke-width: 2;
    paint-order: stroke;
}

/* styling for combo tap, and key hold/shifted label text */
text.combo, text.hold, text.shifted {
    font-size: 11px;
}

text.hold {
    text-anchor: middle;
    dominant-baseline: auto;
}

text.shifted {
    text-anchor: middle;
    dominant-baseline: hanging;
}

/* styling for hold/shifted label text in combo box */
text.combo.hold, text.combo.shifted {
    font-size: 8px;
}

/* styling for combo dendrons */
path {
    stroke-width: 1;
    stroke: gray;
    fill: none;
}
</style>
<g class="layer-Base">
<text x="30.0" y="28.0" class="label">Base:</text>
<rect rx="6.0" ry="6.0" x="32.0" y="147.60000000000002" width="52.0" height="52.0" class=""/>
<text x="58.0" y="173.60000000000002" class="tap">ESC</text>
<text x="58.0" y="149.60000000000002" class="shifted">` ~</text>
<rect rx="6.0" ry="6.0" x="88.0" y="147.60000000000002" width="52.0" height="52.0" class=""/>
<text x="114.0" y="173.60000000000002" class="tap">Q</text>
<rect rx="6.0" ry="6.0" x="144.0" y="136.4" width="52.0" height="52.0" class=""/>
<text x="170.0" y="162.4" class="tap">W</text>
<rect rx="6.0" ry="6.0" x="200.0" y="130.8" width="52.0" height="52.0" class=""/>
<text x="226.0" y="156.8" class="tap">F</text>
<text x="226.0" y="180.8" class="hold">HYPER</text>
<rect rx="6.0" ry="6.0" x="256.0" y="136.4" width="52.0" height="52.0" class=""/>
<text x="282.0" y="162.4" class="tap">P</text>
<rect rx="6.0" ry="6.0" x="312.0" y="142.0" width="52.0" height="52.0" class=""/>
<text x="338.0" y="168.0" class="tap">B</text>
<rect rx="6.0" ry="6.0" x="536.0" y="142.0" width="52.0" height="52.0" class=""/>
<text x="562.0" y="168.0" class="tap">J</text>
<rect rx="6.0" ry="6.0" x="592.0" y="136.4" width="52.0" height="52.0" class=""/>
<text x="618.0" y="162.4" class="tap">L</text>
<rect rx="6.0" ry="6.0" x="648.0" y="130.8" width="52.0" height="52.0" class=""/>
<text x="674.0" y="156.8" class="tap">U</text>
<text x="674.0" y="180.8" class="hold">HYPER</text>
<rect rx="6.0" ry="6.0" x="704.0" y="136.4" width="52.0" height="52.0" class=""/>
<text x="730.0" y="162.4" class="tap">Y</text>
<rect rx="6.0" ry="6.0" x="760.0" y="147.60000000000002" width="52.0" height="52.0" class=""/>
<text x="786.0" y="173.60000000000002" class="tap">&#x27;</text>
<text x="786.0" y="149.60000000000002" class="shifted">&quot;</text>
<rect rx="6.0" ry="6.0" x="816.0" y="147.60000000000002" width="52.0" height="52.0" class=""/>
<text x="842.0" y="173.60000000000002" class="tap">⌫</text>
<text x="842.0" y="149.60000000000002" class="shifted">⌦</text>
<rect rx="6.0" ry="6.0" x="32.0" y="203.60000000000002" width="52.0" height="52.0" class=""/>
<text x="58.0" y="229.60000000000002" class="tap">↹</text>
<rect rx="6.0" ry="6.0" x="88.0" y="203.60000000000002" width="52.0" height="52.0" class=""/>
<text x="114.0" y="229.60000000000002" class="tap">A</text>
<text x="114.0" y="253.60000000000002" class="hold">⎈</text>
<rect rx="6.0" ry="6.0" x="144.0" y="192.40000000000003" width="52.0" height="52.0" class=""/>
<text x="170.0" y="218.40000000000003" class="tap">R</text>
<text x="170.0" y="242.40000000000003" class="hold">⎇</text>
<rect rx="6.0" ry="6.0" x="200.0" y="186.8" width="52.0" height="52.0" class=""/>
<text x="226.0" y="212.8" class="tap">S</text>
<text x="226.0" y="236.8" class="hold">⌘</text>
<rect rx="6.0" ry="6.0" x="256.0" y="192.40000000000003" width="52.0" height="52.0" class=""/>
<text x="282.0" y="218.40000000000003" class="tap">T</text>
<text x="282.0" y="242.40000000000003" class="hold">⇧</text>
<rect rx="6.0" ry="6.0" x="312.0" y="198.0" width="52.0" height="52.0" class=""/>
<text x="338.0" y="224.0" class="tap">G</text>
<rect rx="6.0" ry="6.0" x="536.0" y="198.0" width="52.0" height="52.0" class=""/>
<text x="562.0" y="224.0" class="tap">M</text>
<rect rx="6.0" ry="6.0" x="592.0" y="192.40000000000003" width="52.0" height="52.0" class=""/>
<text x="618.0" y="218.40000000000003" class="tap">N</text>
<text x="618.0" y="242.40000000000003" class="hold">⇧</text>
<rect rx="6.0" ry="6.0" x="648.0" y="186.8" width="52.0" height="52.0" class=""/>
<text x="674.0" y="212.8" class="tap">E</text>
<text x="674.0" y="236.8" class="hold">⌘</text>
<rect rx="6.0" ry="6.0" x="704.0" y="192.40000000000003" width="52.0" height="52.0" class=""/>
<text x="730.0" y="218.40000000000003" class="tap">I</text>
<text x="730.0" y="242.40000000000003" class="hold">⎇</text>
<rect rx="6.0" ry="6.0" x="760.0" y="203.60000000000002" width="52.0" height="52.0" class=""/>
<text x="786.0" y="229.60000000000002" class="tap">O</text>
<text x="786.0" y="253.60000000000002" class="hold">⎈</text>
<rect rx="6.0" ry="6.0" x="816.0" y="203.60000000000002" width="52.0" height="52.0" class=""/>
<text x="842.0" y="229.60000000000002" class="tap">&#x27;</text>
<text x="842.0" y="205.60000000000002" class="shifted">&quot;</text>
<rect rx="6.0" ry="6.0" x="32.0" y="259.6" width="52.0" height="52.0" class=""/>
<text x="58.0" y="285.6" class="tap">⇧</text>
<rect rx="6.0" ry="6.0" x="88.0" y="259.6" width="52.0" height="52.0" class=""/>
<text x="114.0" y="285.6" class="tap">Z</text>
<rect rx="6.0" ry="6.0" x="144.0" y="248.39999999999998" width="52.0" height="52.0" class=""/>
<text x="170.0" y="274.4" class="tap">X</text>
<rect rx="6.0" ry="6.0" x="200.0" y="242.8" width="52.0" height="52.0" class=""/>
<text x="226.0" y="268.8" class="tap">C</text>
<text x="226.0" y="292.8" class="hold">MEH</text>
<rect rx="6.0" ry="6.0" x="256.0" y="248.39999999999998" width="52.0" height="52.0" class=""/>
<text x="282.0" y="274.4" class="tap">D</text>
<rect rx="6.0" ry="6.0" x="312.0" y="254.0" width="52.0" height="52.0" class=""/>
<text x="338.0" y="280.0" class="tap">V</text>
<rect rx="6.0" ry="6.0" x="536.0" y="254.0" width="52.0" height="52.0" class=""/>
<text x="562.0" y="280.0" class="tap">K</text>
<rect rx="6.0" ry="6.0" x="592.0" y="248.39999999999998" width="52.0" height="52.0" class=""/>
<text x="618.0" y="274.4" class="tap">H</text>
<rect rx="6.0" ry="6.0" x="648.0" y="242.8" width="52.0" height="52.0" class=""/>
<text x="674.0" y="268.8" class="tap">,</text>
<text x="674.0" y="292.8" class="hold">MEH</text>
<text x="674.0" y="244.8" class="shifted">;</text>
<rect rx="6.0" ry="6.0" x="704.0" y="248.39999999999998" width="52.0" height="52.0" class=""/>
<text x="730.0" y="274.4" class="tap">.</text>
<text x="730.0" y="250.39999999999998" class="shifted">:</text>
<rect rx="6.0" ry="6.0" x="760.0" y="259.6" width="52.0" height="52.0" class=""/>
<text x="786.0" y="285.6" class="tap">/</text>
<text x="786.0" y="261.6" class="shifted">?</text>
<rect rx="6.0" ry="6.0" x="816.0" y="259.6" width="52.0" height="52.0" class=""/>
<text x="842.0" y="285.6" class="tap">⇧</text>
<rect rx="6.0" ry="6.0" x="256.0" y="338.0" width="52.0" height="52.0" class=""/>
<text x="282.0" y="364.0" class="tap">ESC</text>
<text x="282.0" y="388.0" class="hold">⌘</text>
<text x="282.0" y="340.0" class="shifted">~ `</text>
<rect rx="6.0" ry="6.0" x="312.0" y="338.0" width="52.0" height="52.0" class=""/>
<text x="338.0" y="364.0" class="tap">⎵</text>
<text x="338.0" y="388.0" class="hold">SYM</text>
<text x="338.0" y="340.0" class="shifted">_ -</text>
<rect rx="6.0" ry="6.0" x="368.0" y="310.0" width="52.0" height="80.0" class=""/>
<text x="394.0" y="350.0" class="tap">↹</text>
<text x="394.0" y="388.0" class="hold">Adjust</text>
<rect rx="6.0" ry="6.0" x="480.0" y="310.0" width="52.0" height="80.0" class=""/>
<text x="506.0" y="350.0" class="tap">⌫</text>
<text x="506.0" y="312.0" class="shifted">⌦</text>
<rect rx="6.0" ry="6.0" x="536.0" y="338.0" width="52.0" height="52.0" class=""/>
<text x="562.0" y="364.0" class="tap">RETURN</text>
<text x="562.0" y="388.0" class="hold">Nav</text>
<rect rx="6.0" ry="6.0" x="592.0" y="338.0" width="52.0" height="52.0" class=""/>
<text x="618.0" y="364.0" class="tap">0</text>
<text x="618.0" y="388.0" class="hold">Num</text>
<rect rx="6.0" ry="6.0" x="268.0" y="177.40000000000003" width="28.0" height="26.0" class="combo"/>
<text x="282.0" y="190.40000000000003" class="combo">(</text>
<rect rx="6.0" ry="6.0" x="604.0" y="177.40000000000003" width="28.0" height="26.0" class="combo"/>
<text x="618.0" y="190.40000000000003" class="combo">)</text>
<rect rx="6.0" ry="6.0" x="268.0" y="233.4" width="28.0" height="26.0" class="combo"/>
<text x="282.0" y="246.4" class="combo">[</text>
<text x="282.0" y="235.4" class="combo shifted">{</text>
<rect rx="6.0" ry="6.0" x="604.0" y="233.4" width="28.0" height="26.0" class="combo"/>
<text x="618.0" y="246.4" class="combo">]</text>
<text x="618.0" y="235.4" class="combo shifted">}</text>
<rect rx="6.0" ry="6.0" x="212.0" y="171.8" width="28.0" height="26.0" class="combo"/>
<text x="226.0" y="184.8" class="combo">{</text>
<rect rx="6.0" ry="6.0" x="660.0" y="171.8" width="28.0" height="26.0" class="combo"/>
<text x="674.0" y="184.8" class="combo">}</text>
<rect rx="6.0" ry="6.0" x="212.0" y="227.8" width="28.0" height="26.0" class="combo"/>
<text x="226.0" y="240.8" class="combo">&lt;</text>
<rect rx="6.0" ry="6.0" x="660.0" y="227.8" width="28.0" height="26.0" class="combo"/>
<text x="674.0" y="240.8" class="combo">&gt;</text>
<path d="M450.0,218.40000000000003 l-149.33333333333331,0.0"/>
<path d="M450.0,218.40000000000003 l149.33333333333331,0.0"/>
<rect rx="6.0" ry="6.0" x="436.0" y="205.40000000000003" width="28.0" height="26.0" class="combo"/>
<text x="450.0" y="218.40000000000003" class="combo">
<tspan x="450.0" dy="-0.6em">Caps</tspan><tspan x="450.0" dy="1.2em">Word</tspan></text>
<path d="M338.0,409.80000000000007 h-50.0 a6.0,6.0 0 0 1 -6.0,-6.0 v-21.1333333333334"/>
<path d="M338.0,409.80000000000007 h-6.0 a6.0,6.0 0 0 1 6.0,-6.0 v-28.60000000000007"/>
<path d="M338.0,409.80000000000007 h50.0 a6.0,6.0 0 0 0 6.0,-6.0 v-25.800000000000068"/>
<rect rx="6.0" ry="6.0" x="324.0" y="396.80000000000007" width="28.0" height="26.0" class="combo"/>
<text x="338.0" y="409.80000000000007" class="combo">RET</text>
<rect rx="6.0" ry="6.0" x="352.0" y="344.0" width="28.0" height="26.0" class="combo"/>
<text x="366.0" y="357.0" class="combo">BSPC</text>
<path d="M226.0,111.00000000000001 h-50.0 a6.0,6.0 0 0 0 -6.0,6.0 v82.73333333333335"/>
<path d="M226.0,111.00000000000001 h-6.0 a6.0,6.0 0 0 0 6.0,6.0 v84.6"/>
<path d="M226.0,111.00000000000001 h50.0 a6.0,6.0 0 0 1 6.0,6.0 v82.73333333333335"/>
<rect rx="6.0" ry="6.0" x="212.0" y="98.00000000000001" width="28.0" height="26.0" class="combo"/>
<text x="226.0" y="111.00000000000001" class="combo">NAV</text>
<path d="M226.0,314.6 h-50.0 a6.0,6.0 0 0 1 -6.0,-6.0 v-15.533333333333378"/>
<path d="M226.0,314.6 h-6.0 a6.0,6.0 0 0 1 6.0,-6.0 v-28.600000000000012"/>
<path d="M226.0,314.6 h50.0 a6.0,6.0 0 0 0 6.0,-6.0 v-15.533333333333378"/>
<rect rx="6.0" ry="6.0" x="212.0" y="301.6" width="28.0" height="26.0" class="combo"/>
<text x="226.0" y="314.6" class="combo">NUM</text>
</g>
<g class="layer-Nav">
<text x="30.0" y="436.80000000000007" class="label">Nav:</text>
<rect rx="6.0" ry="6.0" x="32.0" y="483.6000000000001" width="52.0" height="52.0" class=""/>
<rect rx="6.0" ry="6.0" x="88.0" y="483.6000000000001" width="52.0" height="52.0" class=""/>
<rect rx="6.0" ry="6.0" x="144.0" y="472.4000000000001" width="52.0" height="52.0" class=""/>
<text x="170.0" y="498.4000000000001" class="tap">⇤</text>
<rect rx="6.0" ry="6.0" x="200.0" y="466.80000000000007" width="52.0" height="52.0" class=""/>
<rect rx="6.0" ry="6.0" x="256.0" y="472.4000000000001" width="52.0" height="52.0" class=""/>
<text x="282.0" y="498.4000000000001" class="tap">⇥</text>
<rect rx="6.0" ry="6.0" x="312.0" y="478.00000000000006" width="52.0" height="52.0" class=""/>
<text x="338.0" y="504.00000000000006" class="tap">
<tspan x="338.0" dy="-0.6em">PG</tspan><tspan x="338.0" dy="1.2em">UP</tspan></text>
<rect rx="6.0" ry="6.0" x="536.0" y="478.00000000000006" width="52.0" height="52.0" class=""/>
<rect rx="6.0" ry="6.0" x="592.0" y="472.4000000000001" width="52.0" height="52.0" class=""/>
<rect rx="6.0" ry="6.0" x="648.0" y="466.80000000000007" width="52.0" height="52.0" class=""/>
<text x="674.0" y="492.80000000000007" class="tap">HYPER</text>
<rect rx="6.0" ry="6.0" x="704.0" y="472.4000000000001" width="52.0" height="52.0" class=""/>
<rect rx="6.0" ry="6.0" x="760.0" y="483.6000000000001" width="52.0" height="52.0" class=""/>
<rect rx="6.0" ry="6.0" x="816.0" y="483.6000000000001" width="52.0" height="52.0" class=""/>
<rect rx="6.0" ry="6.0" x="32.0" y="539.6" width="52.0" height="52.0" class=""/>
<rect rx="6.0" ry="6.0" x="88.0" y="539.6" width="52.0" height="52.0" class=""/>
<text x="114.0" y="565.6" class="tap">
<tspan x="114.0" dy="-0.6em">⇧</tspan><tspan x="114.0" dy="1.2em">Lock</tspan></text>
<rect rx="6.0" ry="6.0" x="144.0" y="528.4000000000001" width="52.0" height="52.0" class=""/>
<text x="170.0" y="554.4000000000001" class="tap">←</text>
<rect rx="6.0" ry="6.0" x="200.0" y="522.8000000000001" width="52.0" height="52.0" class=""/>
<text x="226.0" y="548.8000000000001" class="tap">↑</text>
<rect rx="6.0" ry="6.0" x="256.0" y="528.4000000000001" width="52.0" height="52.0" class=""/>
<text x="282.0" y="554.4000000000001" class="tap">→</text>
<rect rx="6.0" ry="6.0" x="312.0" y="534.0000000000001" width="52.0" height="52.0" class=""/>
<text x="338.0" y="560.0000000000001" class="tap">
<tspan x="338.0" dy="-0.6em">PG</tspan><tspan x="338.0" dy="1.2em">DN</tspan></text>
<rect rx="6.0" ry="6.0" x="536.0" y="534.0000000000001" width="52.0" height="52.0" class=""/>
<rect rx="6.0" ry="6.0" x="592.0" y="528.4000000000001" width="52.0" height="52.0" class=""/>
<text x="618.0" y="554.4000000000001" class="tap">⇧</text>
<rect rx="6.0" ry="6.0" x="648.0" y="522.8000000000001" width="52.0" height="52.0" class=""/>
<text x="674.0" y="548.8000000000001" class="tap">⌘</text>
<rect rx="6.0" ry="6.0" x="704.0" y="528.4000000000001" width="52.0" height="52.0" class=""/>
<text x="730.0" y="554.4000000000001" class="tap">⎇</text>
<rect rx="6.0" ry="6.0" x="760.0" y="539.6" width="52.0" height="52.0" class=""/>
<text x="786.0" y="565.6" class="tap">⎈</text>
<rect rx="6.0" ry="6.0" x="816.0" y="539.6" width="52.0" height="52.0" class=""/>
<rect rx="6.0" ry="6.0" x="32.0" y="595.6" width="52.0" height="52.0" class=""/>
<rect rx="6.0" ry="6.0" x="88.0" y="595.6" width="52.0" height="52.0" class=""/>
<rect rx="6.0" ry="6.0" x="144.0" y="584.4000000000001" width="52.0" height="52.0" class=""/>
<text x="170.0" y="610.4000000000001" class="tap">↞</text>
<rect rx="6.0" ry="6.0" x="200.0" y="578.8000000000001" width="52.0" height="52.0" class=""/>
<text x="226.0" y="604.8000000000001" class="tap">↓</text>
<rect rx="6.0" ry="6.0" x="256.0" y="584.4000000000001" width="52.0" height="52.0" class=""/>
<text x="282.0" y="610.4000000000001" class="tap">↠</text>
<rect rx="6.0" ry="6.0" x="312.0" y="590.0000000000001" width="52.0" height="52.0" class=""/>
<rect rx="6.0" ry="6.0" x="536.0" y="590.0000000000001" width="52.0" height="52.0" class=""/>
<rect rx="6.0" ry="6.0" x="592.0" y="584.4000000000001" width="52.0" height="52.0" class=""/>
<rect rx="6.0" ry="6.0" x="648.0" y="578.8000000000001" width="52.0" height="52.0" class=""/>
<text x="674.0" y="604.8000000000001" class="tap">MEH</text>
<rect rx="6.0" ry="6.0" x="704.0" y="584.4000000000001" width="52.0" height="52.0" class=""/>
<rect rx="6.0" ry="6.0" x="760.0" y="595.6" width="52.0" height="52.0" class=""/>
<rect rx="6.0" ry="6.0" x="816.0" y="595.6" width="52.0" height="52.0" class=""/>
<rect rx="6.0" ry="6.0" x="256.0" y="674.0000000000001" width="52.0" height="52.0" class=""/>
<text x="282.0" y="700.0000000000001" class="tap">2</text>
<text x="282.0" y="724.0000000000001" class="hold">⌘</text>
<rect rx="6.0" ry="6.0" x="312.0" y="674.0000000000001" width="52.0" height="52.0" class=""/>
<rect rx="6.0" ry="6.0" x="368.0" y="646.0000000000001" width="52.0" height="80.0" class=""/>
<rect rx="6.0" ry="6.0" x="480.0" y="646.0000000000001" width="52.0" height="80.0" class=""/>
<rect rx="6.0" ry="6.0" x="536.0" y="674.0000000000001" width="52.0" height="52.0" class="held"/>
<rect rx="6.0" ry="6.0" x="592.0" y="674.0000000000001" width="52.0" height="52.0" class=""/>
<path d="M338.0,745.8000000000002 h-50.0 a6.0,6.0 0 0 1 -6.0,-6.0 v-21.1333333333334"/>
<path d="M338.0,745.8000000000002 h-6.0 a6.0,6.0 0 0 1 6.0,-6.0 v-28.60000000000007"/>
<path d="M338.0,745.8000000000002 h50.0 a6.0,6.0 0 0 0 6.0,-6.0 v-25.800000000000068"/>
<rect rx="6.0" ry="6.0" x="324.0" y="732.8000000000002" width="28.0" height="26.0" class="combo"/>
<text x="338.0" y="745.8000000000002" class="combo">RET</text>
<rect rx="6.0" ry="6.0" x="352.0" y="680.0000000000001" width="28.0" height="26.0" class="combo"/>
<text x="366.0" y="693.0000000000001" class="combo">BSPC</text>
<path d="M226.0,650.6 h-50.0 a6.0,6.0 0 0 1 -6.0,-6.0 v-15.533333333333264"/>
<path d="M226.0,650.6 h-6.0 a6.0,6.0 0 0 1 6.0,-6.0 v-28.599999999999955"/>
<path d="M226.0,650.6 h50.0 a6.0,6.0 0 0 0 6.0,-6.0 v-15.533333333333264"/>
<rect rx="6.0" ry="6.0" x="212.0" y="637.6" width="28.0" height="26.0" class="combo"/>
<text x="226.0" y="650.6" class="combo">NUM</text>
</g>
<g class="layer-Sym">
<text x="30.0" y="772.8000000000002" class="label">Sym:</text>
<rect rx="6.0" ry="6.0" x="32.0" y="819.6000000000001" width="52.0" height="52.0" class=""/>
<rect rx="6.0" ry="6.0" x="88.0" y="819.6000000000001" width="52.0" height="52.0" class=""/>
<text x="114.0" y="845.6000000000001" class="tap">⌘Q</text>
<rect rx="6.0" ry="6.0" x="144.0" y="808.4000000000002" width="52.0" height="52.0" class=""/>
<text x="170.0" y="834.4000000000002" class="tap">⌘W</text>
<rect rx="6.0" ry="6.0" x="200.0" y="802.8000000000002" width="52.0" height="52.0" class=""/>
<rect rx="6.0" ry="6.0" x="256.0" y="808.4000000000002" width="52.0" height="52.0" class=""/>
<rect rx="6.0" ry="6.0" x="312.0" y="814.0000000000002" width="52.0" height="52.0" class=""/>
<text x="338.0" y="840.0000000000002" class="tap">⌘`</text>
<rect rx="6.0" ry="6.0" x="536.0" y="814.0000000000002" width="52.0" height="52.0" class=""/>
<text x="562.0" y="840.0000000000002" class="tap">~</text>
<rect rx="6.0" ry="6.0" x="592.0" y="808.4000000000002" width="52.0" height="52.0" class=""/>
<text x="618.0" y="834.4000000000002" class="tap">$</text>
<rect rx="6.0" ry="6.0" x="648.0" y="802.8000000000002" width="52.0" height="52.0" class=""/>
<text x="674.0" y="828.8000000000002" class="tap">&amp;</text>
<rect rx="6.0" ry="6.0" x="704.0" y="808.4000000000002" width="52.0" height="52.0" class=""/>
<text x="730.0" y="834.4000000000002" class="tap">|</text>
<rect rx="6.0" ry="6.0" x="760.0" y="819.6000000000001" width="52.0" height="52.0" class=""/>
<text x="786.0" y="845.6000000000001" class="tap">`</text>
<text x="786.0" y="821.6000000000001" class="shifted">^</text>
<rect rx="6.0" ry="6.0" x="816.0" y="819.6000000000001" width="52.0" height="52.0" class=""/>
<rect rx="6.0" ry="6.0" x="32.0" y="875.6000000000001" width="52.0" height="52.0" class=""/>
<rect rx="6.0" ry="6.0" x="88.0" y="875.6000000000001" width="52.0" height="52.0" class=""/>
<text x="114.0" y="901.6000000000001" class="tap">⎈</text>
<rect rx="6.0" ry="6.0" x="144.0" y="864.4000000000002" width="52.0" height="52.0" class=""/>
<text x="170.0" y="890.4000000000002" class="tap">⎇</text>
<rect rx="6.0" ry="6.0" x="200.0" y="858.8000000000002" width="52.0" height="52.0" class=""/>
<text x="226.0" y="884.8000000000002" class="tap">⌘</text>
<rect rx="6.0" ry="6.0" x="256.0" y="864.4000000000002" width="52.0" height="52.0" class=""/>
<text x="282.0" y="890.4000000000002" class="tap">⇧</text>
<rect rx="6.0" ry="6.0" x="312.0" y="870.0000000000002" width="52.0" height="52.0" class=""/>
<text x="338.0" y="896.0000000000002" class="tap">⌘↹</text>
<rect rx="6.0" ry="6.0" x="536.0" y="870.0000000000002" width="52.0" height="52.0" class=""/>
<text x="562.0" y="896.0000000000002" class="tap">+</text>
<rect rx="6.0" ry="6.0" x="592.0" y="864.4000000000002" width="52.0" height="52.0" class=""/>
<text x="618.0" y="890.4000000000002" class="tap">!</text>
<rect rx="6.0" ry="6.0" x="648.0" y="858.8000000000002" width="52.0" height="52.0" class=""/>
<text x="674.0" y="884.8000000000002" class="tap">=</text>
<text x="674.0" y="860.8000000000002" class="shifted">+</text>
<rect rx="6.0" ry="6.0" x="704.0" y="864.4000000000002" width="52.0" height="52.0" class=""/>
<text x="730.0" y="890.4000000000002" class="tap">#</text>
<rect rx="6.0" ry="6.0" x="760.0" y="875.6000000000001" width="52.0" height="52.0" class=""/>
<text x="786.0" y="901.6000000000001" class="tap">*</text>
<rect rx="6.0" ry="6.0" x="816.0" y="875.6000000000001" width="52.0" height="52.0" class=""/>
<text x="842.0" y="901.6000000000001" class="tap">`</text>
<text x="842.0" y="877.6000000000001" class="shifted">~</text>
<rect rx="6.0" ry="6.0" x="32.0" y="931.6000000000001" width="52.0" height="52.0" class=""/>
<rect rx="6.0" ry="6.0" x="88.0" y="931.6000000000001" width="52.0" height="52.0" class=""/>
<text x="114.0" y="957.6000000000001" class="tap">⌘Z</text>
<rect rx="6.0" ry="6.0" x="144.0" y="920.4000000000002" width="52.0" height="52.0" class=""/>
<text x="170.0" y="946.4000000000002" class="tap">⌘X</text>
<rect rx="6.0" ry="6.0" x="200.0" y="914.8000000000002" width="52.0" height="52.0" class=""/>
<text x="226.0" y="940.8000000000002" class="tap">⌘C</text>
<rect rx="6.0" ry="6.0" x="256.0" y="920.4000000000002" width="52.0" height="52.0" class=""/>
<rect rx="6.0" ry="6.0" x="312.0" y="926.0000000000002" width="52.0" height="52.0" class=""/>
<text x="338.0" y="952.0000000000002" class="tap">⌘V</text>
<rect rx="6.0" ry="6.0" x="536.0" y="926.0000000000002" width="52.0" height="52.0" class=""/>
<text x="562.0" y="952.0000000000002" class="tap">%</text>
<rect rx="6.0" ry="6.0" x="592.0" y="920.4000000000002" width="52.0" height="52.0" class=""/>
<text x="618.0" y="946.4000000000002" class="tap">-</text>
<text x="618.0" y="922.4000000000002" class="shifted">_</text>
<rect rx="6.0" ry="6.0" x="648.0" y="914.8000000000002" width="52.0" height="52.0" class=""/>
<text x="674.0" y="940.8000000000002" class="tap">_</text>
<rect rx="6.0" ry="6.0" x="704.0" y="920.4000000000002" width="52.0" height="52.0" class=""/>
<text x="730.0" y="946.4000000000002" class="tap">@</text>
<rect rx="6.0" ry="6.0" x="760.0" y="931.6000000000001" width="52.0" height="52.0" class=""/>
<text x="786.0" y="957.6000000000001" class="tap">\</text>
<text x="786.0" y="933.6000000000001" class="shifted">|</text>
<rect rx="6.0" ry="6.0" x="816.0" y="931.6000000000001" width="52.0" height="52.0" class=""/>
<rect rx="6.0" ry="6.0" x="256.0" y="1010.0000000000002" width="52.0" height="52.0" class=""/>
<rect rx="6.0" ry="6.0" x="312.0" y="1010.0000000000002" width="52.0" height="52.0" class="held"/>
<rect rx="6.0" ry="6.0" x="368.0" y="982.0000000000002" width="52.0" height="80.0" class=""/>
<rect rx="6.0" ry="6.0" x="480.0" y="982.0000000000002" width="52.0" height="80.0" class=""/>
<rect rx="6.0" ry="6.0" x="536.0" y="1010.0000000000002" width="52.0" height="52.0" class=""/>
<rect rx="6.0" ry="6.0" x="592.0" y="1010.0000000000002" width="52.0" height="52.0" class=""/>
<rect rx="6.0" ry="6.0" x="268.0" y="849.4000000000002" width="28.0" height="26.0" class="combo"/>
<text x="282.0" y="862.4000000000002" class="combo">(</text>
<rect rx="6.0" ry="6.0" x="604.0" y="849.4000000000002" width="28.0" height="26.0" class="combo"/>
<text x="618.0" y="862.4000000000002" class="combo">)</text>
<rect rx="6.0" ry="6.0" x="268.0" y="905.4000000000002" width="28.0" height="26.0" class="combo"/>
<text x="282.0" y="918.4000000000002" class="combo">[</text>
<text x="282.0" y="907.4000000000002" class="combo shifted">{</text>
<rect rx="6.0" ry="6.0" x="604.0" y="905.4000000000002" width="28.0" height="26.0" class="combo"/>
<text x="618.0" y="918.4000000000002" class="combo">]</text>
<text x="618.0" y="907.4000000000002" class="combo shifted">}</text>
<rect rx="6.0" ry="6.0" x="212.0" y="843.8000000000002" width="28.0" height="26.0" class="combo"/>
<text x="226.0" y="856.8000000000002" class="combo">{</text>
<rect rx="6.0" ry="6.0" x="660.0" y="843.8000000000002" width="28.0" height="26.0" class="combo"/>
<text x="674.0" y="856.8000000000002" class="combo">}</text>
<rect rx="6.0" ry="6.0" x="212.0" y="899.8000000000002" width="28.0" height="26.0" class="combo"/>
<text x="226.0" y="912.8000000000002" class="combo">&lt;</text>
<rect rx="6.0" ry="6.0" x="660.0" y="899.8000000000002" width="28.0" height="26.0" class="combo"/>
<text x="674.0" y="912.8000000000002" class="combo">&gt;</text>
<path d="M338.0,1081.8000000000002 h-50.0 a6.0,6.0 0 0 1 -6.0,-6.0 v-21.133333333333287"/>
<path d="M338.0,1081.8000000000002 h-6.0 a6.0,6.0 0 0 1 6.0,-6.0 v-28.599999999999955"/>
<path d="M338.0,1081.8000000000002 h50.0 a6.0,6.0 0 0 0 6.0,-6.0 v-25.799999999999955"/>
<rect rx="6.0" ry="6.0" x="324.0" y="1068.8000000000002" width="28.0" height="26.0" class="combo"/>
<text x="338.0" y="1081.8000000000002" class="combo">RET</text>
<rect rx="6.0" ry="6.0" x="352.0" y="1016.0000000000002" width="28.0" height="26.0" class="combo"/>
<text x="366.0" y="1029.0000000000002" class="combo">BSPC</text>
</g>
<g class="layer-Num">
<text x="30.0" y="1108.8000000000002" class="label">Num:</text>
<rect rx="6.0" ry="6.0" x="32.0" y="1228.4" width="52.0" height="52.0" class=""/>
<rect rx="6.0" ry="6.0" x="88.0" y="1228.4" width="52.0" height="52.0" class=""/>
<rect rx="6.0" ry="6.0" x="144.0" y="1217.2" width="52.0" height="52.0" class=""/>
<text x="170.0" y="1243.2" class="tap">7</text>
<rect rx="6.0" ry="6.0" x="200.0" y="1211.6000000000001" width="52.0" height="52.0" class=""/>
<text x="226.0" y="1237.6000000000001" class="tap">8</text>
<rect rx="6.0" ry="6.0" x="256.0" y="1217.2" width="52.0" height="52.0" class=""/>
<text x="282.0" y="1243.2" class="tap">9</text>
<rect rx="6.0" ry="6.0" x="312.0" y="1222.8000000000002" width="52.0" height="52.0" class=""/>
<rect rx="6.0" ry="6.0" x="536.0" y="1222.8000000000002" width="52.0" height="52.0" class=""/>
<rect rx="6.0" ry="6.0" x="592.0" y="1217.2" width="52.0" height="52.0" class=""/>
<text x="618.0" y="1243.2" class="tap">$</text>
<rect rx="6.0" ry="6.0" x="648.0" y="1211.6000000000001" width="52.0" height="52.0" class=""/>
<text x="674.0" y="1237.6000000000001" class="tap">HYPER</text>
<rect rx="6.0" ry="6.0" x="704.0" y="1217.2" width="52.0" height="52.0" class=""/>
<rect rx="6.0" ry="6.0" x="760.0" y="1228.4" width="52.0" height="52.0" class=""/>
<rect rx="6.0" ry="6.0" x="816.0" y="1228.4" width="52.0" height="52.0" class=""/>
<rect rx="6.0" ry="6.0" x="32.0" y="1284.4" width="52.0" height="52.0" class=""/>
<rect rx="6.0" ry="6.0" x="88.0" y="1284.4" width="52.0" height="52.0" class=""/>
<rect rx="6.0" ry="6.0" x="144.0" y="1273.2" width="52.0" height="52.0" class=""/>
<text x="170.0" y="1299.2" class="tap">4</text>
<text x="170.0" y="1323.2" class="hold">⎇</text>
<rect rx="6.0" ry="6.0" x="200.0" y="1267.6000000000001" width="52.0" height="52.0" class=""/>
<text x="226.0" y="1293.6000000000001" class="tap">5</text>
<rect rx="6.0" ry="6.0" x="256.0" y="1273.2" width="52.0" height="52.0" class=""/>
<text x="282.0" y="1299.2" class="tap">6</text>
<rect rx="6.0" ry="6.0" x="312.0" y="1278.8000000000002" width="52.0" height="52.0" class=""/>
<rect rx="6.0" ry="6.0" x="536.0" y="1278.8000000000002" width="52.0" height="52.0" class=""/>
<text x="562.0" y="1304.8000000000002" class="tap">+</text>
<rect rx="6.0" ry="6.0" x="592.0" y="1273.2" width="52.0" height="52.0" class=""/>
<text x="618.0" y="1299.2" class="tap">⇧</text>
<rect rx="6.0" ry="6.0" x="648.0" y="1267.6000000000001" width="52.0" height="52.0" class=""/>
<text x="674.0" y="1293.6000000000001" class="tap">=</text>
<text x="674.0" y="1317.6000000000001" class="hold">⌘</text>
<text x="674.0" y="1269.6000000000001" class="shifted">+</text>
<rect rx="6.0" ry="6.0" x="704.0" y="1273.2" width="52.0" height="52.0" class=""/>
<text x="730.0" y="1299.2" class="tap">⎇</text>
<rect rx="6.0" ry="6.0" x="760.0" y="1284.4" width="52.0" height="52.0" class=""/>
<text x="786.0" y="1310.4" class="tap">*</text>
<text x="786.0" y="1334.4" class="hold">⎈</text>
<rect rx="6.0" ry="6.0" x="816.0" y="1284.4" width="52.0" height="52.0" class=""/>
<rect rx="6.0" ry="6.0" x="32.0" y="1340.4" width="52.0" height="52.0" class=""/>
<rect rx="6.0" ry="6.0" x="88.0" y="1340.4" width="52.0" height="52.0" class=""/>
<rect rx="6.0" ry="6.0" x="144.0" y="1329.2" width="52.0" height="52.0" class=""/>
<text x="170.0" y="1355.2" class="tap">1</text>
<rect rx="6.0" ry="6.0" x="200.0" y="1323.6000000000001" width="52.0" height="52.0" class=""/>
<text x="226.0" y="1349.6000000000001" class="tap">2</text>
<rect rx="6.0" ry="6.0" x="256.0" y="1329.2" width="52.0" height="52.0" class=""/>
<text x="282.0" y="1355.2" class="tap">3</text>
<rect rx="6.0" ry="6.0" x="312.0" y="1334.8000000000002" width="52.0" height="52.0" class=""/>
<rect rx="6.0" ry="6.0" x="536.0" y="1334.8000000000002" width="52.0" height="52.0" class=""/>
<text x="562.0" y="1360.8000000000002" class="tap">%</text>
<rect rx="6.0" ry="6.0" x="592.0" y="1329.2" width="52.0" height="52.0" class=""/>
<text x="618.0" y="1355.2" class="tap">-</text>
<text x="618.0" y="1331.2" class="shifted">_</text>
<rect rx="6.0" ry="6.0" x="648.0" y="1323.6000000000001" width="52.0" height="52.0" class=""/>
<text x="674.0" y="1349.6000000000001" class="tap">,</text>
<text x="674.0" y="1373.6000000000001" class="hold">MEH</text>
<text x="674.0" y="1325.6000000000001" class="shifted">;</text>
<rect rx="6.0" ry="6.0" x="704.0" y="1329.2" width="52.0" height="52.0" class=""/>
<text x="730.0" y="1355.2" class="tap">.</text>
<text x="730.0" y="1331.2" class="shifted">:</text>
<rect rx="6.0" ry="6.0" x="760.0" y="1340.4" width="52.0" height="52.0" class=""/>
<text x="786.0" y="1366.4" class="tap">/</text>
<text x="786.0" y="1342.4" class="shifted">?</text>
<rect rx="6.0" ry="6.0" x="816.0" y="1340.4" width="52.0" height="52.0" class=""/>
<rect rx="6.0" ry="6.0" x="256.0" y="1418.8000000000002" width="52.0" height="52.0" class=""/>
<text x="282.0" y="1444.8000000000002" class="tap">Num</text>
<rect rx="6.0" ry="6.0" x="312.0" y="1418.8000000000002" width="52.0" height="52.0" class=""/>
<rect rx="6.0" ry="6.0" x="368.0" y="1390.8000000000002" width="52.0" height="80.0" class=""/>
<text x="394.0" y="1430.8000000000002" class="tap">0</text>
<rect rx="6.0" ry="6.0" x="480.0" y="1390.8000000000002" width="52.0" height="80.0" class=""/>
<rect rx="6.0" ry="6.0" x="536.0" y="1418.8000000000002" width="52.0" height="52.0" class=""/>
<rect rx="6.0" ry="6.0" x="592.0" y="1418.8000000000002" width="52.0" height="52.0" class="held"/>
<rect rx="6.0" ry="6.0" x="268.0" y="1258.2" width="28.0" height="26.0" class="combo"/>
<text x="282.0" y="1271.2" class="combo">(</text>
<rect rx="6.0" ry="6.0" x="604.0" y="1258.2" width="28.0" height="26.0" class="combo"/>
<text x="618.0" y="1271.2" class="combo">)</text>
<rect rx="6.0" ry="6.0" x="268.0" y="1314.2" width="28.0" height="26.0" class="combo"/>
<text x="282.0" y="1327.2" class="combo">[</text>
<text x="282.0" y="1316.2" class="combo shifted">{</text>
<rect rx="6.0" ry="6.0" x="604.0" y="1314.2" width="28.0" height="26.0" class="combo"/>
<text x="618.0" y="1327.2" class="combo">]</text>
<text x="618.0" y="1316.2" class="combo shifted">}</text>
<rect rx="6.0" ry="6.0" x="212.0" y="1252.6000000000001" width="28.0" height="26.0" class="combo"/>
<text x="226.0" y="1265.6000000000001" class="combo">{</text>
<rect rx="6.0" ry="6.0" x="660.0" y="1252.6000000000001" width="28.0" height="26.0" class="combo"/>
<text x="674.0" y="1265.6000000000001" class="combo">}</text>
<rect rx="6.0" ry="6.0" x="212.0" y="1308.6000000000001" width="28.0" height="26.0" class="combo"/>
<text x="226.0" y="1321.6000000000001" class="combo">&lt;</text>
<rect rx="6.0" ry="6.0" x="660.0" y="1308.6000000000001" width="28.0" height="26.0" class="combo"/>
<text x="674.0" y="1321.6000000000001" class="combo">&gt;</text>
<path d="M338.0,1490.6000000000001 h-50.0 a6.0,6.0 0 0 1 -6.0,-6.0 v-21.133333333333287"/>
<path d="M338.0,1490.6000000000001 h-6.0 a6.0,6.0 0 0 1 6.0,-6.0 v-28.599999999999955"/>
<path d="M338.0,1490.6000000000001 h50.0 a6.0,6.0 0 0 0 6.0,-6.0 v-25.799999999999955"/>
<rect rx="6.0" ry="6.0" x="324.0" y="1477.6000000000001" width="28.0" height="26.0" class="combo"/>
<text x="338.0" y="1490.6000000000001" class="combo">RET</text>
<rect rx="6.0" ry="6.0" x="352.0" y="1424.8000000000002" width="28.0" height="26.0" class="combo"/>
<text x="366.0" y="1437.8000000000002" class="combo">BSPC</text>
<path d="M226.0,1191.8000000000002 h-50.0 a6.0,6.0 0 0 0 -6.0,6.0 v82.73333333333319"/>
<path d="M226.0,1191.8000000000002 h-6.0 a6.0,6.0 0 0 0 6.0,6.0 v84.59999999999995"/>
<path d="M226.0,1191.8000000000002 h50.0 a6.0,6.0 0 0 1 6.0,6.0 v82.73333333333319"/>
<rect rx="6.0" ry="6.0" x="212.0" y="1178.8000000000002" width="28.0" height="26.0" class="combo"/>
<text x="226.0" y="1191.8000000000002" class="combo">NAV</text>
</g>
<g class="layer-Func">
<text x="30.0" y="1517.6000000000001" class="label">Func:</text>
<rect rx="6.0" ry="6.0" x="32.0" y="1564.4" width="52.0" height="52.0" class=""/>
<rect rx="6.0" ry="6.0" x="88.0" y="1564.4" width="52.0" height="52.0" class=""/>
<text x="114.0" y="1590.4" class="tap">F12</text>
<rect rx="6.0" ry="6.0" x="144.0" y="1553.2" width="52.0" height="52.0" class=""/>
<text x="170.0" y="1579.2" class="tap">F7</text>
<rect rx="6.0" ry="6.0" x="200.0" y="1547.6000000000001" width="52.0" height="52.0" class=""/>
<text x="226.0" y="1573.6000000000001" class="tap">F8</text>
<rect rx="6.0" ry="6.0" x="256.0" y="1553.2" width="52.0" height="52.0" class=""/>
<text x="282.0" y="1579.2" class="tap">F9</text>
<rect rx="6.0" ry="6.0" x="312.0" y="1558.8000000000002" width="52.0" height="52.0" class=""/>
<rect rx="6.0" ry="6.0" x="536.0" y="1558.8000000000002" width="52.0" height="52.0" class=""/>
<rect rx="6.0" ry="6.0" x="592.0" y="1553.2" width="52.0" height="52.0" class=""/>
<rect rx="6.0" ry="6.0" x="648.0" y="1547.6000000000001" width="52.0" height="52.0" class=""/>
<text x="674.0" y="1573.6000000000001" class="tap">HYPER</text>
<rect rx="6.0" ry="6.0" x="704.0" y="1553.2" width="52.0" height="52.0" class=""/>
<rect rx="6.0" ry="6.0" x="760.0" y="1564.4" width="52.0" height="52.0" class=""/>
<rect rx="6.0" ry="6.0" x="816.0" y="1564.4" width="52.0" height="52.0" class=""/>
<rect rx="6.0" ry="6.0" x="32.0" y="1620.4" width="52.0" height="52.0" class=""/>
<rect rx="6.0" ry="6.0" x="88.0" y="1620.4" width="52.0" height="52.0" class=""/>
<text x="114.0" y="1646.4" class="tap">F11</text>
<rect rx="6.0" ry="6.0" x="144.0" y="1609.2" width="52.0" height="52.0" class=""/>
<text x="170.0" y="1635.2" class="tap">F4</text>
<rect rx="6.0" ry="6.0" x="200.0" y="1603.6000000000001" width="52.0" height="52.0" class=""/>
<text x="226.0" y="1629.6000000000001" class="tap">F5</text>
<rect rx="6.0" ry="6.0" x="256.0" y="1609.2" width="52.0" height="52.0" class=""/>
<text x="282.0" y="1635.2" class="tap">F6</text>
<rect rx="6.0" ry="6.0" x="312.0" y="1614.8000000000002" width="52.0" height="52.0" class=""/>
<rect rx="6.0" ry="6.0" x="536.0" y="1614.8000000000002" width="52.0" height="52.0" class=""/>
<rect rx="6.0" ry="6.0" x="592.0" y="1609.2" width="52.0" height="52.0" class=""/>
<text x="618.0" y="1635.2" class="tap">⇧</text>
<rect rx="6.0" ry="6.0" x="648.0" y="1603.6000000000001" width="52.0" height="52.0" class=""/>
<text x="674.0" y="1629.6000000000001" class="tap">⌘</text>
<rect rx="6.0" ry="6.0" x="704.0" y="1609.2" width="52.0" height="52.0" class=""/>
<text x="730.0" y="1635.2" class="tap">⎇</text>
<rect rx="6.0" ry="6.0" x="760.0" y="1620.4" width="52.0" height="52.0" class=""/>
<text x="786.0" y="1646.4" class="tap">⎈</text>
<rect rx="6.0" ry="6.0" x="816.0" y="1620.4" width="52.0" height="52.0" class=""/>
<rect rx="6.0" ry="6.0" x="32.0" y="1676.4" width="52.0" height="52.0" class=""/>
<rect rx="6.0" ry="6.0" x="88.0" y="1676.4" width="52.0" height="52.0" class=""/>
<text x="114.0" y="1702.4" class="tap">F10</text>
<rect rx="6.0" ry="6.0" x="144.0" y="1665.2" width="52.0" height="52.0" class=""/>
<text x="170.0" y="1691.2" class="tap">F1</text>
<rect rx="6.0" ry="6.0" x="200.0" y="1659.6000000000001" width="52.0" height="52.0" class=""/>
<text x="226.0" y="1685.6000000000001" class="tap">F2</text>
<rect rx="6.0" ry="6.0" x="256.0" y="1665.2" width="52.0" height="52.0" class=""/>
<text x="282.0" y="1691.2" class="tap">F3</text>
<rect rx="6.0" ry="6.0" x="312.0" y="1670.8000000000002" width="52.0" height="52.0" class=""/>
<rect rx="6.0" ry="6.0" x="536.0" y="1670.8000000000002" width="52.0" height="52.0" class=""/>
<rect rx="6.0" ry="6.0" x="592.0" y="1665.2" width="52.0" height="52.0" class=""/>
<rect rx="6.0" ry="6.0" x="648.0" y="1659.6000000000001" width="52.0" height="52.0" class=""/>
<text x="674.0" y="1685.6000000000001" class="tap">MEH</text>
<rect rx="6.0" ry="6.0" x="704.0" y="1665.2" width="52.0" height="52.0" class=""/>
<rect rx="6.0" ry="6.0" x="760.0" y="1676.4" width="52.0" height="52.0" class=""/>
<rect rx="6.0" ry="6.0" x="816.0" y="1676.4" width="52.0" height="52.0" class=""/>
<rect rx="6.0" ry="6.0" x="256.0" y="1754.8000000000002" width="52.0" height="52.0" class=""/>
<rect rx="6.0" ry="6.0" x="312.0" y="1754.8000000000002" width="52.0" height="52.0" class=""/>
<rect rx="6.0" ry="6.0" x="368.0" y="1726.8000000000002" width="52.0" height="80.0" class=""/>
<rect rx="6.0" ry="6.0" x="480.0" y="1726.8000000000002" width="52.0" height="80.0" class=""/>
<rect rx="6.0" ry="6.0" x="536.0" y="1754.8000000000002" width="52.0" height="52.0" class=""/>
<rect rx="6.0" ry="6.0" x="592.0" y="1754.8000000000002" width="52.0" height="52.0" class=""/>
</g>
<g class="layer-Adjust">
<text x="30.0" y="1836.8000000000002" class="label">Adjust:</text>
<rect rx="6.0" ry="6.0" x="32.0" y="1883.6000000000001" width="52.0" height="52.0" class=""/>
<rect rx="6.0" ry="6.0" x="88.0" y="1883.6000000000001" width="52.0" height="52.0" class=""/>
<text x="114.0" y="1909.6000000000001" class="tap">⌘Q</text>
<rect rx="6.0" ry="6.0" x="144.0" y="1872.4" width="52.0" height="52.0" class=""/>
<text x="170.0" y="1898.4" class="tap">⌘W</text>
<rect rx="6.0" ry="6.0" x="200.0" y="1866.8000000000002" width="52.0" height="52.0" class=""/>
<rect rx="6.0" ry="6.0" x="256.0" y="1872.4" width="52.0" height="52.0" class=""/>
<rect rx="6.0" ry="6.0" x="312.0" y="1878.0000000000002" width="52.0" height="52.0" class=""/>
<text x="338.0" y="1904.0000000000002" class="tap">⌘`</text>
<rect rx="6.0" ry="6.0" x="536.0" y="1878.0000000000002" width="52.0" height="52.0" class=""/>
<text x="562.0" y="1904.0000000000002" class="tap">
<tspan x="562.0" dy="-0.6em">BT</tspan><tspan x="562.0" dy="1.2em">CLR</tspan></text>
<rect rx="6.0" ry="6.0" x="592.0" y="1872.4" width="52.0" height="52.0" class=""/>
<text x="618.0" y="1898.4" class="tap">
<tspan x="618.0" dy="-0.6em">BT</tspan><tspan x="618.0" dy="1.2em">PRV</tspan></text>
<rect rx="6.0" ry="6.0" x="648.0" y="1866.8000000000002" width="52.0" height="52.0" class=""/>
<text x="674.0" y="1892.8000000000002" class="tap">
<tspan x="674.0" dy="-0.6em">BT</tspan><tspan x="674.0" dy="1.2em">NXT</tspan></text>
<rect rx="6.0" ry="6.0" x="704.0" y="1872.4" width="52.0" height="52.0" class=""/>
<text x="730.0" y="1898.4" class="tap">
<tspan x="730.0" dy="-1.7999999999999998em">EXT</tspan><tspan x="730.0" dy="1.2em">POWER</tspan><tspan x="730.0" dy="1.2em">TOGGLE</tspan><tspan x="730.0" dy="1.2em">CMD</tspan></text>
<rect rx="6.0" ry="6.0" x="760.0" y="1883.6000000000001" width="52.0" height="52.0" class=""/>
<text x="786.0" y="1909.6000000000001" class="tap">Base</text>
<rect rx="6.0" ry="6.0" x="816.0" y="1883.6000000000001" width="52.0" height="52.0" class=""/>
<text x="842.0" y="1909.6000000000001" class="tap">QWERTY</text>
<rect rx="6.0" ry="6.0" x="32.0" y="1939.6000000000001" width="52.0" height="52.0" class=""/>
<rect rx="6.0" ry="6.0" x="88.0" y="1939.6000000000001" width="52.0" height="52.0" class=""/>
<rect rx="6.0" ry="6.0" x="144.0" y="1928.4" width="52.0" height="52.0" class=""/>
<rect rx="6.0" ry="6.0" x="200.0" y="1922.8000000000002" width="52.0" height="52.0" class=""/>
<rect rx="6.0" ry="6.0" x="256.0" y="1928.4" width="52.0" height="52.0" class=""/>
<rect rx="6.0" ry="6.0" x="312.0" y="1934.0000000000002" width="52.0" height="52.0" class=""/>
<text x="338.0" y="1960.0000000000002" class="tap">⌘↹</text>
<rect rx="6.0" ry="6.0" x="536.0" y="1934.0000000000002" width="52.0" height="52.0" class=""/>
<text x="562.0" y="1960.0000000000002" class="tap">
<tspan x="562.0" dy="-0.6em">VOL</tspan><tspan x="562.0" dy="1.2em">MUTE</tspan></text>
<rect rx="6.0" ry="6.0" x="592.0" y="1928.4" width="52.0" height="52.0" class=""/>
<text x="618.0" y="1954.4" class="tap">⏮</text>
<rect rx="6.0" ry="6.0" x="648.0" y="1922.8000000000002" width="52.0" height="52.0" class=""/>
<text x="674.0" y="1948.8000000000002" class="tap">
<tspan x="674.0" dy="-0.6em">VOL</tspan><tspan x="674.0" dy="1.2em">DOWN</tspan></text>
<rect rx="6.0" ry="6.0" x="704.0" y="1928.4" width="52.0" height="52.0" class=""/>
<text x="730.0" y="1954.4" class="tap">
<tspan x="730.0" dy="-0.6em">VOL</tspan><tspan x="730.0" dy="1.2em">UP</tspan></text>
<rect rx="6.0" ry="6.0" x="760.0" y="1939.6000000000001" width="52.0" height="52.0" class=""/>
<text x="786.0" y="1965.6000000000001" class="tap">⏭</text>
<rect rx="6.0" ry="6.0" x="816.0" y="1939.6000000000001" width="52.0" height="52.0" class=""/>
<rect rx="6.0" ry="6.0" x="32.0" y="1995.6000000000001" width="52.0" height="52.0" class=""/>
<rect rx="6.0" ry="6.0" x="88.0" y="1995.6000000000001" width="52.0" height="52.0" class=""/>
<text x="114.0" y="2021.6000000000001" class="tap">⌘Z</text>
<rect rx="6.0" ry="6.0" x="144.0" y="1984.4" width="52.0" height="52.0" class=""/>
<text x="170.0" y="2010.4" class="tap">⌘X</text>
<rect rx="6.0" ry="6.0" x="200.0" y="1978.8000000000002" width="52.0" height="52.0" class=""/>
<text x="226.0" y="2004.8000000000002" class="tap">⌘C</text>
<rect rx="6.0" ry="6.0" x="256.0" y="1984.4" width="52.0" height="52.0" class=""/>
<rect rx="6.0" ry="6.0" x="312.0" y="1990.0000000000002" width="52.0" height="52.0" class=""/>
<text x="338.0" y="2016.0000000000002" class="tap">⌘V</text>
<rect rx="6.0" ry="6.0" x="536.0" y="1990.0000000000002" width="52.0" height="52.0" class=""/>
<rect rx="6.0" ry="6.0" x="592.0" y="1984.4" width="52.0" height="52.0" class=""/>
<text x="618.0" y="2010.4" class="tap">⏯</text>
<rect rx="6.0" ry="6.0" x="648.0" y="1978.8000000000002" width="52.0" height="52.0" class=""/>
<text x="674.0" y="2004.8000000000002" class="tap">☀↓</text>
<rect rx="6.0" ry="6.0" x="704.0" y="1984.4" width="52.0" height="52.0" class=""/>
<text x="730.0" y="2010.4" class="tap">☀↑</text>
<rect rx="6.0" ry="6.0" x="760.0" y="1995.6000000000001" width="52.0" height="52.0" class=""/>
<rect rx="6.0" ry="6.0" x="816.0" y="1995.6000000000001" width="52.0" height="52.0" class=""/>
<rect rx="6.0" ry="6.0" x="256.0" y="2074.0" width="52.0" height="52.0" class=""/>
<text x="282.0" y="2100.0" class="tap">Nav</text>
<rect rx="6.0" ry="6.0" x="312.0" y="2074.0" width="52.0" height="52.0" class=""/>
<rect rx="6.0" ry="6.0" x="368.0" y="2046.0" width="52.0" height="80.0" class="held"/>
<rect rx="6.0" ry="6.0" x="480.0" y="2046.0" width="52.0" height="80.0" class=""/>
<rect rx="6.0" ry="6.0" x="536.0" y="2074.0" width="52.0" height="52.0" class=""/>
<rect rx="6.0" ry="6.0" x="592.0" y="2074.0" width="52.0" height="52.0" class=""/>
</g>
</svg>
