<svg width="847.3040000000001" height="2249.449721323227" viewBox="0 0 847.3040000000001 2249.449721323227" class="keymap" xmlns="http://www.w3.org/2000/svg" xmlns:xlink="http://www.w3.org/1999/xlink">
<style>/* font and background color specifications */
svg {
    font-family: SFMono-Regular,Consolas,Liberation Mono,Menlo,monospace;
    font-size: 14px;
    font-kerning: normal;
    text-rendering: optimizeLegibility;
    fill: #24292e;
}

/* default key styling */
rect {
    fill: #f6f8fa;
    stroke: #c9cccf;
    stroke-width: 1;
}

/* color accent for combo boxes */
rect.combo {
    fill: #cdf;
}

/* color accent for held keys */
rect.held, rect.combo.held {
    fill: #fdd;
}

/* color accent for ghost (optional) keys */
rect.ghost, rect.combo.ghost {
    fill: #ddd;
}

text {
    text-anchor: middle;
    dominant-baseline: middle;
}

/* styling for layer labels */
text.label {
    font-weight: bold;
    text-anchor: start;
    stroke: white;
    stroke-width: 2;
    paint-order: stroke;
}

/* styling for combo tap, and key hold/shifted label text */
text.combo, text.hold, text.shifted {
    font-size: 11px;
}

text.hold {
    text-anchor: middle;
    dominant-baseline: auto;
}

text.shifted {
    text-anchor: middle;
    dominant-baseline: hanging;
}

/* styling for hold/shifted label text in combo box */
text.combo.hold, text.combo.shifted {
    font-size: 8px;
}

/* styling for combo dendrons */
path {
    stroke-width: 1;
    stroke: gray;
    fill: none;
}
</style>
<g class="layer-Base">
<text x="30.0" y="28.0" class="label">Base:</text>
<rect rx="6.0" ry="6.0" x="32.0" y="117.304" width="55.303999999999995" height="52.0" class="key"/>
<text x="59.652" y="143.304" class="tap">Q</text>
<rect rx="6.0" ry="6.0" x="91.30399999999999" y="77.768" width="55.303999999999995" height="52.0" class="key"/>
<text x="118.95599999999999" y="103.768" class="tap">W</text>
<rect rx="6.0" ry="6.0" x="150.608" y="58.0" width="55.303999999999995" height="52.0" class="key"/>
<text x="178.26" y="84.0" class="tap">F</text>
<text x="178.26" y="108.0" class="hold">HYPER</text>
<rect rx="6.0" ry="6.0" x="209.91200000000003" y="79.78399999999999" width="55.303999999999995" height="52.0" class="key"/>
<text x="237.56400000000002" y="105.78399999999999" class="tap">P</text>
<rect rx="6.0" ry="6.0" x="269.21599999999995" y="87.624" width="55.303999999999995" height="52.0" class="key"/>
<text x="296.86799999999994" y="113.624" class="tap">B</text>
<rect rx="6.0" ry="6.0" x="522.784" y="87.624" width="55.303999999999995" height="52.0" class="key"/>
<text x="550.436" y="113.624" class="tap">J</text>
<rect rx="6.0" ry="6.0" x="582.088" y="79.78399999999999" width="55.303999999999995" height="52.0" class="key"/>
<text x="609.74" y="105.78399999999999" class="tap">L</text>
<rect rx="6.0" ry="6.0" x="641.3919999999999" y="58.0" width="55.303999999999995" height="52.0" class="key"/>
<text x="669.044" y="84.0" class="tap">U</text>
<text x="669.044" y="108.0" class="hold">HYPER</text>
<rect rx="6.0" ry="6.0" x="700.696" y="77.768" width="55.303999999999995" height="52.0" class="key"/>
<text x="728.3480000000001" y="103.768" class="tap">Y</text>
<rect rx="6.0" ry="6.0" x="760.0" y="117.304" width="55.303999999999995" height="52.0" class="key"/>
<text x="787.652" y="143.304" class="tap">&#x27;</text>
<text x="787.652" y="119.304" class="shifted">&quot;</text>
<rect rx="6.0" ry="6.0" x="32.0" y="173.304" width="55.303999999999995" height="52.0" class="key"/>
<text x="59.652" y="199.304" class="tap">A</text>
<text x="59.652" y="223.304" class="hold">⌃</text>
<rect rx="6.0" ry="6.0" x="91.30399999999999" y="133.768" width="55.303999999999995" height="52.0" class="key"/>
<text x="118.95599999999999" y="159.768" class="tap">R</text>
<text x="118.95599999999999" y="183.768" class="hold">⎇</text>
<rect rx="6.0" ry="6.0" x="150.608" y="114.0" width="55.303999999999995" height="52.0" class="key"/>
<text x="178.26" y="140.0" class="tap">S</text>
<text x="178.26" y="164.0" class="hold">⌘</text>
<rect rx="6.0" ry="6.0" x="209.91200000000003" y="135.784" width="55.303999999999995" height="52.0" class="key"/>
<text x="237.56400000000002" y="161.784" class="tap">T</text>
<text x="237.56400000000002" y="185.784" class="hold">⇧</text>
<rect rx="6.0" ry="6.0" x="269.21599999999995" y="143.624" width="55.303999999999995" height="52.0" class="key"/>
<text x="296.86799999999994" y="169.624" class="tap">G</text>
<rect rx="6.0" ry="6.0" x="522.784" y="143.624" width="55.303999999999995" height="52.0" class="key"/>
<text x="550.436" y="169.624" class="tap">M</text>
<rect rx="6.0" ry="6.0" x="582.088" y="135.784" width="55.303999999999995" height="52.0" class="key"/>
<text x="609.74" y="161.784" class="tap">N</text>
<text x="609.74" y="185.784" class="hold">⇧</text>
<rect rx="6.0" ry="6.0" x="641.3919999999999" y="114.0" width="55.303999999999995" height="52.0" class="key"/>
<text x="669.044" y="140.0" class="tap">E</text>
<text x="669.044" y="164.0" class="hold">⌘</text>
<rect rx="6.0" ry="6.0" x="700.696" y="133.768" width="55.303999999999995" height="52.0" class="key"/>
<text x="728.3480000000001" y="159.768" class="tap">I</text>
<text x="728.3480000000001" y="183.768" class="hold">⎇</text>
<rect rx="6.0" ry="6.0" x="760.0" y="173.304" width="55.303999999999995" height="52.0" class="key"/>
<text x="787.652" y="199.304" class="tap">O</text>
<text x="787.652" y="223.304" class="hold">⌃</text>
<rect rx="6.0" ry="6.0" x="32.0" y="229.304" width="55.303999999999995" height="52.0" class="key"/>
<text x="59.652" y="255.304" class="tap">Z</text>
<rect rx="6.0" ry="6.0" x="91.30399999999999" y="189.768" width="55.303999999999995" height="52.0" class="key"/>
<text x="118.95599999999999" y="215.768" class="tap">X</text>
<rect rx="6.0" ry="6.0" x="150.608" y="170.0" width="55.303999999999995" height="52.0" class="key"/>
<text x="178.26" y="196.0" class="tap">C</text>
<text x="178.26" y="220.0" class="hold">MEH</text>
<rect rx="6.0" ry="6.0" x="209.91200000000003" y="191.84" width="55.303999999999995" height="52.0" class="key"/>
<text x="237.56400000000002" y="217.84" class="tap">D</text>
<rect rx="6.0" ry="6.0" x="269.21599999999995" y="199.624" width="55.303999999999995" height="52.0" class="key"/>
<text x="296.86799999999994" y="225.624" class="tap">V</text>
<rect rx="6.0" ry="6.0" x="522.784" y="199.624" width="55.303999999999995" height="52.0" class="key"/>
<text x="550.436" y="225.624" class="tap">K</text>
<rect rx="6.0" ry="6.0" x="582.088" y="191.84" width="55.303999999999995" height="52.0" class="key"/>
<text x="609.74" y="217.84" class="tap">H</text>
<rect rx="6.0" ry="6.0" x="641.3919999999999" y="170.0" width="55.303999999999995" height="52.0" class="key"/>
<text x="669.044" y="196.0" class="tap">,</text>
<text x="669.044" y="220.0" class="hold">MEH</text>
<text x="669.044" y="172.0" class="shifted">;</text>
<rect rx="6.0" ry="6.0" x="700.696" y="189.768" width="55.303999999999995" height="52.0" class="key"/>
<text x="728.3480000000001" y="215.768" class="tap">.</text>
<text x="728.3480000000001" y="191.768" class="shifted">:</text>
<rect rx="6.0" ry="6.0" x="760.0" y="229.304" width="55.303999999999995" height="52.0" class="key"/>
<text x="787.652" y="255.304" class="tap">/</text>
<text x="787.652" y="231.304" class="shifted">?</text>
<rect rx="6.0" ry="6.0" x="190.42400000000004" y="257.584" width="55.303999999999995" height="52.0" class="key"/>
<text x="218.07600000000002" y="283.584" class="tap">⎋</text>
<text x="218.07600000000002" y="307.584" class="hold">⌘</text>
<text x="218.07600000000002" y="259.584" class="shifted">~ `</text>
<g transform="rotate(15.0, 284.15695407686394, 292.0887530667371)">
<rect rx="6.0" ry="6.0" x="256.50495407686395" y="266.0887530667371" width="55.303999999999995" height="52.0" class="key"/>
<text x="284.15695407686394" y="292.0887530667371" class="tap">⎵</text>
<text x="284.15695407686394" y="316.0887530667371" class="hold">SYM</text>
<text x="284.15695407686394" y="268.0887530667371" class="shifted">_ -</text>
</g>
<g transform="rotate(30.0, 350.59357474425406, 301.868)">
<rect rx="6.0" ry="6.0" x="324.59357474425406" y="259.404" width="52.0" height="84.928" class="key"/>
<text x="350.59357474425406" y="301.868" class="tap">↹</text>
<text x="350.59357474425406" y="342.332" class="hold">Adjust</text>
</g>
<g transform="rotate(-30.0, 493.40642525574594, 301.868)">
<rect rx="6.0" ry="6.0" x="467.40642525574594" y="259.404" width="52.0" height="84.928" class="key"/>
<text x="493.40642525574594" y="301.868" class="tap">⌫</text>
<text x="493.40642525574594" y="261.404" class="shifted">⌦</text>
</g>
<g transform="rotate(-15.0, 563.0344648531952, 291.23361494171843)">
<rect rx="6.0" ry="6.0" x="535.3824648531952" y="265.23361494171843" width="55.303999999999995" height="52.0" class="key"/>
<text x="563.0344648531952" y="291.23361494171843" class="tap">⏎</text>
<text x="563.0344648531952" y="315.23361494171843" class="hold">Nav</text>
</g>
<rect rx="6.0" ry="6.0" x="601.5759999999999" y="257.584" width="55.303999999999995" height="52.0" class="key"/>
<text x="629.228" y="283.584" class="tap">0</text>
<text x="629.228" y="307.584" class="hold">Num</text>
<rect rx="6.0" ry="6.0" x="193.912" y="137.892" width="28.0" height="26.0" class="combo"/>
<text x="207.912" y="150.892" class="combo tap">(</text>
<rect rx="6.0" ry="6.0" x="625.392" y="137.892" width="28.0" height="26.0" class="combo"/>
<text x="639.392" y="150.892" class="combo tap">)</text>
<rect rx="6.0" ry="6.0" x="193.912" y="193.92000000000002" width="28.0" height="26.0" class="combo"/>
<text x="207.912" y="206.92000000000002" class="combo tap">[</text>
<rect rx="6.0" ry="6.0" x="625.392" y="193.92000000000002" width="28.0" height="26.0" class="combo"/>
<text x="639.392" y="206.92000000000002" class="combo tap">]</text>
<rect rx="6.0" ry="6.0" x="193.912" y="81.892" width="28.0" height="26.0" class="combo"/>
<text x="207.912" y="94.892" class="combo tap">{</text>
<rect rx="6.0" ry="6.0" x="625.392" y="81.892" width="28.0" height="26.0" class="combo"/>
<text x="639.392" y="94.892" class="combo tap">}</text>
<rect rx="6.0" ry="6.0" x="134.608" y="136.88400000000001" width="28.0" height="26.0" class="combo"/>
<text x="148.608" y="149.88400000000001" class="combo tap">&lt;</text>
<rect rx="6.0" ry="6.0" x="684.696" y="136.88400000000001" width="28.0" height="26.0" class="combo"/>
<text x="698.696" y="149.88400000000001" class="combo tap">&gt;</text>
<path d="M423.65200000000004,161.784 l-166.32000000000002,0.0" class="combo"/>
<path d="M423.65200000000004,161.784 l166.31999999999996,0.0" class="combo"/>
<rect rx="6.0" ry="6.0" x="409.65200000000004" y="148.784" width="28.0" height="26.0" class="combo"/>
<text x="423.65200000000004" y="161.784" class="combo tap">
<tspan x="423.65200000000004" dy="-0.6em">Caps</tspan><tspan x="423.65200000000004" dy="1.2em">Word</tspan></text>
<path d="M284.27550960703934,364.132 h-60.19950960703932 a6.0,6.0 0 0 1 -6.0,-6.0 v-55.88133333333333" class="combo"/>
<path d="M284.27550960703934,364.132 l-0.10012465432533674,-60.84326209832603" class="combo"/>
<path d="M284.27550960703934,364.132 h60.31806513721472 a6.0,6.0 0 0 0 6.0,-6.0 v-26.621333333333343" class="combo"/>
<rect rx="6.0" ry="6.0" x="270.27550960703934" y="351.132" width="28.0" height="26.0" class="combo"/>
<text x="284.27550960703934" y="364.132" class="combo tap">RET</text>
<rect rx="6.0" ry="6.0" x="303.375264410559" y="283.9783765333686" width="28.0" height="26.0" class="combo"/>
<text x="317.375264410559" y="296.9783765333686" class="combo tap">BSPC</text>
<path d="M178.26,176.784 h-53.304 a6.0,6.0 0 0 1 -6.0,-6.0 v7.650666666666677" class="combo"/>
<path d="M178.26,176.784 l0.0,-25.583999999999993" class="combo"/>
<path d="M178.26,176.784 h53.30400000000003 a6.0,6.0 0 0 0 6.0,-6.0 v9.666666666666668" class="combo"/>
<rect rx="6.0" ry="6.0" x="164.26" y="163.784" width="28.0" height="26.0" class="combo"/>
<text x="178.26" y="176.784" class="combo tap">NAV</text>
<path d="M178.26,246.84 h-53.304 a6.0,6.0 0 0 1 -6.0,-6.0 v-6.405333333333335" class="combo"/>
<path d="M178.26,246.84 l0.0,-39.64000000000001" class="combo"/>
<path d="M178.26,246.84 h53.30400000000003 a6.0,6.0 0 0 0 6.0,-6.0 v-4.333333333333332" class="combo"/>
<rect rx="6.0" ry="6.0" x="164.26" y="233.84" width="28.0" height="26.0" class="combo"/>
<text x="178.26" y="246.84" class="combo tap">NUM</text>
</g>
<g class="layer-Nav">
<text x="30.0" y="399.17495355387126" class="label">Nav:</text>
<rect rx="6.0" ry="6.0" x="32.0" y="488.4789535538713" width="55.303999999999995" height="52.0" class="key"/>
<rect rx="6.0" ry="6.0" x="91.30399999999999" y="448.94295355387123" width="55.303999999999995" height="52.0" class="key"/>
<text x="118.95599999999999" y="474.94295355387123" class="tap">⇤</text>
<rect rx="6.0" ry="6.0" x="150.608" y="429.17495355387126" width="55.303999999999995" height="52.0" class="key"/>
<rect rx="6.0" ry="6.0" x="209.91200000000003" y="450.95895355387125" width="55.303999999999995" height="52.0" class="key"/>
<text x="237.56400000000002" y="476.95895355387125" class="tap">⇥</text>
<rect rx="6.0" ry="6.0" x="269.21599999999995" y="458.79895355387123" width="55.303999999999995" height="52.0" class="key"/>
<text x="296.86799999999994" y="484.79895355387123" class="tap">
<tspan x="296.86799999999994" dy="-0.6em">PG</tspan><tspan x="296.86799999999994" dy="1.2em">UP</tspan></text>
<rect rx="6.0" ry="6.0" x="522.784" y="458.79895355387123" width="55.303999999999995" height="52.0" class="key"/>
<rect rx="6.0" ry="6.0" x="582.088" y="450.95895355387125" width="55.303999999999995" height="52.0" class="key"/>
<rect rx="6.0" ry="6.0" x="641.3919999999999" y="429.17495355387126" width="55.303999999999995" height="52.0" class="key"/>
<text x="669.044" y="455.17495355387126" class="tap">HYPER</text>
<rect rx="6.0" ry="6.0" x="700.696" y="448.94295355387123" width="55.303999999999995" height="52.0" class="key"/>
<rect rx="6.0" ry="6.0" x="760.0" y="488.4789535538713" width="55.303999999999995" height="52.0" class="key"/>
<rect rx="6.0" ry="6.0" x="32.0" y="544.4789535538713" width="55.303999999999995" height="52.0" class="key"/>
<text x="59.652" y="570.4789535538713" class="tap">
<tspan x="59.652" dy="-0.6em">⇧</tspan><tspan x="59.652" dy="1.2em">Lock</tspan></text>
<rect rx="6.0" ry="6.0" x="91.30399999999999" y="504.94295355387123" width="55.303999999999995" height="52.0" class="key"/>
<text x="118.95599999999999" y="530.9429535538712" class="tap">←</text>
<rect rx="6.0" ry="6.0" x="150.608" y="485.17495355387126" width="55.303999999999995" height="52.0" class="key"/>
<text x="178.26" y="511.17495355387126" class="tap">↑</text>
<rect rx="6.0" ry="6.0" x="209.91200000000003" y="506.9589535538713" width="55.303999999999995" height="52.0" class="key"/>
<text x="237.56400000000002" y="532.9589535538713" class="tap">→</text>
<rect rx="6.0" ry="6.0" x="269.21599999999995" y="514.7989535538712" width="55.303999999999995" height="52.0" class="key"/>
<text x="296.86799999999994" y="540.7989535538712" class="tap">
<tspan x="296.86799999999994" dy="-0.6em">PG</tspan><tspan x="296.86799999999994" dy="1.2em">DN</tspan></text>
<rect rx="6.0" ry="6.0" x="522.784" y="514.7989535538712" width="55.303999999999995" height="52.0" class="key"/>
<rect rx="6.0" ry="6.0" x="582.088" y="506.9589535538713" width="55.303999999999995" height="52.0" class="key"/>
<text x="609.74" y="532.9589535538713" class="tap">⇧</text>
<rect rx="6.0" ry="6.0" x="641.3919999999999" y="485.17495355387126" width="55.303999999999995" height="52.0" class="key"/>
<text x="669.044" y="511.17495355387126" class="tap">⌘</text>
<rect rx="6.0" ry="6.0" x="700.696" y="504.94295355387123" width="55.303999999999995" height="52.0" class="key"/>
<text x="728.3480000000001" y="530.9429535538712" class="tap">⎇</text>
<rect rx="6.0" ry="6.0" x="760.0" y="544.4789535538713" width="55.303999999999995" height="52.0" class="key"/>
<text x="787.652" y="570.4789535538713" class="tap">⌃</text>
<rect rx="6.0" ry="6.0" x="32.0" y="600.4789535538713" width="55.303999999999995" height="52.0" class="key"/>
<rect rx="6.0" ry="6.0" x="91.30399999999999" y="560.9429535538712" width="55.303999999999995" height="52.0" class="key"/>
<text x="118.95599999999999" y="586.9429535538712" class="tap">↞</text>
<rect rx="6.0" ry="6.0" x="150.608" y="541.1749535538713" width="55.303999999999995" height="52.0" class="key"/>
<text x="178.26" y="567.1749535538713" class="tap">↓</text>
<rect rx="6.0" ry="6.0" x="209.91200000000003" y="563.0149535538712" width="55.303999999999995" height="52.0" class="key"/>
<text x="237.56400000000002" y="589.0149535538712" class="tap">↠</text>
<rect rx="6.0" ry="6.0" x="269.21599999999995" y="570.7989535538712" width="55.303999999999995" height="52.0" class="key"/>
<rect rx="6.0" ry="6.0" x="522.784" y="570.7989535538712" width="55.303999999999995" height="52.0" class="key"/>
<rect rx="6.0" ry="6.0" x="582.088" y="563.0149535538712" width="55.303999999999995" height="52.0" class="key"/>
<rect rx="6.0" ry="6.0" x="641.3919999999999" y="541.1749535538713" width="55.303999999999995" height="52.0" class="key"/>
<text x="669.044" y="567.1749535538713" class="tap">MEH</text>
<rect rx="6.0" ry="6.0" x="700.696" y="560.9429535538712" width="55.303999999999995" height="52.0" class="key"/>
<rect rx="6.0" ry="6.0" x="760.0" y="600.4789535538713" width="55.303999999999995" height="52.0" class="key"/>
<rect rx="6.0" ry="6.0" x="190.42400000000004" y="628.7589535538713" width="55.303999999999995" height="52.0" class="key"/>
<text x="218.07600000000002" y="654.7589535538713" class="tap">
<tspan x="218.07600000000002" dy="-1.2em">Cancel</tspan><tspan x="218.07600000000002" dy="1.2em">Nav</tspan></text>
<text x="218.07600000000002" y="678.7589535538713" class="hold">⌘</text>
<g transform="rotate(15.0, 284.15695407686394, 663.2637066206084)">
<rect rx="6.0" ry="6.0" x="256.50495407686395" y="637.2637066206084" width="55.303999999999995" height="52.0" class="trans key"/>
<text x="284.15695407686394" y="663.2637066206084" class="trans tap">▽</text>
</g>
<g transform="rotate(30.0, 350.59357474425406, 673.0429535538713)">
<rect rx="6.0" ry="6.0" x="324.59357474425406" y="630.5789535538713" width="52.0" height="84.928" class="trans key"/>
<text x="350.59357474425406" y="673.0429535538713" class="trans tap">▽</text>
</g>
<g transform="rotate(-30.0, 493.40642525574594, 673.0429535538713)">
<rect rx="6.0" ry="6.0" x="467.40642525574594" y="630.5789535538713" width="52.0" height="84.928" class="trans key"/>
<text x="493.40642525574594" y="673.0429535538713" class="trans tap">▽</text>
</g>
<g transform="rotate(-15.0, 563.0344648531952, 662.4085684955896)">
<rect rx="6.0" ry="6.0" x="535.3824648531952" y="636.4085684955896" width="55.303999999999995" height="52.0" class="held key"/>
</g>
<rect rx="6.0" ry="6.0" x="601.5759999999999" y="628.7589535538713" width="55.303999999999995" height="52.0" class="trans key"/>
<text x="629.228" y="654.7589535538713" class="trans tap">▽</text>
<path d="M284.27550960703934,735.3069535538713 h-60.19950960703932 a6.0,6.0 0 0 1 -6.0,-6.0 v-55.88133333333333" class="combo"/>
<path d="M284.27550960703934,735.3069535538713 l-0.10012465432533672,-60.84326209832598" class="combo"/>
<path d="M284.27550960703934,735.3069535538713 h60.31806513721472 a6.0,6.0 0 0 0 6.0,-6.0 v-26.621333333333343" class="combo"/>
<rect rx="6.0" ry="6.0" x="270.27550960703934" y="722.3069535538713" width="28.0" height="26.0" class="combo"/>
<text x="284.27550960703934" y="735.3069535538713" class="combo tap">RET</text>
<rect rx="6.0" ry="6.0" x="303.375264410559" y="655.1533300872399" width="28.0" height="26.0" class="combo"/>
<text x="317.375264410559" y="668.1533300872399" class="combo tap">BSPC</text>
<path d="M178.26,618.0149535538712 h-53.304 a6.0,6.0 0 0 1 -6.0,-6.0 v-6.405333333333335" class="combo"/>
<path d="M178.26,618.0149535538712 l0.0,-39.639999999999915" class="combo"/>
<path d="M178.26,618.0149535538712 h53.30400000000003 a6.0,6.0 0 0 0 6.0,-6.0 v-4.333333333333332" class="combo"/>
<rect rx="6.0" ry="6.0" x="164.26" y="605.0149535538712" width="28.0" height="26.0" class="combo"/>
<text x="178.26" y="618.0149535538712" class="combo tap">NUM</text>
</g>
<g class="layer-Num">
<text x="30.0" y="770.3499071077425" class="label">Num:</text>
<rect rx="6.0" ry="6.0" x="32.0" y="859.6539071077425" width="55.303999999999995" height="52.0" class="key"/>
<rect rx="6.0" ry="6.0" x="91.30399999999999" y="820.1179071077426" width="55.303999999999995" height="52.0" class="key"/>
<text x="118.95599999999999" y="846.1179071077426" class="tap">7</text>
<rect rx="6.0" ry="6.0" x="150.608" y="800.3499071077425" width="55.303999999999995" height="52.0" class="key"/>
<text x="178.26" y="826.3499071077425" class="tap">8</text>
<rect rx="6.0" ry="6.0" x="209.91200000000003" y="822.1339071077425" width="55.303999999999995" height="52.0" class="key"/>
<text x="237.56400000000002" y="848.1339071077425" class="tap">9</text>
<rect rx="6.0" ry="6.0" x="269.21599999999995" y="829.9739071077425" width="55.303999999999995" height="52.0" class="key"/>
<rect rx="6.0" ry="6.0" x="522.784" y="829.9739071077425" width="55.303999999999995" height="52.0" class="key"/>
<rect rx="6.0" ry="6.0" x="582.088" y="822.1339071077425" width="55.303999999999995" height="52.0" class="key"/>
<text x="609.74" y="848.1339071077425" class="tap">$</text>
<rect rx="6.0" ry="6.0" x="641.3919999999999" y="800.3499071077425" width="55.303999999999995" height="52.0" class="key"/>
<text x="669.044" y="826.3499071077425" class="tap">HYPER</text>
<rect rx="6.0" ry="6.0" x="700.696" y="820.1179071077426" width="55.303999999999995" height="52.0" class="key"/>
<rect rx="6.0" ry="6.0" x="760.0" y="859.6539071077425" width="55.303999999999995" height="52.0" class="key"/>
<rect rx="6.0" ry="6.0" x="32.0" y="915.6539071077425" width="55.303999999999995" height="52.0" class="key"/>
<text x="59.652" y="941.6539071077425" class="tap">0</text>
<text x="59.652" y="965.6539071077425" class="hold">⌃</text>
<rect rx="6.0" ry="6.0" x="91.30399999999999" y="876.1179071077426" width="55.303999999999995" height="52.0" class="key"/>
<text x="118.95599999999999" y="902.1179071077426" class="tap">4</text>
<text x="118.95599999999999" y="926.1179071077426" class="hold">⎇</text>
<rect rx="6.0" ry="6.0" x="150.608" y="856.3499071077425" width="55.303999999999995" height="52.0" class="key"/>
<text x="178.26" y="882.3499071077425" class="tap">5</text>
<rect rx="6.0" ry="6.0" x="209.91200000000003" y="878.1339071077425" width="55.303999999999995" height="52.0" class="key"/>
<text x="237.56400000000002" y="904.1339071077425" class="tap">6</text>
<text x="237.56400000000002" y="928.1339071077425" class="hold">⇧</text>
<rect rx="6.0" ry="6.0" x="269.21599999999995" y="885.9739071077425" width="55.303999999999995" height="52.0" class="key"/>
<text x="296.86799999999994" y="911.9739071077425" class="tap">0</text>
<rect rx="6.0" ry="6.0" x="522.784" y="885.9739071077425" width="55.303999999999995" height="52.0" class="key"/>
<text x="550.436" y="911.9739071077425" class="tap">+</text>
<rect rx="6.0" ry="6.0" x="582.088" y="878.1339071077425" width="55.303999999999995" height="52.0" class="key"/>
<text x="609.74" y="904.1339071077425" class="tap">⇧</text>
<rect rx="6.0" ry="6.0" x="641.3919999999999" y="856.3499071077425" width="55.303999999999995" height="52.0" class="key"/>
<text x="669.044" y="882.3499071077425" class="tap">=</text>
<text x="669.044" y="906.3499071077425" class="hold">⌘</text>
<text x="669.044" y="858.3499071077425" class="shifted">+</text>
<rect rx="6.0" ry="6.0" x="700.696" y="876.1179071077426" width="55.303999999999995" height="52.0" class="key"/>
<text x="728.3480000000001" y="902.1179071077426" class="tap">⎇</text>
<rect rx="6.0" ry="6.0" x="760.0" y="915.6539071077425" width="55.303999999999995" height="52.0" class="key"/>
<text x="787.652" y="941.6539071077425" class="tap">*</text>
<text x="787.652" y="965.6539071077425" class="hold">⌃</text>
<rect rx="6.0" ry="6.0" x="32.0" y="971.6539071077425" width="55.303999999999995" height="52.0" class="key"/>
<rect rx="6.0" ry="6.0" x="91.30399999999999" y="932.1179071077426" width="55.303999999999995" height="52.0" class="key"/>
<text x="118.95599999999999" y="958.1179071077426" class="tap">1</text>
<rect rx="6.0" ry="6.0" x="150.608" y="912.3499071077425" width="55.303999999999995" height="52.0" class="key"/>
<text x="178.26" y="938.3499071077425" class="tap">2</text>
<rect rx="6.0" ry="6.0" x="209.91200000000003" y="934.1899071077426" width="55.303999999999995" height="52.0" class="key"/>
<text x="237.56400000000002" y="960.1899071077426" class="tap">3</text>
<rect rx="6.0" ry="6.0" x="269.21599999999995" y="941.9739071077425" width="55.303999999999995" height="52.0" class="key"/>
<rect rx="6.0" ry="6.0" x="522.784" y="941.9739071077425" width="55.303999999999995" height="52.0" class="key"/>
<text x="550.436" y="967.9739071077425" class="tap">%</text>
<rect rx="6.0" ry="6.0" x="582.088" y="934.1899071077426" width="55.303999999999995" height="52.0" class="key"/>
<text x="609.74" y="960.1899071077426" class="tap">-</text>
<text x="609.74" y="936.1899071077426" class="shifted">_</text>
<rect rx="6.0" ry="6.0" x="641.3919999999999" y="912.3499071077425" width="55.303999999999995" height="52.0" class="key"/>
<text x="669.044" y="938.3499071077425" class="tap">,</text>
<text x="669.044" y="962.3499071077425" class="hold">MEH</text>
<text x="669.044" y="914.3499071077425" class="shifted">;</text>
<rect rx="6.0" ry="6.0" x="700.696" y="932.1179071077426" width="55.303999999999995" height="52.0" class="key"/>
<text x="728.3480000000001" y="958.1179071077426" class="tap">.</text>
<text x="728.3480000000001" y="934.1179071077426" class="shifted">:</text>
<rect rx="6.0" ry="6.0" x="760.0" y="971.6539071077425" width="55.303999999999995" height="52.0" class="key"/>
<text x="787.652" y="997.6539071077425" class="tap">/</text>
<text x="787.652" y="973.6539071077425" class="shifted">?</text>
<rect rx="6.0" ry="6.0" x="190.42400000000004" y="999.9339071077425" width="55.303999999999995" height="52.0" class="key"/>
<text x="218.07600000000002" y="1025.9339071077425" class="tap">
<tspan x="218.07600000000002" dy="-1.2em">Cancel</tspan><tspan x="218.07600000000002" dy="1.2em">Num</tspan></text>
<text x="218.07600000000002" y="1049.9339071077425" class="hold">⌘</text>
<g transform="rotate(15.0, 284.15695407686394, 1034.4386601744798)">
<rect rx="6.0" ry="6.0" x="256.50495407686395" y="1008.4386601744798" width="55.303999999999995" height="52.0" class="trans key"/>
<text x="284.15695407686394" y="1034.4386601744798" class="trans tap">▽</text>
</g>
<g transform="rotate(30.0, 350.59357474425406, 1044.2179071077426)">
<rect rx="6.0" ry="6.0" x="324.59357474425406" y="1001.7539071077426" width="52.0" height="84.928" class="trans key"/>
<text x="350.59357474425406" y="1044.2179071077426" class="trans tap">▽</text>
</g>
<g transform="rotate(-30.0, 493.40642525574594, 1044.2179071077426)">
<rect rx="6.0" ry="6.0" x="467.40642525574594" y="1001.7539071077426" width="52.0" height="84.928" class="trans key"/>
<text x="493.40642525574594" y="1044.2179071077426" class="trans tap">▽</text>
</g>
<g transform="rotate(-15.0, 563.0344648531952, 1033.583522049461)">
<rect rx="6.0" ry="6.0" x="535.3824648531952" y="1007.583522049461" width="55.303999999999995" height="52.0" class="trans key"/>
<text x="563.0344648531952" y="1033.583522049461" class="trans tap">▽</text>
</g>
<rect rx="6.0" ry="6.0" x="601.5759999999999" y="999.9339071077425" width="55.303999999999995" height="52.0" class="held key"/>
<rect rx="6.0" ry="6.0" x="193.912" y="880.2419071077425" width="28.0" height="26.0" class="combo"/>
<text x="207.912" y="893.2419071077425" class="combo tap">(</text>
<rect rx="6.0" ry="6.0" x="625.392" y="880.2419071077425" width="28.0" height="26.0" class="combo"/>
<text x="639.392" y="893.2419071077425" class="combo tap">)</text>
<rect rx="6.0" ry="6.0" x="193.912" y="936.2699071077425" width="28.0" height="26.0" class="combo"/>
<text x="207.912" y="949.2699071077425" class="combo tap">[</text>
<rect rx="6.0" ry="6.0" x="625.392" y="936.2699071077425" width="28.0" height="26.0" class="combo"/>
<text x="639.392" y="949.2699071077425" class="combo tap">]</text>
<rect rx="6.0" ry="6.0" x="193.912" y="824.2419071077425" width="28.0" height="26.0" class="combo"/>
<text x="207.912" y="837.2419071077425" class="combo tap">{</text>
<rect rx="6.0" ry="6.0" x="625.392" y="824.2419071077425" width="28.0" height="26.0" class="combo"/>
<text x="639.392" y="837.2419071077425" class="combo tap">}</text>
<rect rx="6.0" ry="6.0" x="134.608" y="879.2339071077425" width="28.0" height="26.0" class="combo"/>
<text x="148.608" y="892.2339071077425" class="combo tap">&lt;</text>
<rect rx="6.0" ry="6.0" x="684.696" y="879.2339071077425" width="28.0" height="26.0" class="combo"/>
<text x="698.696" y="892.2339071077425" class="combo tap">&gt;</text>
<path d="M284.27550960703934,1106.4819071077425 h-60.19950960703932 a6.0,6.0 0 0 1 -6.0,-6.0 v-55.88133333333333" class="combo"/>
<path d="M284.27550960703934,1106.4819071077425 l-0.10012465432533671,-60.843262098325866" class="combo"/>
<path d="M284.27550960703934,1106.4819071077425 h60.31806513721472 a6.0,6.0 0 0 0 6.0,-6.0 v-26.62133333333323" class="combo"/>
<rect rx="6.0" ry="6.0" x="270.27550960703934" y="1093.4819071077425" width="28.0" height="26.0" class="combo"/>
<text x="284.27550960703934" y="1106.4819071077425" class="combo tap">RET</text>
<rect rx="6.0" ry="6.0" x="303.375264410559" y="1026.328283641111" width="28.0" height="26.0" class="combo"/>
<text x="317.375264410559" y="1039.328283641111" class="combo tap">BSPC</text>
<path d="M178.26,919.1339071077425 h-53.304 a6.0,6.0 0 0 1 -6.0,-6.0 v7.650666666666705" class="combo"/>
<path d="M178.26,919.1339071077425 l0.0,-25.583999999999993" class="combo"/>
<path d="M178.26,919.1339071077425 h53.30400000000003 a6.0,6.0 0 0 0 6.0,-6.0 v9.666666666666668" class="combo"/>
<rect rx="6.0" ry="6.0" x="164.26" y="906.1339071077425" width="28.0" height="26.0" class="combo"/>
<text x="178.26" y="919.1339071077425" class="combo tap">NAV</text>
</g>
<g class="layer-Sym">
<text x="30.0" y="1141.5248606616137" class="label">Sym:</text>
<rect rx="6.0" ry="6.0" x="32.0" y="1230.8288606616138" width="55.303999999999995" height="52.0" class="key"/>
<text x="59.652" y="1256.8288606616138" class="tap">⌘Q</text>
<rect rx="6.0" ry="6.0" x="91.30399999999999" y="1191.2928606616138" width="55.303999999999995" height="52.0" class="key"/>
<text x="118.95599999999999" y="1217.2928606616138" class="tap">⌘W</text>
<rect rx="6.0" ry="6.0" x="150.608" y="1171.5248606616137" width="55.303999999999995" height="52.0" class="key"/>
<text x="178.26" y="1197.5248606616137" class="tap">⌃⇧↹</text>
<rect rx="6.0" ry="6.0" x="209.91200000000003" y="1193.3088606616138" width="55.303999999999995" height="52.0" class="key"/>
<text x="237.56400000000002" y="1219.3088606616138" class="tap">⌃↹</text>
<rect rx="6.0" ry="6.0" x="269.21599999999995" y="1201.1488606616138" width="55.303999999999995" height="52.0" class="key"/>
<text x="296.86799999999994" y="1227.1488606616138" class="tap">⌘`</text>
<rect rx="6.0" ry="6.0" x="522.784" y="1201.1488606616138" width="55.303999999999995" height="52.0" class="key"/>
<text x="550.436" y="1227.1488606616138" class="tap">~</text>
<rect rx="6.0" ry="6.0" x="582.088" y="1193.3088606616138" width="55.303999999999995" height="52.0" class="key"/>
<text x="609.74" y="1219.3088606616138" class="tap">$</text>
<rect rx="6.0" ry="6.0" x="641.3919999999999" y="1171.5248606616137" width="55.303999999999995" height="52.0" class="key"/>
<text x="669.044" y="1197.5248606616137" class="tap">&amp;</text>
<rect rx="6.0" ry="6.0" x="700.696" y="1191.2928606616138" width="55.303999999999995" height="52.0" class="key"/>
<text x="728.3480000000001" y="1217.2928606616138" class="tap">|</text>
<rect rx="6.0" ry="6.0" x="760.0" y="1230.8288606616138" width="55.303999999999995" height="52.0" class="key"/>
<text x="787.652" y="1256.8288606616138" class="tap">`</text>
<text x="787.652" y="1232.8288606616138" class="shifted">^</text>
<rect rx="6.0" ry="6.0" x="32.0" y="1286.8288606616138" width="55.303999999999995" height="52.0" class="key"/>
<text x="59.652" y="1312.8288606616138" class="tap">⌃</text>
<rect rx="6.0" ry="6.0" x="91.30399999999999" y="1247.2928606616138" width="55.303999999999995" height="52.0" class="key"/>
<text x="118.95599999999999" y="1273.2928606616138" class="tap">⎇</text>
<rect rx="6.0" ry="6.0" x="150.608" y="1227.5248606616137" width="55.303999999999995" height="52.0" class="key"/>
<text x="178.26" y="1253.5248606616137" class="tap">⌘</text>
<rect rx="6.0" ry="6.0" x="209.91200000000003" y="1249.3088606616138" width="55.303999999999995" height="52.0" class="key"/>
<text x="237.56400000000002" y="1275.3088606616138" class="tap">⇧</text>
<rect rx="6.0" ry="6.0" x="269.21599999999995" y="1257.1488606616138" width="55.303999999999995" height="52.0" class="key"/>
<text x="296.86799999999994" y="1283.1488606616138" class="tap">⌘↹</text>
<rect rx="6.0" ry="6.0" x="522.784" y="1257.1488606616138" width="55.303999999999995" height="52.0" class="key"/>
<text x="550.436" y="1283.1488606616138" class="tap">+</text>
<rect rx="6.0" ry="6.0" x="582.088" y="1249.3088606616138" width="55.303999999999995" height="52.0" class="key"/>
<text x="609.74" y="1275.3088606616138" class="tap">!</text>
<rect rx="6.0" ry="6.0" x="641.3919999999999" y="1227.5248606616137" width="55.303999999999995" height="52.0" class="key"/>
<text x="669.044" y="1253.5248606616137" class="tap">=</text>
<text x="669.044" y="1229.5248606616137" class="shifted">+</text>
<rect rx="6.0" ry="6.0" x="700.696" y="1247.2928606616138" width="55.303999999999995" height="52.0" class="key"/>
<text x="728.3480000000001" y="1273.2928606616138" class="tap">#</text>
<rect rx="6.0" ry="6.0" x="760.0" y="1286.8288606616138" width="55.303999999999995" height="52.0" class="key"/>
<text x="787.652" y="1312.8288606616138" class="tap">*</text>
<rect rx="6.0" ry="6.0" x="32.0" y="1342.8288606616138" width="55.303999999999995" height="52.0" class="key"/>
<text x="59.652" y="1368.8288606616138" class="tap">⌘Z</text>
<rect rx="6.0" ry="6.0" x="91.30399999999999" y="1303.2928606616138" width="55.303999999999995" height="52.0" class="key"/>
<text x="118.95599999999999" y="1329.2928606616138" class="tap">⌘X</text>
<rect rx="6.0" ry="6.0" x="150.608" y="1283.5248606616137" width="55.303999999999995" height="52.0" class="key"/>
<text x="178.26" y="1309.5248606616137" class="tap">⌘C</text>
<rect rx="6.0" ry="6.0" x="209.91200000000003" y="1305.3648606616136" width="55.303999999999995" height="52.0" class="key"/>
<rect rx="6.0" ry="6.0" x="269.21599999999995" y="1313.1488606616138" width="55.303999999999995" height="52.0" class="key"/>
<text x="296.86799999999994" y="1339.1488606616138" class="tap">⌘V</text>
<rect rx="6.0" ry="6.0" x="522.784" y="1313.1488606616138" width="55.303999999999995" height="52.0" class="key"/>
<text x="550.436" y="1339.1488606616138" class="tap">%</text>
<rect rx="6.0" ry="6.0" x="582.088" y="1305.3648606616136" width="55.303999999999995" height="52.0" class="key"/>
<text x="609.74" y="1331.3648606616136" class="tap">-</text>
<text x="609.74" y="1307.3648606616136" class="shifted">_</text>
<rect rx="6.0" ry="6.0" x="641.3919999999999" y="1283.5248606616137" width="55.303999999999995" height="52.0" class="key"/>
<text x="669.044" y="1309.5248606616137" class="tap">_</text>
<rect rx="6.0" ry="6.0" x="700.696" y="1303.2928606616138" width="55.303999999999995" height="52.0" class="key"/>
<text x="728.3480000000001" y="1329.2928606616138" class="tap">@</text>
<rect rx="6.0" ry="6.0" x="760.0" y="1342.8288606616138" width="55.303999999999995" height="52.0" class="key"/>
<text x="787.652" y="1368.8288606616138" class="tap">\</text>
<text x="787.652" y="1344.8288606616138" class="shifted">|</text>
<rect rx="6.0" ry="6.0" x="190.42400000000004" y="1371.1088606616138" width="55.303999999999995" height="52.0" class="key"/>
<text x="218.07600000000002" y="1397.1088606616138" class="tap">
<tspan x="218.07600000000002" dy="-1.2em">Cancel</tspan><tspan x="218.07600000000002" dy="1.2em">Sym</tspan></text>
<text x="218.07600000000002" y="1421.1088606616138" class="hold">⌘</text>
<g transform="rotate(15.0, 284.15695407686394, 1405.6136137283509)">
<rect rx="6.0" ry="6.0" x="256.50495407686395" y="1379.6136137283509" width="55.303999999999995" height="52.0" class="trans key"/>
<text x="284.15695407686394" y="1405.6136137283509" class="trans tap">▽</text>
</g>
<g transform="rotate(30.0, 350.59357474425406, 1415.3928606616137)">
<rect rx="6.0" ry="6.0" x="324.59357474425406" y="1372.9288606616137" width="52.0" height="84.928" class="trans key"/>
<text x="350.59357474425406" y="1415.3928606616137" class="trans tap">▽</text>
</g>
<g transform="rotate(-30.0, 493.40642525574594, 1415.3928606616137)">
<rect rx="6.0" ry="6.0" x="467.40642525574594" y="1372.9288606616137" width="52.0" height="84.928" class="trans key"/>
<text x="493.40642525574594" y="1415.3928606616137" class="trans tap">▽</text>
</g>
<g transform="rotate(-15.0, 563.0344648531952, 1404.758475603332)">
<rect rx="6.0" ry="6.0" x="535.3824648531952" y="1378.758475603332" width="55.303999999999995" height="52.0" class="trans key"/>
<text x="563.0344648531952" y="1404.758475603332" class="trans tap">▽</text>
</g>
<rect rx="6.0" ry="6.0" x="601.5759999999999" y="1371.1088606616138" width="55.303999999999995" height="52.0" class="trans key"/>
<text x="629.228" y="1397.1088606616138" class="trans tap">▽</text>
<rect rx="6.0" ry="6.0" x="193.912" y="1251.4168606616138" width="28.0" height="26.0" class="combo"/>
<text x="207.912" y="1264.4168606616138" class="combo tap">(</text>
<rect rx="6.0" ry="6.0" x="625.392" y="1251.4168606616138" width="28.0" height="26.0" class="combo"/>
<text x="639.392" y="1264.4168606616138" class="combo tap">)</text>
<rect rx="6.0" ry="6.0" x="193.912" y="1307.4448606616138" width="28.0" height="26.0" class="combo"/>
<text x="207.912" y="1320.4448606616138" class="combo tap">[</text>
<rect rx="6.0" ry="6.0" x="625.392" y="1307.4448606616138" width="28.0" height="26.0" class="combo"/>
<text x="639.392" y="1320.4448606616138" class="combo tap">]</text>
<rect rx="6.0" ry="6.0" x="193.912" y="1195.4168606616138" width="28.0" height="26.0" class="combo"/>
<text x="207.912" y="1208.4168606616138" class="combo tap">{</text>
<rect rx="6.0" ry="6.0" x="625.392" y="1195.4168606616138" width="28.0" height="26.0" class="combo"/>
<text x="639.392" y="1208.4168606616138" class="combo tap">}</text>
<rect rx="6.0" ry="6.0" x="134.608" y="1250.4088606616137" width="28.0" height="26.0" class="combo"/>
<text x="148.608" y="1263.4088606616137" class="combo tap">&lt;</text>
<rect rx="6.0" ry="6.0" x="684.696" y="1250.4088606616137" width="28.0" height="26.0" class="combo"/>
<text x="698.696" y="1263.4088606616137" class="combo tap">&gt;</text>
<path d="M284.27550960703934,1477.6568606616138 h-60.19950960703932 a6.0,6.0 0 0 1 -6.0,-6.0 v-55.88133333333333" class="combo"/>
<path d="M284.27550960703934,1477.6568606616138 l-0.10012465432533675,-60.843262098326086" class="combo"/>
<path d="M284.27550960703934,1477.6568606616138 h60.31806513721472 a6.0,6.0 0 0 0 6.0,-6.0 v-26.621333333333457" class="combo"/>
<rect rx="6.0" ry="6.0" x="270.27550960703934" y="1464.6568606616138" width="28.0" height="26.0" class="combo"/>
<text x="284.27550960703934" y="1477.6568606616138" class="combo tap">RET</text>
<rect rx="6.0" ry="6.0" x="303.375264410559" y="1397.5032371949824" width="28.0" height="26.0" class="combo"/>
<text x="317.375264410559" y="1410.5032371949824" class="combo tap">BSPC</text>
</g>
<g class="layer-Func">
<text x="30.0" y="1512.699814215485" class="label">Func:</text>
<rect rx="6.0" ry="6.0" x="32.0" y="1602.0038142154851" width="55.303999999999995" height="52.0" class="trans key"/>
<text x="59.652" y="1628.0038142154851" class="trans tap">▽</text>
<rect rx="6.0" ry="6.0" x="91.30399999999999" y="1562.467814215485" width="55.303999999999995" height="52.0" class="key"/>
<text x="118.95599999999999" y="1588.467814215485" class="tap">F7</text>
<rect rx="6.0" ry="6.0" x="150.608" y="1542.699814215485" width="55.303999999999995" height="52.0" class="key"/>
<text x="178.26" y="1568.699814215485" class="tap">F8</text>
<rect rx="6.0" ry="6.0" x="209.91200000000003" y="1564.4838142154852" width="55.303999999999995" height="52.0" class="key"/>
<text x="237.56400000000002" y="1590.4838142154852" class="tap">F9</text>
<rect rx="6.0" ry="6.0" x="269.21599999999995" y="1572.323814215485" width="55.303999999999995" height="52.0" class="key"/>
<text x="296.86799999999994" y="1598.323814215485" class="tap">F12</text>
<rect rx="6.0" ry="6.0" x="522.784" y="1572.323814215485" width="55.303999999999995" height="52.0" class="key"/>
<rect rx="6.0" ry="6.0" x="582.088" y="1564.4838142154852" width="55.303999999999995" height="52.0" class="key"/>
<rect rx="6.0" ry="6.0" x="641.3919999999999" y="1542.699814215485" width="55.303999999999995" height="52.0" class="key"/>
<text x="669.044" y="1568.699814215485" class="tap">HYPER</text>
<rect rx="6.0" ry="6.0" x="700.696" y="1562.467814215485" width="55.303999999999995" height="52.0" class="key"/>
<rect rx="6.0" ry="6.0" x="760.0" y="1602.0038142154851" width="55.303999999999995" height="52.0" class="key"/>
<rect rx="6.0" ry="6.0" x="32.0" y="1658.0038142154851" width="55.303999999999995" height="52.0" class="trans key"/>
<text x="59.652" y="1684.0038142154851" class="trans tap">▽</text>
<rect rx="6.0" ry="6.0" x="91.30399999999999" y="1618.467814215485" width="55.303999999999995" height="52.0" class="key"/>
<text x="118.95599999999999" y="1644.467814215485" class="tap">F4</text>
<rect rx="6.0" ry="6.0" x="150.608" y="1598.699814215485" width="55.303999999999995" height="52.0" class="key"/>
<text x="178.26" y="1624.699814215485" class="tap">F5</text>
<rect rx="6.0" ry="6.0" x="209.91200000000003" y="1620.4838142154852" width="55.303999999999995" height="52.0" class="key"/>
<text x="237.56400000000002" y="1646.4838142154852" class="tap">F6</text>
<rect rx="6.0" ry="6.0" x="269.21599999999995" y="1628.323814215485" width="55.303999999999995" height="52.0" class="key"/>
<text x="296.86799999999994" y="1654.323814215485" class="tap">F11</text>
<rect rx="6.0" ry="6.0" x="522.784" y="1628.323814215485" width="55.303999999999995" height="52.0" class="key"/>
<rect rx="6.0" ry="6.0" x="582.088" y="1620.4838142154852" width="55.303999999999995" height="52.0" class="key"/>
<text x="609.74" y="1646.4838142154852" class="tap">⇧</text>
<rect rx="6.0" ry="6.0" x="641.3919999999999" y="1598.699814215485" width="55.303999999999995" height="52.0" class="key"/>
<text x="669.044" y="1624.699814215485" class="tap">⌘</text>
<rect rx="6.0" ry="6.0" x="700.696" y="1618.467814215485" width="55.303999999999995" height="52.0" class="key"/>
<text x="728.3480000000001" y="1644.467814215485" class="tap">⎇</text>
<rect rx="6.0" ry="6.0" x="760.0" y="1658.0038142154851" width="55.303999999999995" height="52.0" class="key"/>
<text x="787.652" y="1684.0038142154851" class="tap">⌃</text>
<rect rx="6.0" ry="6.0" x="32.0" y="1714.0038142154851" width="55.303999999999995" height="52.0" class="trans key"/>
<text x="59.652" y="1740.0038142154851" class="trans tap">▽</text>
<rect rx="6.0" ry="6.0" x="91.30399999999999" y="1674.467814215485" width="55.303999999999995" height="52.0" class="key"/>
<text x="118.95599999999999" y="1700.467814215485" class="tap">F1</text>
<rect rx="6.0" ry="6.0" x="150.608" y="1654.699814215485" width="55.303999999999995" height="52.0" class="key"/>
<text x="178.26" y="1680.699814215485" class="tap">F2</text>
<rect rx="6.0" ry="6.0" x="209.91200000000003" y="1676.539814215485" width="55.303999999999995" height="52.0" class="key"/>
<text x="237.56400000000002" y="1702.539814215485" class="tap">F3</text>
<rect rx="6.0" ry="6.0" x="269.21599999999995" y="1684.323814215485" width="55.303999999999995" height="52.0" class="key"/>
<text x="296.86799999999994" y="1710.323814215485" class="tap">F10</text>
<rect rx="6.0" ry="6.0" x="522.784" y="1684.323814215485" width="55.303999999999995" height="52.0" class="key"/>
<rect rx="6.0" ry="6.0" x="582.088" y="1676.539814215485" width="55.303999999999995" height="52.0" class="key"/>
<rect rx="6.0" ry="6.0" x="641.3919999999999" y="1654.699814215485" width="55.303999999999995" height="52.0" class="key"/>
<text x="669.044" y="1680.699814215485" class="tap">MEH</text>
<rect rx="6.0" ry="6.0" x="700.696" y="1674.467814215485" width="55.303999999999995" height="52.0" class="key"/>
<rect rx="6.0" ry="6.0" x="760.0" y="1714.0038142154851" width="55.303999999999995" height="52.0" class="key"/>
<rect rx="6.0" ry="6.0" x="190.42400000000004" y="1742.283814215485" width="55.303999999999995" height="52.0" class="key"/>
<text x="218.07600000000002" y="1768.283814215485" class="tap">
<tspan x="218.07600000000002" dy="-1.2em">Cancel</tspan><tspan x="218.07600000000002" dy="1.2em">Func</tspan></text>
<text x="218.07600000000002" y="1792.283814215485" class="hold">⌘</text>
<g transform="rotate(15.0, 284.15695407686394, 1776.7885672822222)">
<rect rx="6.0" ry="6.0" x="256.50495407686395" y="1750.7885672822222" width="55.303999999999995" height="52.0" class="trans key"/>
<text x="284.15695407686394" y="1776.7885672822222" class="trans tap">▽</text>
</g>
<g transform="rotate(30.0, 350.59357474425406, 1786.567814215485)">
<rect rx="6.0" ry="6.0" x="324.59357474425406" y="1744.103814215485" width="52.0" height="84.928" class="trans key"/>
<text x="350.59357474425406" y="1786.567814215485" class="trans tap">▽</text>
</g>
<g transform="rotate(-30.0, 493.40642525574594, 1786.567814215485)">
<rect rx="6.0" ry="6.0" x="467.40642525574594" y="1744.103814215485" width="52.0" height="84.928" class="trans key"/>
<text x="493.40642525574594" y="1786.567814215485" class="trans tap">▽</text>
</g>
<g transform="rotate(-15.0, 563.0344648531952, 1775.9334291572034)">
<rect rx="6.0" ry="6.0" x="535.3824648531952" y="1749.9334291572034" width="55.303999999999995" height="52.0" class="trans key"/>
<text x="563.0344648531952" y="1775.9334291572034" class="trans tap">▽</text>
</g>
<rect rx="6.0" ry="6.0" x="601.5759999999999" y="1742.283814215485" width="55.303999999999995" height="52.0" class="trans key"/>
<text x="629.228" y="1768.283814215485" class="trans tap">▽</text>
</g>
<g class="layer-Adjust">
<text x="30.0" y="1867.0747677693562" class="label">Adjust:</text>
<rect rx="6.0" ry="6.0" x="32.0" y="1956.3787677693563" width="55.303999999999995" height="52.0" class="key"/>
<text x="59.652" y="1982.3787677693563" class="tap">⌘Q</text>
<rect rx="6.0" ry="6.0" x="91.30399999999999" y="1916.8427677693562" width="55.303999999999995" height="52.0" class="key"/>
<text x="118.95599999999999" y="1942.8427677693562" class="tap">⌘W</text>
<rect rx="6.0" ry="6.0" x="150.608" y="1897.0747677693562" width="55.303999999999995" height="52.0" class="key"/>
<rect rx="6.0" ry="6.0" x="209.91200000000003" y="1918.8587677693563" width="55.303999999999995" height="52.0" class="key"/>
<rect rx="6.0" ry="6.0" x="269.21599999999995" y="1926.6987677693562" width="55.303999999999995" height="52.0" class="key"/>
<text x="296.86799999999994" y="1952.6987677693562" class="tap">⌘`</text>
<rect rx="6.0" ry="6.0" x="522.784" y="1926.6987677693562" width="55.303999999999995" height="52.0" class="key"/>
<text x="550.436" y="1952.6987677693562" class="tap">&amp;td_out_bt_clear</text>
<rect rx="6.0" ry="6.0" x="582.088" y="1918.8587677693563" width="55.303999999999995" height="52.0" class="key"/>
<text x="609.74" y="1944.8587677693563" class="tap">
<tspan x="609.74" dy="-0.6em">BT</tspan><tspan x="609.74" dy="1.2em">PRV</tspan></text>
<rect rx="6.0" ry="6.0" x="641.3919999999999" y="1897.0747677693562" width="55.303999999999995" height="52.0" class="key"/>
<text x="669.044" y="1923.0747677693562" class="tap">
<tspan x="669.044" dy="-0.6em">BT</tspan><tspan x="669.044" dy="1.2em">NXT</tspan></text>
<rect rx="6.0" ry="6.0" x="700.696" y="1916.8427677693562" width="55.303999999999995" height="52.0" class="key"/>
<text x="728.3480000000001" y="1942.8427677693562" class="tap">
<tspan x="728.3480000000001" dy="-1.7999999999999998em">EXT</tspan><tspan x="728.3480000000001" dy="1.2em">POWER</tspan><tspan x="728.3480000000001" dy="1.2em">TOGGLE</tspan><tspan x="728.3480000000001" dy="1.2em">CMD</tspan></text>
<rect rx="6.0" ry="6.0" x="760.0" y="1956.3787677693563" width="55.303999999999995" height="52.0" class="key"/>
<text x="787.652" y="1982.3787677693563" class="tap">Base</text>
<rect rx="6.0" ry="6.0" x="32.0" y="2012.3787677693563" width="55.303999999999995" height="52.0" class="key"/>
<rect rx="6.0" ry="6.0" x="91.30399999999999" y="1972.8427677693562" width="55.303999999999995" height="52.0" class="key"/>
<rect rx="6.0" ry="6.0" x="150.608" y="1953.0747677693562" width="55.303999999999995" height="52.0" class="key"/>
<rect rx="6.0" ry="6.0" x="209.91200000000003" y="1974.8587677693563" width="55.303999999999995" height="52.0" class="key"/>
<rect rx="6.0" ry="6.0" x="269.21599999999995" y="1982.6987677693562" width="55.303999999999995" height="52.0" class="key"/>
<text x="296.86799999999994" y="2008.6987677693562" class="tap">⌘↹</text>
<rect rx="6.0" ry="6.0" x="522.784" y="1982.6987677693562" width="55.303999999999995" height="52.0" class="key"/>
<text x="550.436" y="2008.6987677693562" class="tap">
<tspan x="550.436" dy="-0.6em">VOL</tspan><tspan x="550.436" dy="1.2em">MUTE</tspan></text>
<rect rx="6.0" ry="6.0" x="582.088" y="1974.8587677693563" width="55.303999999999995" height="52.0" class="key"/>
<text x="609.74" y="2000.8587677693563" class="tap">⏮</text>
<rect rx="6.0" ry="6.0" x="641.3919999999999" y="1953.0747677693562" width="55.303999999999995" height="52.0" class="key"/>
<text x="669.044" y="1979.0747677693562" class="tap">
<tspan x="669.044" dy="-0.6em">VOL</tspan><tspan x="669.044" dy="1.2em">DOWN</tspan></text>
<rect rx="6.0" ry="6.0" x="700.696" y="1972.8427677693562" width="55.303999999999995" height="52.0" class="key"/>
<text x="728.3480000000001" y="1998.8427677693562" class="tap">
<tspan x="728.3480000000001" dy="-0.6em">VOL</tspan><tspan x="728.3480000000001" dy="1.2em">UP</tspan></text>
<rect rx="6.0" ry="6.0" x="760.0" y="2012.3787677693563" width="55.303999999999995" height="52.0" class="key"/>
<text x="787.652" y="2038.3787677693563" class="tap">⏭</text>
<rect rx="6.0" ry="6.0" x="32.0" y="2068.3787677693563" width="55.303999999999995" height="52.0" class="key"/>
<text x="59.652" y="2094.3787677693563" class="tap">⌘Z</text>
<rect rx="6.0" ry="6.0" x="91.30399999999999" y="2028.8427677693562" width="55.303999999999995" height="52.0" class="key"/>
<text x="118.95599999999999" y="2054.842767769356" class="tap">⌘X</text>
<rect rx="6.0" ry="6.0" x="150.608" y="2009.0747677693562" width="55.303999999999995" height="52.0" class="key"/>
<text x="178.26" y="2035.0747677693562" class="tap">⌘C</text>
<rect rx="6.0" ry="6.0" x="209.91200000000003" y="2030.9147677693563" width="55.303999999999995" height="52.0" class="key"/>
<rect rx="6.0" ry="6.0" x="269.21599999999995" y="2038.698767769356" width="55.303999999999995" height="52.0" class="key"/>
<text x="296.86799999999994" y="2064.698767769356" class="tap">⌘V</text>
<rect rx="6.0" ry="6.0" x="522.784" y="2038.698767769356" width="55.303999999999995" height="52.0" class="key"/>
<rect rx="6.0" ry="6.0" x="582.088" y="2030.9147677693563" width="55.303999999999995" height="52.0" class="key"/>
<text x="609.74" y="2056.9147677693563" class="tap">⏯</text>
<rect rx="6.0" ry="6.0" x="641.3919999999999" y="2009.0747677693562" width="55.303999999999995" height="52.0" class="key"/>
<text x="669.044" y="2035.0747677693562" class="tap">☀↓</text>
<rect rx="6.0" ry="6.0" x="700.696" y="2028.8427677693562" width="55.303999999999995" height="52.0" class="key"/>
<text x="728.3480000000001" y="2054.842767769356" class="tap">☀↑</text>
<rect rx="6.0" ry="6.0" x="760.0" y="2068.3787677693563" width="55.303999999999995" height="52.0" class="key"/>
<rect rx="6.0" ry="6.0" x="190.42400000000004" y="2096.658767769356" width="55.303999999999995" height="52.0" class="key"/>
<text x="218.07600000000002" y="2122.658767769356" class="tap">
<tspan x="218.07600000000002" dy="-1.2em">Cancel</tspan><tspan x="218.07600000000002" dy="1.2em">Adjust</tspan></text>
<text x="218.07600000000002" y="2146.658767769356" class="hold">⌘</text>
<g transform="rotate(15.0, 284.15695407686394, 2131.1635208360935)">
<rect rx="6.0" ry="6.0" x="256.50495407686395" y="2105.1635208360935" width="55.303999999999995" height="52.0" class="trans key"/>
<text x="284.15695407686394" y="2131.1635208360935" class="trans tap">▽</text>
</g>
<g transform="rotate(30.0, 350.59357474425406, 2140.942767769356)">
<rect rx="6.0" ry="6.0" x="324.59357474425406" y="2098.478767769356" width="52.0" height="84.928" class="held key"/>
</g>
<g transform="rotate(-30.0, 493.40642525574594, 2140.942767769356)">
<rect rx="6.0" ry="6.0" x="467.40642525574594" y="2098.478767769356" width="52.0" height="84.928" class="trans key"/>
<text x="493.40642525574594" y="2140.942767769356" class="trans tap">▽</text>
</g>
<g transform="rotate(-15.0, 563.0344648531952, 2130.3083827110745)">
<rect rx="6.0" ry="6.0" x="535.3824648531952" y="2104.3083827110745" width="55.303999999999995" height="52.0" class="trans key"/>
<text x="563.0344648531952" y="2130.3083827110745" class="trans tap">▽</text>
</g>
<rect rx="6.0" ry="6.0" x="601.5759999999999" y="2096.658767769356" width="55.303999999999995" height="52.0" class="trans key"/>
<text x="629.228" y="2122.658767769356" class="trans tap">▽</text>
</g>
</svg>
